<?xml version="1.0" encoding="utf-8"?>
<!-- Generator: Adobe Illustrator 21.0.2, SVG Export Plug-In . SVG Version: 6.00 Build 0)  -->
<svg version="1.1" id="Layer_1" xmlns="http://www.w3.org/2000/svg" xmlns:xlink="http://www.w3.org/1999/xlink" x="0px" y="0px"
	 viewBox="0 0 40 40" style="enable-background:new 0 0 40 40;" xml:space="preserve">
<style type="text/css">
	.st0{fill:#FFE4C0;}
</style>
<g>
	<g>
		<g>
			<path class="st0" d="M16,39.8c0-1,0-2,0-3c-3,0-6,0-9,0C7,25.5,7,14.2,7,2.9c2.9,0,5.9,0,9,0c0-1,0-1.9,0-2.9
				c5.7,1,11.2,2,17,3.1c0,0.1,0,0,0,0.1c0,11.1,0,22.2,0,33.3c0,0.3-0.1,0.4-0.4,0.5c-3.1,0.6-6.3,1.1-9.5,1.7
				c-2.4,0.4-4.7,0.8-7.2,1.3C16.1,39.8,16,39.8,16,39.8z M10,33.8c2,0,4,0,6,0c0-9.6,0-19.3,0-28.9c-0.1,0-0.3,0-0.4,0h-5.2
				c-0.2,0-0.4,0.2-0.4,0.4v28.1C10,33.5,10,33.6,10,33.8z M18,19.7c0,0.4,0.1,0.8,0.4,1c0.4,0.4,0.9,0.4,1.3,0
				c0.5-0.5,0.5-1.5,0-2.1c-0.4-0.4-0.9-0.4-1.3,0C18.1,19,18,19.3,18,19.7z"/>
		</g>
	</g>
</g>
</svg>
