<?xml version="1.0" encoding="utf-8"?>
<!-- Generator: Adobe Illustrator 21.0.2, SVG Export Plug-In . SVG Version: 6.00 Build 0)  -->
<svg version="1.1" id="Layer_1" xmlns="http://www.w3.org/2000/svg" xmlns:xlink="http://www.w3.org/1999/xlink" x="0px" y="0px"
	 viewBox="0 0 40 40.1" style="enable-background:new 0 0 40 40.1;" xml:space="preserve">
<style type="text/css">
	.st0{fill:#FFFFFF;}
</style>
<path class="st0" d="M32.7,18.8L29.1,1.2c-0.1-0.6-0.7-1.1-1.3-1.1H20l0,0l0,0h-7.8c-0.6,0-1.2,0.5-1.3,1.1L7.3,18.8
	c-0.1,0.4,0,0.8,0.3,1.1s0.6,0.5,1.1,0.5h10v1.9c-0.6,0.1-1.4,0.2-2.1,0.4c-2.6,0.8-4.1,2.6-4.2,5c-0.1,2.1,1.1,4.8,3.4,8
	c0.4,0.6,0.9,1.2,1.3,1.7h-4.3c-0.8,0-1.4,0.6-1.4,1.4c0,0.8,0.6,1.4,1.4,1.4H20l0,0l0,0h7.3c0.8,0,1.4-0.6,1.4-1.4
	c0-0.8-0.6-1.4-1.4-1.4h-4.2c0.4-0.5,0.8-1.1,1.3-1.7c2.3-3.2,3.4-5.8,3.4-8c-0.1-2.4-1.6-4.1-4.2-5c-0.8-0.2-1.5-0.4-2.1-0.4v-1.9
	h10c0.4,0,0.8-0.2,1.1-0.5C32.7,19.6,32.8,19.2,32.7,18.8z M25,27.8c0.1,2.6-3,6.7-5,8.9c-1.9-2.2-5.1-6.3-5-8.9
	c0-0.7,0.3-1.8,2.2-2.4c1.3-0.4,2.7-0.4,2.7-0.4s0,0,0.1,0s0,0,0.1,0C20.1,25,24.9,24.9,25,27.8z M20,17.7L20,17.7L20,17.7h-9.7
	l3-14.9H20l0,0l0,0h6.7l3,14.8L20,17.7L20,17.7z"/>
</svg>
