<?xml version="1.0" encoding="utf-8"?>
<!-- Generator: Adobe Illustrator 21.0.2, SVG Export Plug-In . SVG Version: 6.00 Build 0)  -->
<svg version="1.1" id="Layer_1" xmlns="http://www.w3.org/2000/svg" xmlns:xlink="http://www.w3.org/1999/xlink" x="0px" y="0px"
	 viewBox="0 0 40 40" style="enable-background:new 0 0 40 40;" xml:space="preserve">
<style type="text/css">
	.st0{fill:#FFFFFF;}
</style>
<g>
	<g>
		<path class="st0" d="M6.2,21.7c0-0.4,0-0.7,0-1c-0.1-1.6-1.2-3-2.8-3.3c-0.1,0-0.1,0-0.2-0.1c0-0.7,0.1-1.5,0.4-2.1
			c0.9-1.6,2.2-2.5,4-2.5c0.5,0,1.1,0.2,1.7,0.2c1.1,0.1,2.3,0.3,3.4,0.4c3.1,0.2,6.2,0.2,9.2,0.2c2.2,0,4.3-0.2,6.5-0.3
			c1.1-0.1,2.3-0.3,3.4-0.5c2.3-0.4,4.5,1.2,5,3.4c0.1,0.2,0.1,0.5,0.1,0.7c0,0.1,0,0.3,0,0.5c-2.3,0.6-3.2,2.1-3,4.4
			C24.6,21.7,15.4,21.7,6.2,21.7z"/>
		<path class="st0" d="M33.8,22.6c0,1.6,0,3.2,0,4.8c-9.2,0-18.4,0-27.6,0c0-1.6,0-3.2,0-4.8C15.4,22.6,24.6,22.6,33.8,22.6z"/>
		<path class="st0" d="M37.9,23.3c0,1.3,0,2.7,0,4c-1.1,0-2.1,0-3.2,0c0-0.1,0-0.1,0-0.2c0-2.1,0-4.3,0-6.4c0-1.4,0.8-2.3,2.1-2.6
			c0.8-0.1,1.5,0,2.1,0.4c0.9,0.7,1.2,1.6,1,2.7c-0.2,1.1-0.9,1.8-1.9,2.1C38,23.3,37.9,23.3,37.9,23.3z"/>
		<path class="st0" d="M5.3,27.3c-1.1,0-2.1,0-3.2,0c0-1.3,0-2.7,0-4c-0.8-0.2-1.5-0.7-1.9-1.5C-0.2,21-0.1,20,0.5,19.2
			C1.1,18.4,2,18,3,18.1c1.4,0.2,2.3,1.3,2.3,2.7c0,2.1,0,4.1,0,6.2C5.3,27.1,5.3,27.2,5.3,27.3z"/>
	</g>
</g>
</svg>
