<svg xmlns="http://www.w3.org/2000/svg" viewBox="0 0 50 70"><defs><style>.cls-1{fill:#fff;}</style></defs><title>Ресурс 3</title><g id="Слой_2" data-name="Слой 2"><g id="Layer_1" data-name="Layer 1"><path class="cls-1" d="M48.52,41.13h-12a.15.15,0,0,0-.14.14v.51a.15.15,0,0,0,.14.14h0v.36l-1.41,3.54a4.77,4.77,0,0,0-.28,1.37V66.61a1.73,1.73,0,0,0,.14.58l1.12,2v.07h0v.58h0a.15.15,0,0,0,.14.14H48.66l.07-.07h0v-.65h0l1.12-2a1.39,1.39,0,0,0,.14-.58V47.2h0v-.07h0v-.07h0V47h0v-.07a1.73,1.73,0,0,0-.14-.58h0v-.07h0v-.07h0V45.9l-1.41-3.54v-.43h0a.15.15,0,0,0,.14-.14v-.51c.07-.07,0-.14-.07-.14"/><path class="cls-1" d="M.84,44.68a1.23,1.23,0,0,1-.12-1.23c1-3.42,2-6.86,3-10.28a2,2,0,0,0-.21-1.78,1.51,1.51,0,0,1-.11-.87c0-.5.15-1,.23-1.49a.45.45,0,0,0-.2-.53c-.15-.11-.08-.46,0-.64s.2-.42.38-.42c1.53,0,3,0,4.52,0,.18,0,.29.31.33.47s.09.46-.07.57a.41.41,0,0,0-.18.49c.09.56.2,1.11.25,1.67a1.37,1.37,0,0,1-.16.77A1.86,1.86,0,0,0,8.26,33c1,3.46,2,6.92,3,10.37.16.53.22,1-.1,1.31a14.93,14.93,0,0,1,.41,1.85c.17,1.87.25,3.74.44,5.61.05.53-.4.9-.24,1.47a3.62,3.62,0,0,1,0,1.51c-.23,1.44-.55,2.87-.79,4.31a8.9,8.9,0,0,0,.25,4.11c.25.81.52,1.62.7,2.45a3.22,3.22,0,0,1-.46,2.58,2.13,2.13,0,0,1-1.87,1c-2.33,0-4.66,0-7,0A2.53,2.53,0,0,1,0,66.92,6.65,6.65,0,0,1,.32,65a11.09,11.09,0,0,0,.78-4.78C.94,59,.69,57.76.47,56.53c-.12-.66-.25-1.31-.38-2a.33.33,0,0,1,0-.13,4,4,0,0,0,.3-1.11c0-.37-.33-.73-.34-1.1,0-.82.09-1.64.14-2.46.07-1.06.12-2.13.24-3.19A18.5,18.5,0,0,1,.84,44.68Z"/><path class="cls-1" d="M23.23,69.72c1.86,0,3.73,0,5.59-.17,1.52,0,2.2-1,2.2-2.61,0-13.21,0-26.43.17-39.81a7.93,7.93,0,0,0-2.71-6.26,5.21,5.21,0,0,1-1.69-3.3c-.34-4.35-.51-8.87-.51-13.21,0-4,0-4.35-3-4.35s-3,.35-3,4.35c0,4.52-.17,8.87-.51,13.21A5.21,5.21,0,0,1,18,20.86a7.43,7.43,0,0,0-2.71,6.26c0,13.21.17,26.43.17,39.81,0,1.56.68,2.61,2.2,2.61C19.51,69.72,21.37,69.72,23.23,69.72Z"/></g></g></svg>