<?xml version="1.0" encoding="utf-8"?>
<!-- Generator: Adobe Illustrator 21.0.2, SVG Export Plug-In . SVG Version: 6.00 Build 0)  -->
<svg version="1.1" id="Layer_1" xmlns="http://www.w3.org/2000/svg" xmlns:xlink="http://www.w3.org/1999/xlink" x="0px" y="0px"
	 viewBox="0 0 40 40" style="enable-background:new 0 0 40 40;" xml:space="preserve">
<style type="text/css">
	.st0{fill:#FFFFFF;}
</style>
<g>
	<g>
		<path class="st0" d="M20.1,5.1c6.2,0,12.3,0,18.5,0c0.9,0,1.3,0.4,1.4,1.3c0,0.6,0,1.1,0,1.7c-0.1,0.9-0.5,1.3-1.4,1.3
			c-12.4,0-24.8,0-37.2,0C0.6,9.4,0.1,8.9,0,8c0-0.5,0-1.1,0-1.6c0.1-0.8,0.6-1.3,1.4-1.3C7.7,5.1,13.9,5.1,20.1,5.1z"/>
		<path class="st0" d="M32.6,17.9c-1.7,0-3.4,0-5.2,0c-0.4,0-0.5-0.1-0.5-0.5c0-2,0-4,0-6c0-0.4,0.1-0.5,0.5-0.5c3.1,0,6.3,0,9.4,0
			c0.9,0,1.5,0.6,1.5,1.5c0,1.7,0,3.4,0,5c0,0.4-0.1,0.4-0.5,0.4C36.1,17.9,34.4,17.9,32.6,17.9z"/>
		<path class="st0" d="M7.4,17.9c-1.7,0-3.4,0-5.1,0c-0.4,0-0.6-0.1-0.6-0.5c0-1.6,0-3.2,0-4.8c0-1.1,0.6-1.7,1.7-1.7
			c3.1,0,6.1,0,9.2,0c0.4,0,0.6,0.1,0.6,0.5c0,2,0,3.9,0,5.9c0,0.6,0,0.6-0.6,0.6C10.8,17.9,9.1,17.9,7.4,17.9L7.4,17.9z"/>
		<path class="st0" d="M7.2,34.8c-1.7,0-3.3,0-5,0c-0.4,0-0.6-0.1-0.5-0.6c0-1.9,0-3.9,0-5.8c0-0.4,0.1-0.5,0.5-0.5
			c3.4,0,6.8,0,10.1,0c0.4,0,0.5,0.1,0.5,0.5c0,2,0,3.9,0,5.9c0,0.4-0.2,0.5-0.5,0.5C10.6,34.8,8.9,34.8,7.2,34.8L7.2,34.8z"/>
		<path class="st0" d="M20,17.9c-1.6,0-3.3,0-4.9,0c-0.4,0-0.5-0.1-0.5-0.5c0-2,0-4,0-6c0-0.4,0.1-0.5,0.5-0.5c3.3,0,6.6,0,9.9,0
			c0.5,0,0.6,0.1,0.6,0.6c0,2,0,3.9,0,5.9c0,0.4-0.1,0.6-0.5,0.6C23.3,17.9,21.7,17.9,20,17.9z"/>
		<path class="st0" d="M32.8,34.8c-1.7,0-3.3,0-5,0c-0.4,0-0.5-0.1-0.5-0.5c0-2,0-3.9,0-5.9c0-0.4,0.1-0.5,0.5-0.5c3.3,0,6.7,0,10,0
			c0.4,0,0.5,0.1,0.5,0.5c0,2,0,3.9,0,5.9c0,0.4-0.1,0.5-0.5,0.5C36.1,34.8,34.5,34.8,32.8,34.8z"/>
		<path class="st0" d="M22.7,32.3c-0.3,0-0.5,0-0.7,0.1c0.1-0.5,0.2-0.9,0.3-1.4c-0.3,0.1-0.5,0.2-0.6,0.3c-0.2-0.8-0.4-1.6-0.7-2.5
			C20.8,29,20.8,29,20.7,29c-0.6,0.6-1.3,1.2-1.9,1.9c-1.1,1.3-0.9,2.8,0.4,3.8c0.1,0.1,0.1,0.1,0.2,0.2c-1.5,0.2-4.2-1-4.3-2.5
			c0.2,0.1,0.4,0.2,0.6,0.3c0-0.1,0-0.2-0.1-0.3c-0.7-1.5,0-3.4,1.1-4.3c0.1-0.1,0.1-0.1,0.2-0.2c0.8-0.5,1.3-1.2,1-2.2
			c0.6-0.2,0.8,0,1.4,1.3c0.4-0.4,0.6-1,0.5-1.6c-0.1-0.6-0.2-1.1-0.3-1.8c0.3,0.1,0.6,0.2,0.9,0.4c0.7,0.5,1.2,1.2,1.6,2
			c0.2,0.4,0.4,0.8,0.6,1.2c0.2-0.2,0.5-0.4,0.7-0.6c0.2,0.5,0.2,1,0.4,1.4c0.4,0.8,0.5,1.7,0.4,2.6c0,0.1,0,0.1,0.1,0.2
			c0.1-0.3,0.2-0.6,0.3-0.9c0.4,0.5,0.4,2-0.1,3c-0.6,1.2-2.1,2.1-3.5,2c0.4-0.4,0.8-0.7,1.1-1.1C22.5,33.5,22.6,32.8,22.7,32.3z"/>
		<path class="st0" d="M13.8,19.5c1.6,0,3.2,0,4.7,0c0.4,0,0.6,0.1,0.5,0.5c0,0.4,0.1,0.9-0.1,1.1s-0.7,0.2-1,0.3
			c-1.6,0.4-3,1.1-4.1,2.3c-0.5,0.7-0.9,1.4-1,2.2c0,0.3-0.1,0.4-0.4,0.4c-1.2,0-2.3,0-3.5,0c-0.3,0-0.4-0.1-0.4-0.4c0-2,0-4,0-6
			c0-0.4,0.2-0.5,0.5-0.5C10.6,19.5,12.2,19.5,13.8,19.5L13.8,19.5z"/>
		<path class="st0" d="M26.1,19.5c1.6,0,3.2,0,4.9,0c0.4,0,0.6,0.1,0.6,0.5c0,1.9,0,3.9,0,5.8c0,0.4-0.1,0.6-0.6,0.5
			c-1.1,0-2.1,0-3.2,0c-0.2,0-0.4,0-0.4-0.3c-0.4-2.3-2-3.5-4-4.3c-0.7-0.3-1.5-0.4-2.3-0.5c-0.3-0.1-0.4-0.2-0.4-0.5
			c0-1.3,0-1.3,1.3-1.3C23.3,19.5,24.7,19.5,26.1,19.5z"/>
		<path class="st0" d="M1.7,22.8c0-1,0-2,0-3c0-0.3,0.1-0.5,0.5-0.5c1.5,0,3,0,4.4,0c0.3,0,0.5,0.1,0.5,0.5c0,2,0,4,0,6
			c0,0.4-0.1,0.5-0.5,0.5c-1.5,0-2.9,0-4.4,0c-0.4,0-0.5-0.1-0.5-0.5C1.7,24.8,1.7,23.8,1.7,22.8L1.7,22.8z"/>
		<path class="st0" d="M33,22.8c0-1,0-1.9,0-2.9c0-0.4,0.1-0.6,0.5-0.5c1.4,0,2.9,0,4.3,0c0.4,0,0.5,0.1,0.5,0.5c0,2,0,4,0,6
			c0,0.4-0.1,0.5-0.5,0.5c-1.4,0-2.9,0-4.3,0c-0.4,0-0.5-0.1-0.5-0.5C33,24.8,33,23.8,33,22.8L33,22.8z"/>
	</g>
</g>
</svg>
