<?xml version="1.0" encoding="utf-8"?>
<!-- Generator: Adobe Illustrator 21.0.2, SVG Export Plug-In . SVG Version: 6.00 Build 0)  -->
<svg version="1.1" id="Layer_1" xmlns="http://www.w3.org/2000/svg" xmlns:xlink="http://www.w3.org/1999/xlink" x="0px" y="0px"
	 viewBox="0 0 160 160" style="enable-background:new 0 0 160 160;" xml:space="preserve">
<style type="text/css">
	.st0{fill:#FFFFFF;}
	.st1{fill:none;}
	.st2{fill:none;stroke:#FFFFFF;stroke-miterlimit:10;}
</style>
<g>
	<path class="st0" d="M1.4,121.3c0.2-2.4,2.8-4.6,4-4.6c49.1-0.2,66.3-0.4,111.9-0.2c1,0,3.2,2.2,3.4,4.6c0,2.2-2.2,4.6-3.4,4.6
		c-46.5,0.6-66.7,0.2-112.3,0.4C3.8,126.1,1.4,123.5,1.4,121.3z"/>
	<g>
		<path class="st1" d="M50.7,78c-1.4,8.2,6.4,9.4,6.4,9.4s6-2,15.4-4c-0.8-3.8-0.6-8.2,0.8-8.4c10.2-0.8,17.2-0.4,28.2,0.4
			c0.2,0,0.8,2.2,0.4,4.8c0.2,0,0.2,0,0.4,0c10.2,0,17.8-1,17.8-1s-2.2-8-7-23.8C76.1,60,65.3,68.2,50.7,78z"/>
		<path class="st0" d="M120.5,45.6c3.8-2.4,6.2-3.8,13.4-5c0-1.6-0.4-3.6-0.6-6.4c-6.2,1-10.6,2.8-15.4,6.2c0-0.2-0.2-0.2-0.2-0.4
			C28.4,45.8,0,112.7,0,112.7l106.9,0.2l31-15.8C137.8,97.2,129.6,65,120.5,45.6z M12.2,106.5c-0.4-0.4-3-2.8-3-2.8
			C9.2,99,36,69.6,48.3,65.2c0,0,1.2,1.4,2,3.4C33.6,81.4,22,91.6,12.2,106.5z M102.1,80.4c-0.2,0-0.2,0-0.4,0
			c0.4-2.6-0.2-4.8-0.4-4.8c-11-0.6-18-1-28.2-0.4c-1.4,0.2-1.6,4.6-0.8,8.4c-9.2,2-15.4,4-15.4,4s-7.6-1.4-6.4-9.4
			c14.6-10,25.4-18,62.1-22.6c4.8,15.8,7,23.8,7,23.8S112.1,80.4,102.1,80.4z"/>
		<path class="st2" d="M9.2,103.9c0,0,2.6,2.4,3,2.8C22,91.8,33.6,81.4,50.5,69c-0.8-2-2-3.4-2-3.4C36,69.8,9.2,99.2,9.2,103.9z"/>
	</g>
	<path class="st1" d="M137,36.6"/>
	<g>
		<path class="st0" d="M156.8,75.4c-6.6,0-16.6,0-17.2-10c-0.2-4.8,4.4-9,9-13c5.6-5,9.2-8.6,7.2-12c-1.8-2.8-8-3.6-18.8-2.6
			l-0.4-3.6c16.2-1.4,20.4,1.6,22.2,4.4c3.8,6.2-2.2,11.6-7.8,16.6c-3.8,3.4-8,7-7.8,10.2c0.4,6.2,5.8,6.6,13.6,6.6V75.4z"/>
	</g>
</g>
</svg>
