<svg xmlns="http://www.w3.org/2000/svg" viewBox="0 0 40 37.99"><defs><style>.cls-1{fill:#fff;}</style></defs><title>Ресурс 4taxi_in</title><g id="Слой_2" data-name="Слой 2"><g id="Layer_1" data-name="Layer 1"><path class="cls-1" d="M30,34h-.63Q20,34,10.62,34c-.5,0-.7.11-.66.64a9.66,9.66,0,0,1,0,1.48A2,2,0,0,1,8,38C6.67,38,5.31,38,4,38A2,2,0,0,1,2,36c0-.54,0-1.08,0-1.61,0-.29-.07-.41-.38-.47A1.9,1.9,0,0,1,0,32q0-5,0-10a1.92,1.92,0,0,1,2.06-2c.49,0,.66-.17.8-.61C4,15.9,5.18,12.38,6.43,8.9A14.28,14.28,0,0,1,8,6a4.11,4.11,0,0,1,3.21-1.88c.92,0,1.85,0,2.85,0,0-.68,0-1.25,0-1.81A2,2,0,0,1,16.45,0c2.36.09,4.72.12,7.08,0A2.05,2.05,0,0,1,26,2.22c0,.57,0,1.14,0,1.8.88,0,1.71,0,2.53,0a4.76,4.76,0,0,1,4.06,2.64,27.93,27.93,0,0,1,2,5.23q1.29,3.82,2.54,7.65a.57.57,0,0,0,.67.47A2.24,2.24,0,0,1,40,22.32q0,4.72,0,9.45a2,2,0,0,1-1.68,2.17.45.45,0,0,0-.32.36c0,.56,0,1.12,0,1.67a2,2,0,0,1-2,2c-1.34,0-2.69,0-4,0A2,2,0,0,1,30,36.07C30,35.39,30,34.71,30,34Zm3.09-14c-.06-.2-.1-.36-.15-.51-.59-1.75-1.16-3.49-1.76-5.23S30,10.86,29.44,9.17a1.76,1.76,0,0,0-1.91-1.23c-5,0-9.95,0-14.92,0-1.37,0-1.63.17-2.15,1.45-.06.14-.11.28-.16.43L7,19.66A2.27,2.27,0,0,0,7,20Zm-26,10.53a3.53,3.53,0,1,0-3.72-3.36A3.55,3.55,0,0,0,7.17,30.51Zm25.67,0a3.53,3.53,0,1,0-3.38-3.65A3.54,3.54,0,0,0,32.84,30.51Z"/></g></g></svg>