<svg xmlns="http://www.w3.org/2000/svg" viewBox="0 0 39 15.38"><defs><style>.cls-1{fill:#fff;}</style></defs><title>Ресурс 3taxi_out</title><g id="Слой_2" data-name="Слой 2"><g id="Layer_1" data-name="Layer 1"><rect class="cls-1" x="0.5" y="8.19" width="6.8" height="6.69"/><path class="cls-1" d="M6.8,8.69v5.69H1V8.69H6.8m1-1H0v7.69H7.8V7.69Z"/><rect class="cls-1" x="8.3" y="0.5" width="6.8" height="6.69"/><path class="cls-1" d="M14.6,1V6.69H8.8V1h5.8m1-1H7.8V7.69h7.8V0Z"/><rect class="cls-1" x="16.1" y="8.19" width="6.8" height="6.69"/><path class="cls-1" d="M22.4,8.69v5.69H16.6V8.69h5.8m1-1H15.6v7.69h7.8V7.69Z"/><rect class="cls-1" x="23.9" y="0.5" width="6.8" height="6.69"/><path class="cls-1" d="M30.2,1V6.69H24.4V1h5.8m1-1H23.4V7.69h7.8V0Z"/><rect class="cls-1" x="31.7" y="8.19" width="6.8" height="6.69"/><path class="cls-1" d="M38,8.69v5.69H32.2V8.69H38m1-1H31.2v7.69H39V7.69Z"/></g></g></svg>