<?xml version="1.0" encoding="utf-8"?>
<!-- Generator: Adobe Illustrator 21.0.2, SVG Export Plug-In . SVG Version: 6.00 Build 0)  -->
<svg version="1.1" id="Layer_1" xmlns="http://www.w3.org/2000/svg" xmlns:xlink="http://www.w3.org/1999/xlink" x="0px" y="0px"
	 viewBox="0 0 160 160" style="enable-background:new 0 0 160 160;" xml:space="preserve">
<style type="text/css">
	.st0{fill:#FFFFFF;}
</style>
<g>
	<g>
		<path class="st0" d="M19.2,32.5c40.6,0,81.1,0,121.7,0c0,0.6,0,1.1,0,1.6c0,38.8,0,77.7,0,116.5c0,5.7-3.6,9.3-9.3,9.3
			c-34.4,0-68.7,0-103.1,0c-5.7,0-9.4-3.7-9.4-9.3c0-39,0-78,0-117C19.1,33.4,19.2,33,19.2,32.5z M25.3,38.6c0,0.7,0,1.2,0,1.8
			c0,36.6,0,73.2,0,109.9c0,2.8,0.8,3.6,3.6,3.6c34,0,68,0,102,0c3.1,0,3.8-0.7,3.8-3.9c0-36.6,0-73.2,0-109.9c0-0.5,0-1-0.1-1.5
			C98.2,38.6,61.8,38.6,25.3,38.6z"/>
		<path class="st0" d="M140.9,29.7c-40.7,0-81.1,0-121.8,0c0-0.6,0-1.1,0-1.6c0-6.1,0.1-12.3,0-18.4C19,3.3,23.8,0,28.7,0
			c34.3,0.1,68.5,0.1,102.8,0.1c5.9,0,9.5,3.5,9.5,9.5c0,6.1,0,12.3,0,18.4C140.9,28.4,140.9,29,140.9,29.7z M134.8,23.5
			c0-0.6,0-1.1,0-1.6c0-3.9,0-7.8,0-11.7c0-3.3-0.7-4-4-4c-17.1,0-34.1,0-51.2,0c-16.8,0-33.6,0-50.4,0c-3.3,0-3.9,0.7-3.9,4
			c0,3.9,0,7.8,0,11.7c0,0.5,0,1,0,1.6C61.8,23.5,98.2,23.5,134.8,23.5z"/>
		<path class="st0" d="M80,133.7c-22.4,0-40.4-18.1-40.2-40.7c0.1-22.7,19-40.2,40.9-39.9c22.3,0.4,40,19,39.7,41.2
			C120,115.8,102,133.7,80,133.7z M80,127.6c18.8,0,34.2-15.3,34.2-34c0-19-15.2-34.4-34.1-34.4c-18.8,0-34.3,15.4-34.3,34.2
			C45.8,112.2,61.2,127.6,80,127.6z"/>
		<path class="st0" d="M57,20.8c-3.2,0-5.8-2.5-5.8-5.8c0-3.2,2.5-5.7,5.7-5.7c3.2,0,5.8,2.5,5.9,5.7C62.8,18.2,60.2,20.8,57,20.8z"
			/>
		<path class="st0" d="M45.2,15.1c0,3.2-2.5,5.7-5.7,5.7c-3.2,0-5.8-2.5-5.8-5.7c0-3.2,2.5-5.8,5.8-5.8
			C42.8,9.3,45.2,11.8,45.2,15.1z"/>
		<path class="st0" d="M80,83.1c4.4,6,11.5,5.1,14.9,0.1c4.4,5.7,10.4,4.9,14.2,1.1c3.5,9.6,1.3,24-10,33c-10.9,8.8-26.6,9-37.7,0.4
			c-11.6-8.9-14-23.4-10.5-33.5c2,2.1,4.4,3.3,7.3,3c2.9-0.2,5.1-1.7,6.8-4.2c1.9,2.6,4.3,4.2,7.5,4.2C75.8,87.3,78.2,85.8,80,83.1z
			"/>
	</g>
</g>
</svg>
