<?xml version="1.0" encoding="utf-8"?>
<!-- Generator: Adobe Illustrator 21.0.2, SVG Export Plug-In . SVG Version: 6.00 Build 0)  -->
<svg version="1.1" id="Layer_1" xmlns="http://www.w3.org/2000/svg" xmlns:xlink="http://www.w3.org/1999/xlink" x="0px" y="0px"
	 viewBox="0 0 40 40" style="enable-background:new 0 0 40 40;" xml:space="preserve">
<style type="text/css">
	.st0{fill:#FFFFFF;}
</style>
<g>
	<g>
		<path class="st0" d="M16.2,39.9c0-1,0-1.9,0-2.9c-3.1,0-6.2,0-9.2,0C7,25.7,7,14.3,7,3C10,3,13,3,16.1,3c0-1,0-1.9,0-2.9
			c5.7,1,11.2,2,16.9,3.1c0,0.1,0,0.3,0,0.4c0,11,0,22,0,33c0,0.3-0.1,0.4-0.4,0.5c-3.1,0.6-6.2,1.1-9.4,1.7
			c-2.4,0.4-4.7,0.8-7.1,1.3C16.3,39.9,16.2,39.9,16.2,39.9z M9.8,34.2c2.2,0,4.4,0,6.5,0c0-9.5,0-19,0-28.5c-0.1,0-0.3,0-0.4,0
			c-1.9,0-3.8,0-5.7,0c-0.3,0-0.4,0.1-0.4,0.4c0,9.3,0,18.5,0,27.7C9.8,33.9,9.8,34,9.8,34.2z M18,20c0,0.4,0.1,0.8,0.4,1
			c0.4,0.4,0.9,0.4,1.3,0c0.5-0.5,0.5-1.5,0-2.1c-0.4-0.4-0.9-0.4-1.3,0C18.1,19.3,18,19.6,18,20z"/>
	</g>
</g>
</svg>
