<svg xmlns="http://www.w3.org/2000/svg" viewBox="0 0 72.97 81.34"><defs><style>.cls-1{fill:#badcdc;}.cls-1,.cls-2{fill-rule:evenodd;}.cls-2{fill:#2c7d86;}</style></defs><title>Ресурс 1</title><g id="Слой_2" data-name="Слой 2"><g id="Слой_1-2" data-name="Слой 1"><path class="cls-1" d="M16.58,52.51l-.6-.9-.45-.83A68.69,68.69,0,0,0,10,42.51C7.59,39.43,4.62,36.12,2.07,35A9.72,9.72,0,0,0,0,34.39V24.54a9.39,9.39,0,0,1,4.29-7.37L32.22,1a9.25,9.25,0,0,1,8.53,0L68.68,17.17a7.51,7.51,0,0,1,2.56,2.44c-3.46.19-5.56,1.5-8,4.06-.08,0-.11.11-.19.19A15.42,15.42,0,0,0,60.11,30,33.28,33.28,0,0,1,59,33.9l-.56,1.32-.71,1c-1.54,2-4,3.2-6.28,2.48l-1.05-.49-1.05-.79c-5.86-4.17-12.44-4.62-17.18.19l-.9,1,0,0,0,0-.71,1a15.28,15.28,0,0,0-1.62,3.68c-.53,1.69-1,3.61-1.39,5.3-1.09,4.21-2,5.9-2.93,6.28C21.05,56.34,18.23,54.65,16.58,52.51Z"/><path class="cls-2" d="M32.22,80.33,4.29,64.2A9.39,9.39,0,0,1,0,56.83V39.2l.23.11c1.24.53,3.57,2.78,6.09,6.05a56.65,56.65,0,0,1,5.56,8.42.28.28,0,0,1,.08.15c2.14,3.65,7.44,8,14.4,5.3C30,57.62,31.2,52.81,32,49.8c.49-1.84.86-3.53,1.35-5a8.47,8.47,0,0,1,1.43-3s0-.08.08-.08c3-3.83,7.59-3.95,12.86.34.08,0,.15.11.23.15,6,3.76,12.11-.19,14.62-4.7a.38.38,0,0,0,0-.11,26.75,26.75,0,0,0,2.07-6.17,11.15,11.15,0,0,1,1.28-3.31l.71-1.05.68-.68c1.62-1.5,2.93-2,5.64-1.88a.83.83,0,0,1,0,.3V56.83a9.39,9.39,0,0,1-4.29,7.37L40.75,80.33A9.47,9.47,0,0,1,32.22,80.33Z"/></g></g></svg>