<?xml version="1.0" encoding="utf-8"?>
<!-- Generator: Adobe Illustrator 21.0.2, SVG Export Plug-In . SVG Version: 6.00 Build 0)  -->
<svg width="40" height="40" version="1.1" id="Layer_1" xmlns="http://www.w3.org/2000/svg" xmlns:xlink="http://www.w3.org/1999/xlink" x="0px" y="0px"
	 viewBox="0 0 40 40" style="enable-background:new 0 0 40 40;" xml:space="preserve">
<style type="text/css">
	.st0{fill:#727272;}
</style>
<path class="st0" d="M20.5,18.5c-3.2-0.8-4.2-1.7-4.2-3c0-1.5,1.4-2.6,3.7-2.6c2.5,0,3.4,1.2,3.5,2.9h3.1c-0.1-2.4-1.6-4.6-4.5-5.3
	v-3H18v3c-2.7,0.6-4.9,2.3-4.9,5c0,3.2,2.7,4.8,6.5,5.7c3.5,0.8,4.2,2.1,4.2,3.3c0,1-0.7,2.5-3.8,2.5c-2.9,0-4-1.3-4.1-2.9h-3.1
	c0.2,3,2.4,4.8,5.1,5.3v3h4.2v-3c2.7-0.5,4.9-2.1,4.9-4.9C27.1,20.6,23.7,19.3,20.5,18.5z"/>
</svg>
