<?xml version="1.0" encoding="utf-8"?>
<!-- Generator: Adobe Illustrator 21.0.2, SVG Export Plug-In . SVG Version: 6.00 Build 0)  -->
<svg width="40" height="40" version="1.1" id="Layer_1" xmlns="http://www.w3.org/2000/svg" xmlns:xlink="http://www.w3.org/1999/xlink" x="0px" y="0px"
	 viewBox="0 0 40 40" style="enable-background:new 0 0 40 40;" xml:space="preserve">
<style type="text/css">
	.st0{fill:#727272;}
</style>
<g>
	<path class="st0" d="M30.2,9.8H9.8c-1.3,0-2.3,1-2.3,2.3V28c0,1.3,1,2.3,2.3,2.3h20.5c1.3,0,2.3-1,2.3-2.3V12
		C32.5,10.8,31.5,9.8,30.2,9.8z M30.2,28H9.8V12h20.5V28z"/>
	<g>
		<path class="st0" d="M24.1,16.3c0.7,0,1.3,0.6,1.3,1.3c0,0.7-0.6,1.3-1.3,1.3c-0.7,0-1.3-0.6-1.3-1.3
			C22.9,16.9,23.5,16.3,24.1,16.3 M24.1,21.8c1.8,0,3.7,0.9,3.7,1.3v0.7h-7.4V23C20.5,22.6,22.3,21.8,24.1,21.8 M24.1,15.2
			c-1.3,0-2.4,1.1-2.4,2.4s1.1,2.4,2.4,2.4c1.3,0,2.4-1.1,2.4-2.4S25.5,15.2,24.1,15.2z M24.1,20.6c-1.6,0-4.8,0.8-4.8,2.4v1.8H29
			v-1.8C29,21.4,25.7,20.6,24.1,20.6z"/>
	</g>
	<g>
		<path class="st0" d="M18.8,17.4v-1.1h-7.4v1.1H18.8z"/>
	</g>
	<g>
		<path class="st0" d="M17,19.7v-1.1h-5.7v1.1H17z"/>
	</g>
</g>
</svg>
