<?xml version="1.0" encoding="utf-8"?>
<!-- Generator: Adobe Illustrator 21.0.2, SVG Export Plug-In . SVG Version: 6.00 Build 0)  -->
<svg width="15" height="16" version="1.1" id="Layer_1" xmlns="http://www.w3.org/2000/svg" xmlns:xlink="http://www.w3.org/1999/xlink" x="0px" y="0px"
	 viewBox="0 0 15 16" style="enable-background:new 0 0 15 16;" xml:space="preserve">
<style type="text/css">
	.st0{fill:#727272;}
</style>
<title>Asset 7</title>
<g id="Layer_2">
	<g id="Layer_1-2">
		<path class="st0" d="M13.1,1.6h-0.8V0h-1.6v1.6H4.3V0H2.7v1.6H1.9c-0.9,0-1.6,0.7-1.6,1.6c0,0,0,0,0,0v11.1C0.3,15.2,1,16,1.9,16
			l0,0h11.1c0.9,0,1.6-0.7,1.6-1.6V3.2C14.7,2.3,14,1.6,13.1,1.6z M13.1,14.4H1.9V5.6h11.1V14.4z M3.5,7.2h4v4h-4L3.5,7.2z"/>
	</g>
</g>
</svg>
