<?xml version="1.0" encoding="utf-8"?>
<!-- Generator: Adobe Illustrator 21.0.2, SVG Export Plug-In . SVG Version: 6.00 Build 0)  -->
<svg width="16" height="14" version="1.1" id="Layer_1" xmlns="http://www.w3.org/2000/svg" xmlns:xlink="http://www.w3.org/1999/xlink" x="0px" y="0px"
	 viewBox="0 0 16 14" style="enable-background:new 0 0 16 14;" xml:space="preserve">
<style type="text/css">
	.st0{fill:#727272;}
</style>
<title>Asset 9</title>
<g id="Layer_2">
	<g id="Layer_1-2">
		<path class="st0" d="M14.5,0.5h-13c-0.8,0-1.5,0.6-1.5,1.4c0,0,0,0,0,0v10.1c0,0.8,0.7,1.4,1.5,1.4h13c0.8,0,1.4-0.6,1.4-1.4V2
			C16,1.2,15.3,0.5,14.5,0.5z M14.5,12.1h-13V2h13V12.1z"/>
		<path class="st0" d="M10.7,4.7c0.4,0,0.8,0.4,0.8,0.8s-0.4,0.8-0.8,0.8S9.9,5.9,9.9,5.5S10.2,4.7,10.7,4.7L10.7,4.7 M10.7,8.1
			c0.9,0,1.7,0.2,2.4,0.8v0.4H8.3V8.9C8.3,8.7,9.5,8.1,10.7,8.1 M10.7,3.9c-0.9,0-1.6,0.7-1.6,1.5c0,0,0,0,0,0C9,6.4,9.7,7,10.6,7.1
			c0,0,0,0,0.1,0c0.9,0.1,1.6-0.6,1.7-1.4S11.8,4,10.9,3.9C10.8,3.9,10.7,3.9,10.7,3.9L10.7,3.9z M10.7,7.4c-1,0-3.1,0.5-3.1,1.6
			v1.2h6.1V9C13.7,7.9,11.7,7.4,10.7,7.4L10.7,7.4z"/>
		<path class="st0" d="M7.3,5.4V4.7H2.6v0.7H7.3z"/>
		<path class="st0" d="M6.1,6.8V6.1H2.5v0.7H6.1z"/>
	</g>
</g>
</svg>
