<?xml version="1.0" encoding="utf-8"?>
<!-- Generator: Adobe Illustrator 21.0.2, SVG Export Plug-In . SVG Version: 6.00 Build 0)  -->
<svg version="1.1" id="Layer_1" xmlns="http://www.w3.org/2000/svg" xmlns:xlink="http://www.w3.org/1999/xlink" x="0px" y="0px"
	 viewBox="0 0 40 40" style="enable-background:new 0 0 40 40;" xml:space="preserve">
<style type="text/css">
	.st0{fill:none;}
	.st1{fill:#FFFFFF;}
</style>
<path class="st0" d="M5,5h30v30H5V5z"/>
<path class="st1" d="M28.8,10h-5.2C23,8.6,21.6,7.5,20,7.5s-3,1.1-3.5,2.5h-5.2c-1.4,0-2.5,1.1-2.5,2.5V30c0,1.4,1.1,2.5,2.5,2.5
	h17.5c1.4,0,2.5-1.1,2.5-2.5V12.5C31.3,11.1,30.1,10,28.8,10z M20,10c0.7,0,1.3,0.6,1.3,1.3s-0.6,1.3-1.3,1.3s-1.3-0.6-1.3-1.3
	S19.3,10,20,10z M17.5,27.5l-5-5l1.8-1.8l3.2,3.2l8.2-8.2l1.8,1.8L17.5,27.5z"/>
</svg>
