<?xml version="1.0" encoding="utf-8"?>
<!-- Generator: Adobe Illustrator 21.0.2, SVG Export Plug-In . SVG Version: 6.00 Build 0)  -->
<svg width="9" height="16" version="1.1" id="Layer_1" xmlns="http://www.w3.org/2000/svg" xmlns:xlink="http://www.w3.org/1999/xlink" x="0px" y="0px"
	 viewBox="0 0 9 16" style="enable-background:new 0 0 9 16;" xml:space="preserve">
<style type="text/css">
	.st0{fill:#727272;}
</style>
<title>Asset 2</title>
<g id="Layer_2">
	<g id="Layer_1-2">
		<path class="st0" d="M4.8,7C2.8,6.5,2.2,6,2.2,5.1s0.9-1.6,2.4-1.6s2.2,0.8,2.2,1.9h2c0-1.7-1.2-3.1-2.9-3.4V0H3.3v1.9
			C1.5,2.3,0.2,3.4,0.2,5.1c0,2,1.7,3.1,4.2,3.7C6.5,9.3,7,10.1,7,10.9c0,0.6-0.4,1.6-2.4,1.6S2,11.7,2,10.6H0
			c0.1,1.8,1.5,3.2,3.3,3.4V16h2.7V14C7.6,13.7,9,12.7,9,10.9C9,8.4,6.8,7.6,4.8,7z"/>
	</g>
</g>
</svg>
