<?xml version="1.0" encoding="utf-8"?>
<!-- Generator: Adobe Illustrator 21.0.2, SVG Export Plug-In . SVG Version: 6.00 Build 0)  -->
<svg version="1.1" id="Layer_1" xmlns="http://www.w3.org/2000/svg" xmlns:xlink="http://www.w3.org/1999/xlink" x="0px" y="0px"
	 viewBox="0 0 25 27" style="enable-background:new 0 0 25 27;" xml:space="preserve">
<style type="text/css">
	.st0{fill:#727272;}
	.st1{fill:none;stroke:#000000;stroke-width:2;stroke-miterlimit:10;}
</style>
<g>
	<path class="st0" d="M21.9,2.7h-1.4V0h-2.7v2.7H7V0H4.3v2.7H3c-1.5,0-2.7,1.2-2.7,2.7v18.9C0.3,25.8,1.5,27,3,27h18.9
		c1.5,0,2.7-1.2,2.7-2.7V5.4C24.6,3.9,23.3,2.7,21.9,2.7z M21.9,24.3H3V9.4h18.9V24.3z M5.7,12.1h6.7v6.8H5.6L5.7,12.1
		C5.6,12.1,5.7,12.1,5.7,12.1z"/>
</g>
<line class="st1" x1="1.4" y1="5.8" x2="22.4" y2="23.6"/>
<line class="st1" x1="2.1" y1="24.5" x2="21.5" y2="6.1"/>
</svg>
