<?xml version="1.0" encoding="utf-8"?>
<!-- Generator: Adobe Illustrator 21.0.2, SVG Export Plug-In . SVG Version: 6.00 Build 0)  -->
<svg version="1.1" id="Layer_1" xmlns="http://www.w3.org/2000/svg" xmlns:xlink="http://www.w3.org/1999/xlink" x="0px" y="0px"
	 viewBox="0 0 23 31" style="enable-background:new 0 0 23 31;" xml:space="preserve">
<style type="text/css">
	.st0{fill:#FFFFFF;}
</style>
<path class="st0" d="M20.1,10.5h-1.4V7.6c0-3.9-3.2-7.1-7.1-7.1S4.4,3.7,4.4,7.6v2.9H2.9c-1.6,0-2.9,1.3-2.9,2.9v14.3
	c0,1.6,1.3,2.9,2.9,2.9h17.1c1.6,0,2.9-1.3,2.9-2.9V13.4C22.9,11.8,21.6,10.5,20.1,10.5z M11.5,23.4c-1.6,0-2.9-1.3-2.9-2.9
	s1.3-2.9,2.9-2.9s2.9,1.3,2.9,2.9S13.1,23.4,11.5,23.4z M15.9,10.5H7.1V7.6c0-2.4,2-4.4,4.4-4.4s4.4,2,4.4,4.4V10.5z"/>
</svg>
