<?xml version="1.0" encoding="utf-8"?>
<!-- Generator: Adobe Illustrator 21.0.2, SVG Export Plug-In . SVG Version: 6.00 Build 0)  -->
<svg width="13" height="16" version="1.1" id="Layer_1" xmlns="http://www.w3.org/2000/svg" xmlns:xlink="http://www.w3.org/1999/xlink" x="0px" y="0px"
	 viewBox="0 0 12.1 16" style="enable-background:new 0 0 12.1 16;" xml:space="preserve">
<style type="text/css">
	.st0{fill:#727272;}
</style>
<title>Asset 1</title>
<g id="Layer_2">
	<g id="Layer_1-2">
		<path class="st0" d="M10.6,5.3H9.9V3.8C9.9,1.7,8.2,0,6.1,0S2.3,1.7,2.3,3.8v1.5H1.5C0.7,5.3,0,6,0,6.9v7.6C0,15.3,0.7,16,1.5,16
			c0,0,0,0,0,0h9.1c0.8,0,1.5-0.7,1.5-1.5v0V6.9C12.1,6,11.4,5.3,10.6,5.3C10.6,5.3,10.6,5.3,10.6,5.3z M6.1,12.2
			c-0.8,0-1.5-0.7-1.5-1.5c0-0.8,0.7-1.5,1.5-1.5s1.5,0.7,1.5,1.5c0,0,0,0,0,0C7.6,11.5,6.9,12.2,6.1,12.2z M8.4,5.3H3.7V3.8
			c0-1.3,1.1-2.3,2.4-2.3c1.3,0,2.3,1.1,2.3,2.3V5.3z"/>
	</g>
</g>
</svg>
