<?xml version="1.0" encoding="utf-8"?>
<!-- Generator: Adobe Illustrator 21.0.2, SVG Export Plug-In . SVG Version: 6.00 Build 0)  -->
<svg height="16" width="16" version="1.1" id="Layer_1" xmlns="http://www.w3.org/2000/svg" xmlns:xlink="http://www.w3.org/1999/xlink" x="0px" y="0px"
	 viewBox="0 0 16 16" style="enable-background:new 0 0 16 16;" xml:space="preserve">
<style type="text/css">
	.st0{fill:#727272;}
</style>
<title>Asset 10</title>
<g id="Layer_2">
	<g id="Layer_1-2">
		<path class="st0" d="M3.2,6.9c1.3,2.5,3.3,4.5,5.8,5.8l2-1.9c0.2-0.2,0.6-0.3,0.9-0.2c1,0.3,2.1,0.5,3.2,0.5
			c0.5,0,0.9,0.4,0.9,0.9v3.1c0,0.5-0.4,0.9-0.9,0.9C6.8,16,0.1,9.3,0,1c0,0,0,0,0-0.1c0-0.5,0.4-0.9,0.9-0.9H4
			c0.5,0,0.9,0.4,0.9,0.9c0,1.1,0.2,2.1,0.5,3.1c0.1,0.3,0,0.7-0.2,0.9L3.2,6.9z"/>
	</g>
</g>
</svg>
