<?xml version="1.0" encoding="utf-8"?>
<!-- Generator: Adobe Illustrator 21.0.2, SVG Export Plug-In . SVG Version: 6.00 Build 0)  -->
<svg version="1.1" id="Layer_1" xmlns="http://www.w3.org/2000/svg" xmlns:xlink="http://www.w3.org/1999/xlink" x="0px" y="0px"
	 viewBox="0 0 30 30" style="enable-background:new 0 0 30 30;" xml:space="preserve">
<style type="text/css">
	.st0{fill:#FFFFFF;}
</style>
<path class="st0" d="M25.5,3h-6.3C18.6,1.3,17,0,15,0s-3.6,1.3-4.2,3H4.5c-1.6,0-3,1.4-3,3v21c0,1.7,1.4,3,3,3h21c1.6,0,3-1.3,3-3V6
	C28.5,4.4,27.1,3,25.5,3z M15,3c0.8,0,1.5,0.7,1.5,1.5S15.8,6,15,6s-1.5-0.7-1.5-1.5S14.2,3,15,3z M12,24l-6-6l2.1-2.1l3.9,3.9
	l9.9-9.9L24,12L12,24z"/>
</svg>
