<?xml version="1.0" encoding="utf-8"?>
<!-- Generator: Adobe Illustrator 21.0.2, SVG Export Plug-In . SVG Version: 6.00 Build 0)  -->
<svg width="54" height="54" version="1.1" id="Layer_1" xmlns="http://www.w3.org/2000/svg" xmlns:xlink="http://www.w3.org/1999/xlink" x="0px" y="0px"
	 viewBox="0 0 54 54" style="enable-background:new 0 0 54 54;" xml:space="preserve">
<style type="text/css">
	.st0{fill:#FFFFFF;}
</style>
<path class="st0" d="M5.4,10.7H0v37.8c0,3,2.4,5.4,5.4,5.4h37.8v-5.4H5.4V10.7z M48.6-0.1H16.2c-3,0-5.4,2.4-5.4,5.4v32.4
	c0,3,2.4,5.4,5.4,5.4h32.4c3,0,5.4-2.4,5.4-5.4V5.3C54,2.4,51.6-0.1,48.6-0.1z M45.9,24.2h-27v-5.4h27V24.2z M35.1,35H18.9v-5.4
	h16.2V35z M45.9,13.4h-27V8h27V13.4z"/>
</svg>
