<?xml version="1.0" encoding="utf-8"?>
<!-- Generator: Adobe Illustrator 21.0.2, SVG Export Plug-In . SVG Version: 6.00 Build 0)  -->
<svg version="1.1" id="Layer_1" xmlns="http://www.w3.org/2000/svg" xmlns:xlink="http://www.w3.org/1999/xlink" x="0px" y="0px"
	 viewBox="0 0 54 54" style="enable-background:new 0 0 54 54;" xml:space="preserve">
<style type="text/css">
	.st0{fill:#FFFFFF;}
	.st1{fill:none;}
</style>
<g>
	<path class="st0" d="M27,4.5C14.6,4.5,4.5,14.6,4.5,27S14.6,49.5,27,49.5c12.4,0,22.5-10.1,22.5-22.5S39.4,4.5,27,4.5z M27,45
		c-9.9,0-18-8.1-18-18S17.1,9,27,9s18,8.1,18,18S36.9,45,27,45z"/>
	<path class="st1" d="M0,0h54v54H0V0z"/>
	<path class="st0" d="M28.1,15.8h-3.4v13.5l11.8,7.1l1.7-2.8l-10.1-6V15.8z"/>
</g>
</svg>
