<?xml version="1.0" encoding="utf-8"?>
<!-- Generator: Adobe Illustrator 21.0.2, SVG Export Plug-In . SVG Version: 6.00 Build 0)  -->
<svg height="54" width="84" version="1.1" id="Layer_1" xmlns="http://www.w3.org/2000/svg" xmlns:xlink="http://www.w3.org/1999/xlink" x="0px" y="0px"
	 viewBox="0 0 84 54" style="enable-background:new 0 0 84 54;" xml:space="preserve">
<style type="text/css">
	.st0{fill:#FFFFFF;}
</style>
<g>
	<path class="st0" d="M57.3,22.9c6.3,0,11.4-5.1,11.4-11.5S63.6,0,57.3,0S45.8,5.1,45.8,11.5S50.9,22.9,57.3,22.9z M26.7,22.9
		c6.3,0,11.4-5.1,11.4-11.5S33.1,0,26.7,0S15.3,5.1,15.3,11.5S20.4,22.9,26.7,22.9z M26.7,30.5C17.8,30.5,0,35,0,43.9v9.5h53.5v-9.5
		C53.5,35,35.6,30.5,26.7,30.5z M57.3,30.5c-1.1,0-2.4,0.1-3.7,0.2c4.4,3.2,7.5,7.5,7.5,13.2v9.5H84v-9.5C84,35,66.2,30.5,57.3,30.5
		z"/>
</g>
</svg>
