<?xml version="1.0" encoding="UTF-8"?>
<svg width="33px" height="33px" viewBox="0 0 33 33" version="1.1" xmlns="http://www.w3.org/2000/svg" xmlns:xlink="http://www.w3.org/1999/xlink">
    <!-- Generator: sketchtool 50.2 (55047) - http://www.bohemiancoding.com/sketch -->
    <title>FC685727-F747-4893-AD05-571AADDEB83B</title>
    <desc>Created with sketchtool.</desc>
    <defs>
        <linearGradient x1="-9.61837369%" y1="0%" x2="111.798881%" y2="213.572804%" id="linearGradient-1">
            <stop stop-color="#9241E6" offset="0%"></stop>
            <stop stop-color="#AD72ED" offset="100%"></stop>
        </linearGradient>
    </defs>
    <g id="Page-1" stroke="none" stroke-width="1" fill="none" fill-rule="evenodd">
        <g id="Home-01" transform="translate(-289.000000, -1093.000000)" fill="url(#linearGradient-1)" fill-rule="nonzero">
            <g id="icon-4" transform="translate(289.000000, 1093.000000)">
                <path d="M6.35303381,2.81241211 C6.58374151,3.08292187 6.55100465,3.48904102 6.27994085,3.71926758 L6.25714773,3.73879687 C6.13536919,3.84391992 5.98530909,3.89541797 5.83602384,3.89541797 C5.65522855,3.89541797 5.47553094,3.81994336 5.34807026,3.67273242 C5.11523175,3.40389844 5.14486926,2.99758594 5.41418968,2.76529687 L5.44447289,2.73945117 C5.71560126,2.50916016 6.12245524,2.54183789 6.35303381,2.81241211 Z M11.3436296,28.1792285 C11.699538,28.1792285 11.9881648,28.467334 11.9880357,28.8225996 L11.9880357,32.296752 C11.9880357,32.6520176 11.6994089,32.940123 11.3435004,32.940123 C10.987592,32.940123 10.6989652,32.6520176 10.6989652,32.296752 L10.6989652,29.4626191 C8.81107495,29.4068672 7.04037877,28.6512187 5.69132303,27.320584 L5.65994214,27.2893887 C5.45932393,27.0890684 5.26806834,26.875084 5.09166379,26.6534297 C5.00901451,26.5494023 4.92849604,26.4425391 4.85236831,26.3355469 C3.95426769,25.0741992 3.47948634,23.5869434 3.47948634,22.0346543 L3.47948634,21.745582 L0.644551579,21.745582 C0.451036046,21.745582 0.267787103,21.6588281 0.145362862,21.5092324 C0.0230031911,21.3596367 -0.0256823984,21.1630547 0.0129948802,20.9738203 L1.41796801,14.0890664 L1.41796801,11.4517734 C1.41796801,9.03935742 2.16077839,6.73167773 3.56613894,4.77842578 C3.77373068,4.48986914 4.17645219,4.42393359 4.46559552,4.63115039 C4.75473885,4.83843164 4.8207937,5.24042578 4.61313739,5.52904687 C3.36616643,7.26219141 2.70703845,9.31025391 2.70703845,11.4517734 L2.70703845,14.1539062 C2.70703845,14.1969609 2.70271228,14.2400156 2.69405993,14.2822969 L1.43359389,20.4588398 L4.12408613,20.4588398 C4.47999457,20.4588398 4.76862134,20.7469453 4.76862134,21.1022109 L4.76862134,22.0345898 C4.76862134,23.3182383 5.16094713,24.5477461 5.90324094,25.5901465 C5.96619645,25.6787051 6.03276786,25.7671348 6.10121179,25.8532441 C6.24713942,26.0365488 6.40546444,26.2137305 6.5716024,26.3795039 L6.59878626,26.4065098 C7.75716753,27.5492637 9.29373381,28.1792285 10.9242491,28.1792285 L11.3436296,28.1792285 Z M19.7728227,12.1762266 C19.8925996,12.295916 19.9609789,12.4612383 19.9610435,12.6310723 C19.9610435,12.8002617 19.8926641,12.9662285 19.7728227,13.085918 C19.6523355,13.2056074 19.4866496,13.2744434 19.317154,13.2744434 C19.1470127,13.2744434 18.9813913,13.2056074 18.8614853,13.085918 C18.7409335,12.966293 18.6726188,12.8002617 18.6726188,12.6310723 C18.6726188,12.4612383 18.7409335,12.2952715 18.8614853,12.1762266 C18.9813267,12.0558926 19.1469481,11.9877012 19.317154,11.9877012 C19.4866496,11.9877012 19.652271,12.0558926 19.7728227,12.1762266 Z M23.0585188,25.6656211 C23.1784894,25.7853105 23.2473854,25.9512773 23.2473854,26.1204668 C23.2473854,26.2896562 23.1784249,26.455623 23.0585188,26.575248 C22.9386774,26.695002 22.7723457,26.7638379 22.6028501,26.7638379 C22.4333546,26.7638379 22.2670875,26.6949375 22.147246,26.575248 C22.02734,26.4556875 21.9583149,26.2896562 21.9583149,26.1204668 C21.9583149,25.9512773 22.02734,25.7853105 22.147246,25.6656211 C22.2670229,25.5458672 22.4333546,25.4770957 22.6028501,25.4770957 C22.7723457,25.4770957 22.9385483,25.5459316 23.0585188,25.6656211 Z M22.6029793,13.3818867 C22.9588877,13.3818867 23.2475145,13.6699277 23.2475145,14.0252578 L23.2475145,23.868668 C23.2475145,24.2239336 22.9588877,24.5120391 22.6029793,24.5120391 C22.2470708,24.5120391 21.9584441,24.2239336 21.9584441,23.868668 L21.9584441,14.0252578 C21.9584441,13.6699277 22.2470708,13.3818867 22.6029793,13.3818867 Z M22.6029793,28.110457 C23.9535201,28.110457 25.0521744,29.2071914 25.0521744,30.5552285 C25.0521744,31.9032656 23.9534555,33 22.6029793,33 C21.252503,33 20.1537842,31.9032656 20.1537842,30.5552285 C20.1537842,29.2071914 21.252503,28.110457 22.6029793,28.110457 Z M22.6029793,31.7132578 C23.2426718,31.7132578 23.7631039,31.1937656 23.7631039,30.5552285 C23.7631039,29.9166914 23.2426718,29.3971992 22.6029793,29.3971992 C21.9632868,29.3971992 21.4428546,29.9166914 21.4428546,30.5552285 C21.4428546,31.1937656 21.9632868,31.7132578 22.6029793,31.7132578 Z M29.325594,24.3090762 C30.1647424,23.4715723 31.5302634,23.4714434 32.3694118,24.3089473 C33.2086249,25.1466445 33.2086249,26.5096348 32.3694118,27.347332 C31.9499022,27.7661484 31.3986703,27.9755566 30.8475675,27.9755566 C30.2964647,27.9755566 29.7452327,27.7661484 29.3256585,27.347332 C28.8714104,26.8938398 28.6635603,26.2864336 28.7011399,25.6917246 L25.4061457,24.0292207 C25.1891268,23.9197148 25.0523681,23.6976738 25.0523681,23.4550078 L25.0523681,15.2476113 C25.0523681,14.8922812 25.3409948,14.6042402 25.6969033,14.6042402 C26.0528117,14.6042402 26.3414385,14.8922812 26.3414385,15.2476113 L26.3414385,15.4836387 L29.268708,15.4836387 C30.6155038,15.4836387 31.7111233,14.3899336 31.7111233,13.0456348 C31.7111233,11.7013359 30.6155038,10.6076309 29.268708,10.6076309 C28.9586441,10.6076309 28.6554891,10.6655098 28.3675726,10.7797207 C28.359114,10.7830723 28.3503325,10.7851992 28.3417447,10.7881641 C28.3365791,10.7904844 28.331801,10.7932559 28.3265063,10.7954473 C28.0330368,10.9177148 27.7689465,11.0947676 27.541661,11.321707 C27.2798306,11.5828711 27.0856694,11.8904414 26.9642137,12.2357812 C26.8711041,12.5005547 26.6220586,12.6662637 26.3560313,12.6662637 C26.2851983,12.6662637 26.213203,12.6544687 26.1425637,12.6297832 C25.8066719,12.5120273 25.6299445,12.1449023 25.7478488,11.8096172 C25.9337451,11.2807793 26.2305723,10.8104004 26.6300653,10.4116934 C26.8823393,10.1598105 27.1651548,9.9485332 27.4734753,9.77973047 C27.2958439,6.98259375 24.9608082,4.76083008 22.1145091,4.76083008 C19.3721674,4.76083008 17.1346965,6.76164844 16.7901523,9.41144531 C17.3162666,9.52920117 17.8104835,9.75942773 18.2415511,10.0902012 C18.5237209,10.3067637 18.5766035,10.7107559 18.3596492,10.992416 C18.2326405,11.1571582 18.041514,11.2436543 17.8481922,11.2436543 C17.7110461,11.2436543 17.5728668,11.2001484 17.4557373,11.1103008 C17.0808453,10.822582 16.6323439,10.6512656 16.1585956,10.6148496 C16.145488,10.6138184 16.1328323,10.611627 16.1199829,10.6098867 C16.104809,10.6103379 16.0896352,10.6109824 16.0743321,10.6103379 C16.039529,10.6089199 16.0047905,10.6075664 15.9696646,10.6075664 C14.6228688,10.6075664 13.5272493,11.701207 13.5272493,13.0455703 C13.5272493,14.3898691 14.6228688,15.4835742 15.9696646,15.4835742 L19.5102175,15.4835742 C19.866126,15.4835742 20.1547527,15.7716152 20.1547527,16.1269453 L20.1547527,23.4552012 C20.1547527,23.6979316 20.017994,23.9199082 19.8009751,24.0294141 L16.5059809,25.691918 C16.5435605,26.2866914 16.335775,26.8940977 15.8814623,27.3475898 C15.4618881,27.7664062 14.9107207,27.9758145 14.3595533,27.9758145 C13.8084505,27.9758145 13.2572832,27.7664062 12.8376444,27.3475898 C11.9984314,26.5098926 11.9984314,25.1469023 12.8376444,24.3092051 C13.676922,23.4715723 15.0423138,23.4715723 15.8815269,24.3092051 C15.93809,24.365666 15.990456,24.4247051 16.0394645,24.4856133 L18.8658114,23.0595234 L18.8658114,16.7703809 L15.9697937,16.7703809 C13.9122787,16.7703809 12.238308,15.0994336 12.238308,13.0456348 C12.238308,11.1509707 13.6627812,9.58218164 15.4987574,9.3504082 C15.6732249,7.83891797 16.3577933,6.44150977 17.4618714,5.36540039 C18.1195143,4.72428516 18.8881526,4.23489258 19.7233623,3.91456055 C17.8487733,2.21525391 15.4487158,1.28674219 12.890527,1.28674219 C11.2888744,1.28674219 9.75631148,1.64709961 8.33532505,2.35775977 C8.01712533,2.51683008 7.62977142,2.38843945 7.47034871,2.07075 C7.31092601,1.75306055 7.43961351,1.36653516 7.7578778,1.20733594 C9.35972409,0.406183594 11.0865774,0 12.8904624,0 C16.039077,0 18.9755154,1.24768359 21.1589414,3.51308203 C21.1669481,3.52133203 21.1739862,3.53029102 21.1814763,3.53892773 C21.4881826,3.49619531 21.7997316,3.47408789 22.1144446,3.47408789 C25.5284408,3.47408789 28.3507199,6.05156836 28.7310357,9.35936719 C28.9081505,9.33371484 29.0875899,9.32075977 29.2685143,9.32075977 C31.3260293,9.32075977 33,10.991707 33,13.0455059 C33,15.0993047 31.3260293,16.770252 29.2685143,16.770252 L26.3412448,16.770252 L26.3412448,23.0593945 L29.1675918,24.4854844 C29.2166002,24.4245762 29.2690309,24.3655371 29.325594,24.3090762 Z M14.9698666,26.4375762 C15.3064041,26.1016465 15.3064041,25.5548906 14.9699312,25.2189609 C14.8015333,25.0509961 14.5805756,24.9669492 14.3594888,24.9669492 C14.138402,24.9669492 13.9173151,25.0509961 13.7490464,25.2189609 C13.4123797,25.5548906 13.4123797,26.101582 13.7490464,26.4375762 C14.0856485,26.7736348 14.6331999,26.7736348 14.9698666,26.4375762 Z M31.4578807,26.4375762 C31.7944828,26.1016465 31.7944828,25.5548906 31.4579453,25.2189609 C31.2896765,25.0509961 31.0686543,24.9669492 30.8475675,24.9669492 C30.6264161,24.9669492 30.4053293,25.0509961 30.2371251,25.2189609 C29.9004584,25.5548906 29.9004584,26.101582 30.2371251,26.4375762 C30.5735335,26.7736348 31.1212786,26.7737637 31.4578807,26.4375762 Z" id="cloud-computing-3"></path>
            </g>
        </g>
    </g>
</svg>