<?xml version="1.0" encoding="UTF-8"?>
<svg width="112px" height="13px" viewBox="0 0 112 13" version="1.1" xmlns="http://www.w3.org/2000/svg" xmlns:xlink="http://www.w3.org/1999/xlink">
    <!-- Generator: sketchtool 50.2 (55047) - http://www.bohemiancoding.com/sketch -->
    <title>53FB6B36-443E-47AD-A32F-BD03BC0A034C</title>
    <desc>Created with sketchtool.</desc>
    <defs></defs>
    <g id="Page-1" stroke="none" stroke-width="1" fill="none" fill-rule="evenodd">
        <g id="Home-01" transform="translate(-148.000000, -35.000000)" fill="#FFFFFF">
            <path d="M154.704,47.256 C153.519994,47.256 152.453338,47.0080025 151.504,46.512 C150.554662,46.0159975 149.810669,45.3226711 149.272,44.432 C148.733331,43.5413289 148.464,42.5306723 148.464,41.4 C148.464,40.2693277 148.733331,39.2586711 149.272,38.368 C149.810669,37.4773289 150.554662,36.7840025 151.504,36.288 C152.453338,35.7919975 153.519994,35.544 154.704,35.544 C155.792005,35.544 156.762662,35.7359981 157.616,36.12 C158.469338,36.5040019 159.173331,37.058663 159.728,37.784 L157.344,39.912 C156.650663,39.037329 155.834671,38.6 154.896,38.6 C154.106663,38.6 153.472002,38.8533308 152.992,39.36 C152.511998,39.8666692 152.272,40.5466624 152.272,41.4 C152.272,42.2533376 152.511998,42.9333308 152.992,43.44 C153.472002,43.9466692 154.106663,44.2 154.896,44.2 C155.834671,44.2 156.650663,43.762671 157.344,42.888 L159.728,45.016 C159.173331,45.741337 158.469338,46.2959981 157.616,46.68 C156.762662,47.0640019 155.792005,47.256 154.704,47.256 Z M166.448,47.256 C165.242661,47.256 164.160005,47.0053358 163.2,46.504 C162.239995,46.0026642 161.488003,45.3066711 160.944,44.416 C160.399997,43.5253289 160.128,42.5200056 160.128,41.4 C160.128,40.2799944 160.399997,39.2746711 160.944,38.384 C161.488003,37.4933289 162.239995,36.7973358 163.2,36.296 C164.160005,35.7946642 165.242661,35.544 166.448,35.544 C167.653339,35.544 168.735995,35.7946642 169.696,36.296 C170.656005,36.7973358 171.407997,37.4933289 171.952,38.384 C172.496003,39.2746711 172.768,40.2799944 172.768,41.4 C172.768,42.5200056 172.496003,43.5253289 171.952,44.416 C171.407997,45.3066711 170.656005,46.0026642 169.696,46.504 C168.735995,47.0053358 167.653339,47.256 166.448,47.256 Z M166.448,44.2 C166.917336,44.2 167.341331,44.0853345 167.72,43.856 C168.098669,43.6266655 168.399999,43.3013354 168.624,42.88 C168.848001,42.4586646 168.96,41.9653362 168.96,41.4 C168.96,40.8346638 168.848001,40.3413354 168.624,39.92 C168.399999,39.4986646 168.098669,39.1733345 167.72,38.944 C167.341331,38.7146655 166.917336,38.6 166.448,38.6 C165.978664,38.6 165.554669,38.7146655 165.176,38.944 C164.797331,39.1733345 164.496001,39.4986646 164.272,39.92 C164.047999,40.3413354 163.936,40.8346638 163.936,41.4 C163.936,41.9653362 164.047999,42.4586646 164.272,42.88 C164.496001,43.3013354 164.797331,43.6266655 165.176,43.856 C165.554669,44.0853345 165.978664,44.2 166.448,44.2 Z M179.504,47.256 C177.786658,47.256 176.448005,46.7920046 175.488,45.864 C174.527995,44.9359954 174.048,43.634675 174.048,41.96 L174.048,35.8 L177.824,35.8 L177.824,41.848 C177.824,42.6693374 177.970665,43.2666648 178.264,43.64 C178.557335,44.0133352 178.981331,44.2 179.536,44.2 C180.090669,44.2 180.514665,44.0133352 180.808,43.64 C181.101335,43.2666648 181.248,42.6693374 181.248,41.848 L181.248,35.8 L184.96,35.8 L184.96,41.96 C184.96,43.634675 184.480005,44.9359954 183.52,45.864 C182.559995,46.7920046 181.221342,47.256 179.504,47.256 Z M191.488,44.184 L190.464,44.184 L190.464,47 L186.688,47 L186.688,35.8 L192.08,35.8 C193.114672,35.8 194.015996,35.970665 194.784,36.312 C195.552004,36.653335 196.143998,37.1439968 196.56,37.784 C196.976002,38.4240032 197.184,39.1706624 197.184,40.024 C197.184,40.824004 197.002668,41.5226637 196.64,42.12 C196.277332,42.7173363 195.75467,43.1919982 195.072,43.544 L197.424,47 L193.392,47 L191.488,44.184 Z M193.376,40.024 C193.376,39.6079979 193.248001,39.2853345 192.992,39.056 C192.735999,38.8266655 192.352003,38.712 191.84,38.712 L190.464,38.712 L190.464,41.336 L191.84,41.336 C192.352003,41.336 192.735999,41.2213345 192.992,40.992 C193.248001,40.7626655 193.376,40.4400021 193.376,40.024 Z M202.784,47.256 C201.855995,47.256 200.952004,47.152001 200.072,46.944 C199.191996,46.735999 198.469336,46.4560018 197.904,46.104 L199.12,43.352 C199.653336,43.6613349 200.250663,43.9093324 200.912,44.096 C201.573337,44.2826676 202.207997,44.376 202.816,44.376 C203.338669,44.376 203.711999,44.3253338 203.936,44.224 C204.160001,44.1226662 204.272,43.9706677 204.272,43.768 C204.272,43.5333322 204.125335,43.3573339 203.832,43.24 C203.538665,43.1226661 203.056003,42.9946674 202.384,42.856 C201.519996,42.6746658 200.800003,42.480001 200.224,42.272 C199.647997,42.063999 199.146669,41.722669 198.72,41.248 C198.293331,40.773331 198.08,40.1306707 198.08,39.32 C198.08,38.6159965 198.277331,37.9760029 198.672,37.4 C199.066669,36.8239971 199.655996,36.3706683 200.44,36.04 C201.224004,35.7093317 202.175994,35.544 203.296,35.544 C204.064004,35.544 204.818663,35.6266658 205.56,35.792 C206.301337,35.9573342 206.954664,36.1999984 207.52,36.52 L206.384,39.256 C205.285328,38.7013306 204.245338,38.424 203.264,38.424 C202.293328,38.424 201.808,38.6586643 201.808,39.128 C201.808,39.3520011 201.951999,39.5199994 202.24,39.632 C202.528001,39.7440006 203.002663,39.8639994 203.664,39.992 C204.517338,40.1520008 205.23733,40.335999 205.824,40.544 C206.41067,40.752001 206.919998,41.0906643 207.352,41.56 C207.784002,42.0293357 208,42.6693293 208,43.48 C208,44.1840035 207.802669,44.8213305 207.408,45.392 C207.013331,45.9626695 206.424004,46.4159983 205.64,46.752 C204.855996,47.0880017 203.904006,47.256 202.784,47.256 Z M218.432,44.152 L218.432,47 L209.12,47 L209.12,35.8 L218.224,35.8 L218.224,38.648 L212.832,38.648 L212.832,39.96 L217.568,39.96 L217.568,42.68 L212.832,42.68 L212.832,44.152 L218.432,44.152 Z M220.928,35.8 L221.744,35.8 L221.744,47 L220.928,47 L220.928,35.8 Z M234.768,35.8 L234.768,47 L234.096,47 L226.464,37.272 L226.464,47 L225.648,47 L225.648,35.8 L226.336,35.8 L233.952,45.528 L233.952,35.8 L234.768,35.8 Z M239.488,36.536 L239.488,41.32 L245.456,41.32 L245.456,42.056 L239.488,42.056 L239.488,47 L238.672,47 L238.672,35.8 L246.16,35.8 L246.16,36.536 L239.488,36.536 Z M253.376,47.08 C252.277328,47.08 251.285338,46.8320025 250.4,46.336 C249.514662,45.8399975 248.818669,45.1600043 248.312,44.296 C247.805331,43.4319957 247.552,42.466672 247.552,41.4 C247.552,40.333328 247.805331,39.3680043 248.312,38.504 C248.818669,37.6399957 249.514662,36.9600025 250.4,36.464 C251.285338,35.9679975 252.277328,35.72 253.376,35.72 C254.474672,35.72 255.466662,35.9653309 256.352,36.456 C257.237338,36.9466691 257.933331,37.6239957 258.44,38.488 C258.946669,39.3520043 259.2,40.3226613 259.2,41.4 C259.2,42.4773387 258.946669,43.4479957 258.44,44.312 C257.933331,45.1760043 257.237338,45.8533309 256.352,46.344 C255.466662,46.8346691 254.474672,47.08 253.376,47.08 Z M253.376,46.328 C254.314671,46.328 255.162663,46.1146688 255.92,45.688 C256.677337,45.2613312 257.274664,44.6720038 257.712,43.92 C258.149336,43.1679962 258.368,42.3280046 258.368,41.4 C258.368,40.4719954 258.149336,39.6320038 257.712,38.88 C257.274664,38.1279962 256.677337,37.5386688 255.92,37.112 C255.162663,36.6853312 254.314671,36.472 253.376,36.472 C252.437329,36.472 251.58667,36.6853312 250.824,37.112 C250.06133,37.5386688 249.461336,38.1279962 249.024,38.88 C248.586664,39.6320038 248.368,40.4719954 248.368,41.4 C248.368,42.3280046 248.586664,43.1679962 249.024,43.92 C249.461336,44.6720038 250.06133,45.2613312 250.824,45.688 C251.58667,46.1146688 252.437329,46.328 253.376,46.328 Z" id="COURSEINFO"></path>
        </g>
    </g>
</svg>