<?xml version="1.0" encoding="UTF-8"?>
<svg width="34px" height="34px" viewBox="0 0 34 34" version="1.1" xmlns="http://www.w3.org/2000/svg" xmlns:xlink="http://www.w3.org/1999/xlink">
    <!-- Generator: sketchtool 50.2 (55047) - http://www.bohemiancoding.com/sketch -->
    <title>2C6D1C6E-F517-407F-A061-D9034D4F110C</title>
    <desc>Created with sketchtool.</desc>
    <defs>
        <linearGradient x1="-9.61837369%" y1="0%" x2="111.798881%" y2="213.572804%" id="linearGradient-1">
            <stop stop-color="#9241E6" offset="0%"></stop>
            <stop stop-color="#AD72ED" offset="100%"></stop>
        </linearGradient>
    </defs>
    <g id="Page-1" stroke="none" stroke-width="1" fill="none" fill-rule="evenodd">
        <g id="Home-01" transform="translate(-680.000000, -1093.000000)" fill="url(#linearGradient-1)" fill-rule="nonzero">
            <g id="icon-5" transform="translate(680.000000, 1093.000000)">
                <path d="M19.390625,13.9453125 L14.609375,13.9453125 C14.2426133,13.9453125 13.9453125,14.2426797 13.9453125,14.609375 L13.9453125,19.390625 C13.9453125,19.7573203 14.2426133,20.0546875 14.609375,20.0546875 L19.390625,20.0546875 C19.7573867,20.0546875 20.0546875,19.7573203 20.0546875,19.390625 L20.0546875,14.609375 C20.0546875,14.2426797 19.7573867,13.9453125 19.390625,13.9453125 Z M31.7421875,3.5859375 C32.9871719,3.5859375 34,4.59876563 34,5.84375 C34,7.08873438 32.9871719,8.1015625 31.7421875,8.1015625 C30.4972031,8.1015625 29.484375,7.08873438 29.484375,5.84375 C29.484375,4.59876563 30.4972031,3.5859375 31.7421875,3.5859375 Z M31.7421875,6.7734375 C32.2548438,6.7734375 32.671875,6.35640625 32.671875,5.84375 C32.671875,5.33109375 32.2548438,4.9140625 31.7421875,4.9140625 C31.2295313,4.9140625 30.8125,5.33109375 30.8125,5.84375 C30.8125,6.35640625 31.2295313,6.7734375 31.7421875,6.7734375 Z M28.3282422,5.37226562 C28.4517578,5.49578125 28.5228125,5.66710937 28.5228125,5.84175781 C28.5228125,6.01640625 28.4517578,6.18773437 28.3282422,6.31125 C28.2047266,6.43476562 28.0333984,6.50582031 27.85875,6.50582031 C27.6834375,6.50582031 27.5127734,6.43469922 27.3885938,6.31125 C27.2650781,6.18773437 27.1946875,6.01640625 27.1946875,5.84175781 C27.1946875,5.66710937 27.2650781,5.49578125 27.3885938,5.37226562 C27.5121094,5.24875 27.6834375,5.17769531 27.85875,5.17769531 C28.0333984,5.17769531 28.2047266,5.24881641 28.3282422,5.37226562 Z M27.5940547,17.6640625 L23.5078125,17.6640625 L23.5078125,20.453125 L28.1583086,20.453125 C28.5250703,20.453125 28.8223711,20.7504922 28.8223711,21.1171875 L28.8223711,29.5847812 C29.7431602,29.8696641 30.4140625,30.7289609 30.4140625,31.7421875 C30.4140625,32.9871719 29.4012344,34 28.15625,34 C26.9112656,34 25.8984375,32.9871719 25.8984375,31.7421875 C25.8984375,30.7275 26.571332,29.867207 27.4942461,29.5835859 L27.4942461,21.78125 L23.5078125,21.78125 L23.5078125,22.84375 C23.5078125,23.2104453 23.2105117,23.5078125 22.84375,23.5078125 L17.6640625,23.5078125 L17.6640625,27.5939883 C18.5859141,27.878207 19.2578125,28.7380352 19.2578125,29.7519922 C19.2578125,30.9969766 18.2449844,32.0098047 17,32.0098047 C15.7550156,32.0098047 14.7421875,30.9969766 14.7421875,29.7519922 C14.7421875,28.7380352 15.4140859,27.8782734 16.3359375,27.5939883 L16.3359375,23.5078125 L13.546875,23.5078125 L13.546875,28.1582422 C13.546875,28.5249375 13.2495742,28.8223047 12.8828125,28.8223047 L8.49853906,28.8223047 C8.13177734,28.8223047 7.83447656,28.5249375 7.83447656,28.1582422 C7.83447656,27.7915469 8.13177734,27.4941797 8.49853906,27.4941797 L12.21875,27.4941797 L12.21875,23.5078125 L11.15625,23.5078125 C10.7894883,23.5078125 10.4921875,23.2104453 10.4921875,22.84375 L10.4921875,17.6640625 L6.40594531,17.6640625 C6.12172656,18.5859805 5.26189844,19.2578125 4.24794141,19.2578125 C3.00295703,19.2578125 1.99012891,18.2449844 1.99012891,17 C1.99012891,15.7550156 3.00295703,14.7421875 4.24794141,14.7421875 C5.26183203,14.7421875 6.12166016,15.4140195 6.40594531,16.3359375 L10.4921875,16.3359375 L10.4921875,13.546875 L5.84169141,13.546875 C5.47492969,13.546875 5.17762891,13.2495078 5.17762891,12.8828125 L5.17762891,4.41521875 C4.25683984,4.13033594 3.5859375,3.27103906 3.5859375,2.2578125 C3.5859375,1.01282812 4.59876563,0 5.84375,0 C7.08873438,0 8.1015625,1.01282812 8.1015625,2.2578125 C8.1015625,3.2725 7.42866797,4.13279297 6.50575391,4.41641406 L6.50575391,12.21875 L10.4921875,12.21875 L10.4921875,11.15625 C10.4921875,10.7895547 10.7894883,10.4921875 11.15625,10.4921875 L16.3359375,10.4921875 L16.3359375,6.40601172 C15.4140859,6.12179297 14.7421875,5.26196484 14.7421875,4.24800781 C14.7421875,3.00302344 15.7550156,1.99019531 17,1.99019531 C18.2449844,1.99019531 19.2578125,3.00302344 19.2578125,4.24800781 C19.2578125,5.26196484 18.5859141,6.12172656 17.6640625,6.40601172 L17.6640625,10.4921875 L20.453125,10.4921875 L20.453125,5.84175781 C20.453125,5.4750625 20.7504258,5.17769531 21.1171875,5.17769531 L25.5014609,5.17769531 C25.8682227,5.17769531 26.1655234,5.4750625 26.1655234,5.84175781 C26.1655234,6.20845312 25.8682227,6.50582031 25.5014609,6.50582031 L21.78125,6.50582031 L21.78125,10.4921875 L22.84375,10.4921875 C23.2105117,10.4921875 23.5078125,10.7895547 23.5078125,11.15625 L23.5078125,16.3359375 L27.5940547,16.3359375 C27.8782734,15.4140195 28.7381016,14.7421875 29.7520586,14.7421875 C30.9969766,14.7421875 32.0098711,15.7550156 32.0098711,17 C32.0098711,18.2449844 30.997043,19.2578125 29.7520586,19.2578125 C28.738168,19.2578125 27.8783398,18.5859805 27.5940547,17.6640625 Z M29.7520586,16.0703125 C29.2394023,16.0703125 28.8223711,16.4873438 28.8223711,17 C28.8223711,17.5126563 29.2394023,17.9296875 29.7520586,17.9296875 C30.2646484,17.9296875 30.6817461,17.5126563 30.6817461,17 C30.6817461,16.4873438 30.2647148,16.0703125 29.7520586,16.0703125 Z M5.84375,3.1875 C6.35640625,3.1875 6.7734375,2.77046875 6.7734375,2.2578125 C6.7734375,1.74515625 6.35640625,1.328125 5.84375,1.328125 C5.33109375,1.328125 4.9140625,1.74515625 4.9140625,2.2578125 C4.9140625,2.77046875 5.33109375,3.1875 5.84375,3.1875 Z M4.24794141,17.9296875 C4.76059766,17.9296875 5.17762891,17.5126563 5.17762891,17 C5.17762891,16.4873438 4.76059766,16.0703125 4.24794141,16.0703125 C3.73528516,16.0703125 3.31825391,16.4873438 3.31825391,17 C3.31825391,17.5126563 3.73528516,17.9296875 4.24794141,17.9296875 Z M16.0703125,4.24800781 C16.0703125,4.76066406 16.4873438,5.17769531 17,5.17769531 C17.5126563,5.17769531 17.9296875,4.76066406 17.9296875,4.24800781 C17.9296875,3.73535156 17.5126563,3.31832031 17,3.31832031 C16.4873438,3.31832031 16.0703125,3.73535156 16.0703125,4.24800781 Z M17.9296875,29.7519922 C17.9296875,29.2393359 17.5126563,28.8223047 17,28.8223047 C16.4873438,28.8223047 16.0703125,29.2393359 16.0703125,29.7519922 C16.0703125,30.2646484 16.4873438,30.6816797 17,30.6816797 C17.5126563,30.6816797 17.9296875,30.2646484 17.9296875,29.7519922 Z M18.7265625,18.7265625 L15.2734375,18.7265625 L15.2734375,15.2734375 L18.7265625,15.2734375 L18.7265625,18.7265625 Z M22.1796875,22.1796875 L22.1796875,11.8203125 L11.8203125,11.8203125 L11.8203125,22.1796875 L22.1796875,22.1796875 Z M28.15625,30.8125 C27.6435938,30.8125 27.2265625,31.2295313 27.2265625,31.7421875 C27.2265625,32.2548438 27.6435938,32.671875 28.15625,32.671875 C28.6689063,32.671875 29.0859375,32.2548438 29.0859375,31.7421875 C29.0859375,31.2295313 28.6689063,30.8125 28.15625,30.8125 Z M2.2578125,25.8984375 C3.50279688,25.8984375 4.515625,26.9112656 4.515625,28.15625 C4.515625,29.4012344 3.50279688,30.4140625 2.2578125,30.4140625 C1.01282813,30.4140625 0,29.4012344 0,28.15625 C0,26.9112656 1.01282813,25.8984375 2.2578125,25.8984375 Z M2.2578125,29.0859375 C2.77046875,29.0859375 3.1875,28.6689063 3.1875,28.15625 C3.1875,27.6435938 2.77046875,27.2265625 2.2578125,27.2265625 C1.74515625,27.2265625 1.328125,27.6435938 1.328125,28.15625 C1.328125,28.6689063 1.74515625,29.0859375 2.2578125,29.0859375 Z M6.61207031,27.68875 C6.73558594,27.8121992 6.80664063,27.9835273 6.80664063,28.1582422 C6.80664063,28.3328906 6.73558594,28.5042187 6.61207031,28.627668 C6.48855469,28.75125 6.31722656,28.8223047 6.14257813,28.8223047 C5.96792969,28.8223047 5.79660156,28.7511836 5.67308594,28.627668 C5.54957031,28.5042187 5.47851563,28.3328906 5.47851563,28.1582422 C5.47851563,27.9835273 5.54957031,27.8121992 5.67308594,27.68875 C5.79660156,27.565168 5.96792969,27.4941797 6.14257813,27.4941797 C6.31722656,27.4941797 6.48855469,27.5652344 6.61207031,27.68875 Z" id="cpu"></path>
            </g>
        </g>
    </g>
</svg>