<?xml version="1.0" encoding="utf-8"?>
<!-- Generator: Adobe Illustrator 22.0.1, SVG Export Plug-In . SVG Version: 6.00 Build 0)  -->
<svg version="1.1" width="158px" height="53px" id="Слой_1" xmlns="http://www.w3.org/2000/svg" xmlns:xlink="http://www.w3.org/1999/xlink" x="0px" y="0px"
	 viewBox="0 0 121.5 11.8" style="enable-background:new 0 0 121.5 11.8;" xml:space="preserve">
<style type="text/css">
	.st0{fill:#FFFFFF;}
</style>
<g id="Trade-Info-logo">
	<path id="Tradeinfo-24" class="st0" d="M3.9,3.4H0.8V0.6h9.8v2.8H7.5v7.9H3.9V3.4z M16.1,8.6h-1v2.7h-3.6V0.6h5.1
		c1,0,1.8,0.2,2.6,0.5s1.3,0.8,1.7,1.4c0.4,0.6,0.6,1.3,0.6,2.1c0,0.8-0.2,1.4-0.5,2c-0.3,0.6-0.8,1-1.5,1.4l2.2,3.3h-3.8L16.1,8.6z
		 M17.9,4.6c0-0.4-0.1-0.7-0.4-0.9c-0.2-0.2-0.6-0.3-1.1-0.3h-1.3v2.5h1.3c0.5,0,0.9-0.1,1.1-0.3C17.7,5.3,17.9,5,17.9,4.6z
		 M30.1,9.4h-4l-0.7,1.9h-3.6l4.7-10.6h3.5l4.7,10.6h-3.7L30.1,9.4z M29.1,6.8l-1-2.7l-1,2.7H29.1z M35.1,0.6h5.2
		c1.2,0,2.2,0.2,3.1,0.6c0.9,0.4,1.6,1,2.1,1.8s0.8,1.7,0.8,2.8s-0.3,2-0.8,2.8c-0.5,0.8-1.2,1.4-2.1,1.8c-0.9,0.4-2,0.6-3.1,0.6
		h-5.2V0.6z M40.2,8.5c0.8,0,1.4-0.2,1.8-0.7c0.5-0.4,0.7-1.1,0.7-1.9c0-0.8-0.2-1.4-0.7-1.9c-0.5-0.4-1.1-0.7-1.8-0.7h-1.5v5H40.2z
		 M56.5,8.6v2.7h-8.8V0.6h8.6v2.7h-5.1v1.2h4.5v2.6h-4.5v1.4H56.5z M58.7,0.6h1.1v10.6h-1.1V0.6z M72.2,0.6v10.6h-0.9l-6.8-8.6v8.6
		h-1.1V0.6h0.9l6.9,8.6V0.6H72.2z M76.8,1.6v4.2h5.5v1h-5.5v4.5h-1.1V0.6H83v1H76.8z M89.8,11.4c-1.1,0-2-0.2-2.9-0.7
		s-1.5-1.1-2-1.9c-0.5-0.8-0.7-1.7-0.7-2.8s0.2-1.9,0.7-2.8c0.5-0.8,1.2-1.5,2-1.9c0.9-0.5,1.8-0.7,2.9-0.7s2,0.2,2.9,0.7
		c0.8,0.5,1.5,1.1,2,1.9c0.5,0.8,0.7,1.8,0.7,2.8s-0.2,1.9-0.7,2.8c-0.5,0.8-1.2,1.5-2,1.9C91.8,11.1,90.9,11.4,89.8,11.4z
		 M89.8,10.3c0.8,0,1.6-0.2,2.3-0.6c0.7-0.4,1.2-0.9,1.6-1.6c0.4-0.7,0.6-1.4,0.6-2.3c0-0.8-0.2-1.6-0.6-2.3
		c-0.4-0.7-0.9-1.2-1.6-1.6c-0.7-0.4-1.4-0.6-2.3-0.6c-0.8,0-1.6,0.2-2.3,0.6c-0.7,0.4-1.2,0.9-1.6,1.6c-0.4,0.7-0.6,1.4-0.6,2.3
		c0,0.8,0.2,1.6,0.6,2.3c0.4,0.7,0.9,1.2,1.6,1.6C88.2,10.2,89,10.3,89.8,10.3z M109.7,8.5v2.8h-8.5V9.1l3.8-3.6
		c0.3-0.3,0.6-0.6,0.7-0.8c0.1-0.2,0.2-0.4,0.2-0.7c0-0.3-0.1-0.5-0.3-0.6c-0.2-0.1-0.4-0.2-0.8-0.2c-0.3,0-0.6,0.1-0.9,0.3
		s-0.5,0.4-0.7,0.7l-2.7-1.4c0.4-0.8,1-1.4,1.8-1.8c0.8-0.4,1.7-0.7,2.8-0.7c0.8,0,1.6,0.1,2.2,0.4s1.2,0.7,1.5,1.2s0.5,1.1,0.5,1.7
		c0,0.6-0.1,1.1-0.4,1.6s-0.7,1.1-1.5,1.7l-1.5,1.4H109.7z M120.8,9.4h-1.4v1.8h-3.5V9.4h-5.5V7.2l4.5-6.5h3.7l-4,6h1.4V5h3.4v1.6
		h1.4V9.4z"/>
</g>
</svg>
