<?xml version="1.0" encoding="UTF-8"?>
<svg width="86px" height="26px" viewBox="0 0 86 26" version="1.1" xmlns="http://www.w3.org/2000/svg" xmlns:xlink="http://www.w3.org/1999/xlink">
    <!-- Generator: Sketch 50.2 (55047) - http://www.bohemiancoding.com/sketch -->
    <title>Group 13</title>
    <desc>Created with Sketch.</desc>
    <defs></defs>
    <g id="Page-1" stroke="none" stroke-width="1" fill="none" fill-rule="evenodd">
        <g id="Home-01" transform="translate(-144.000000, -441.000000)">
            <g id="Group-12" transform="translate(144.000000, 441.000000)">
                <g id="Logo">
                    <g id="Group-13">
                        <path d="M16.2396619,15.0468384 L16.2396619,18.559719 L24,18.559719 L24,25 L16.2396619,25 L7.5490492,25 L7.5490492,6.53571429 L0,6.53571429 L0,0 L23.7887111,0 L23.7887111,6.53571429 L16.2396619,6.53571429 L16.2396619,10.9484778 L20.3779052,10.9484778 L20.3779052,15.0468384 L16.2396619,15.0468384 Z" id="Combined-Shape" fill="#12A6C5"></path>
                        <path d="M33.168,9 C33.0879996,9 33.0220003,8.97400026 32.97,8.922 C32.9179997,8.86999974 32.892,8.8040004 32.892,8.724 L32.892,1.632 L30.576,1.632 C30.4959996,1.632 30.4300003,1.60600026 30.378,1.554 C30.3259997,1.50199974 30.3,1.4360004 30.3,1.356 L30.3,0.888 C30.3,0.79999956 30.3259997,0.73000026 30.378,0.678 C30.4300003,0.62599974 30.4959996,0.6 30.576,0.6 L36.336,0.6 C36.4240004,0.6 36.4919998,0.62599974 36.54,0.678 C36.5880002,0.73000026 36.612,0.79999956 36.612,0.888 L36.612,1.356 C36.612,1.4360004 36.5860003,1.50199974 36.534,1.554 C36.4819997,1.60600026 36.4160004,1.632 36.336,1.632 L34.032,1.632 L34.032,8.724 C34.032,8.8040004 34.0040003,8.86999974 33.948,8.922 C33.8919997,8.97400026 33.8240004,9 33.744,9 L33.168,9 Z M37.104,9 C37.0239996,9 36.9580003,8.97400026 36.906,8.922 C36.8539997,8.86999974 36.828,8.8040004 36.828,8.724 L36.828,3.048 C36.828,2.9679996 36.8539997,2.90000028 36.906,2.844 C36.9580003,2.78799972 37.0239996,2.76 37.104,2.76 L37.608,2.76 C37.6960004,2.76 37.7659997,2.78599974 37.818,2.838 C37.8700003,2.89000026 37.896,2.95999956 37.896,3.048 L37.896,3.576 C38.2240016,3.03199728 38.7799961,2.76 39.564,2.76 L40.032,2.76 C40.1200004,2.76 40.1879998,2.78399976 40.236,2.832 C40.2840002,2.88000024 40.308,2.94799956 40.308,3.036 L40.308,3.48 C40.308,3.5600004 40.2840002,3.62599974 40.236,3.678 C40.1879998,3.73000026 40.1200004,3.756 40.032,3.756 L39.348,3.756 C38.9079978,3.756 38.5620013,3.88399872 38.31,4.14 C38.0579987,4.39600128 37.932,4.7439978 37.932,5.184 L37.932,8.724 C37.932,8.8040004 37.9040003,8.86999974 37.848,8.922 C37.7919997,8.97400026 37.7240004,9 37.644,9 L37.104,9 Z M42.972,9.12 C42.579998,9.12 42.2180017,9.0400008 41.886,8.88 C41.5539983,8.7199992 41.290001,8.50200138 41.094,8.226 C40.897999,7.94999862 40.8,7.64400168 40.8,7.308 C40.8,6.77999736 41.0159978,6.34800168 41.448,6.012 C41.8800022,5.67599832 42.4679963,5.45200056 43.212,5.34 L45.012,5.088 L45.012,4.74 C45.012,3.91599588 44.5360048,3.504 43.584,3.504 C43.2159982,3.504 42.9200011,3.57799926 42.696,3.726 C42.4719989,3.87400074 42.3080005,4.047999 42.204,4.248 C42.1719998,4.3280004 42.1380002,4.38199986 42.102,4.41 C42.0659998,4.43800014 42.0160003,4.452 41.952,4.452 L41.484,4.452 C41.4119996,4.452 41.3500003,4.42600026 41.298,4.374 C41.2459997,4.32199974 41.22,4.26000036 41.22,4.188 C41.22,4.00399908 41.3059991,3.79000122 41.478,3.546 C41.6500009,3.30199878 41.9159982,3.0900009 42.276,2.91 C42.6360018,2.7299991 43.0759974,2.64 43.596,2.64 C44.4920045,2.64 45.1339981,2.84799792 45.522,3.264 C45.9100019,3.68000208 46.104,4.19999688 46.104,4.824 L46.104,8.724 C46.104,8.8040004 46.0780003,8.86999974 46.026,8.922 C45.9739997,8.97400026 45.9080004,9 45.828,9 L45.3,9 C45.2199996,9 45.1560002,8.97400026 45.108,8.922 C45.0599998,8.86999974 45.036,8.8040004 45.036,8.724 L45.036,8.196 C44.8599991,8.46000132 44.6040017,8.67999912 44.268,8.856 C43.9319983,9.03200088 43.5000026,9.12 42.972,9.12 Z M43.212,8.244 C43.7400026,8.244 44.1719983,8.07200172 44.508,7.728 C44.8440017,7.38399828 45.012,6.88400328 45.012,6.228 L45.012,5.892 L43.608,6.096 C43.0319971,6.1760004 42.5960015,6.31199904 42.3,6.504 C42.0039985,6.69600096 41.856,6.93599856 41.856,7.224 C41.856,7.55200164 41.9899987,7.80399912 42.258,7.98 C42.5260013,8.15600088 42.8439982,8.244 43.212,8.244 Z M50.124,9.12 C49.2839958,9.12 48.6540021,8.84800272 48.234,8.304 C47.8139979,7.75999728 47.5880001,7.07200416 47.556,6.24 L47.544,5.88 L47.556,5.52 C47.5880001,4.69599588 47.8159979,4.01000274 48.24,3.462 C48.6640021,2.91399726 49.2919958,2.64 50.124,2.64 C50.9560041,2.64 51.6039977,2.93599704 52.068,3.528 L52.068,0.756 C52.068,0.6759996 52.0939997,0.61000026 52.146,0.558 C52.1980002,0.50599974 52.2639996,0.48 52.344,0.48 L52.884,0.48 C52.9640004,0.48 53.0299997,0.50599974 53.082,0.558 C53.1340002,0.61000026 53.16,0.6759996 53.16,0.756 L53.16,8.724 C53.16,8.8040004 53.1340002,8.86999974 53.082,8.922 C53.0299997,8.97400026 52.9640004,9 52.884,9 L52.368,9 C52.2879996,9 52.2240002,8.97400026 52.176,8.922 C52.1279997,8.86999974 52.104,8.8040004 52.104,8.724 L52.104,8.208 C51.6479977,8.81600304 50.9880043,9.12 50.124,9.12 Z M50.352,8.184 C50.9120028,8.184 51.3319986,7.99800186 51.612,7.626 C51.8920014,7.25399814 52.0439999,6.81200256 52.068,6.3 C52.076,6.21199956 52.08,6.06000108 52.08,5.844 C52.08,5.61999888 52.076,5.46400044 52.068,5.376 C52.0519999,4.88799756 51.8980014,4.46600178 51.606,4.11 C51.3139985,3.75399822 50.8960027,3.576 50.352,3.576 C49.7759971,3.576 49.3560013,3.7559982 49.092,4.116 C48.8279987,4.4760018 48.6840001,4.94799708 48.66,5.532 L48.648,5.88 C48.648,7.41600768 49.2159943,8.184 50.352,8.184 Z M57.444,9.12 C56.6279959,9.12 55.9760024,8.86600254 55.488,8.358 C54.9999975,7.84999746 54.7320002,7.1560044 54.684,6.276 L54.672,5.868 L54.684,5.472 C54.7320002,4.60799568 54.9999975,3.92000256 55.488,3.408 C55.9760024,2.89599744 56.6279959,2.64 57.444,2.64 C58.3240044,2.64 59.0059976,2.9199972 59.49,3.48 C59.9740024,4.0400028 60.216,4.7999952 60.216,5.76 L60.216,5.976 C60.216,6.0560004 60.1900002,6.12199974 60.138,6.174 C60.0859997,6.22600026 60.0200004,6.252 59.94,6.252 L55.776,6.252 L55.776,6.36 C55.8000001,6.8800026 55.9599985,7.32399816 56.256,7.692 C56.5520015,8.06000184 56.9439975,8.244 57.432,8.244 C57.8080019,8.244 58.1139988,8.17000074 58.35,8.022 C58.5860012,7.87399926 58.7639994,7.7200008 58.884,7.56 C58.9560003,7.46399952 59.0119998,7.4060001 59.052,7.386 C59.0920002,7.3659999 59.1599995,7.356 59.256,7.356 L59.784,7.356 C59.8560003,7.356 59.9179997,7.3759998 59.97,7.416 C60.0220002,7.4560002 60.048,7.50799968 60.048,7.572 C60.048,7.74800088 59.9400011,7.95999876 59.724,8.208 C59.5079989,8.45600124 59.202002,8.6699991 58.806,8.85 C58.409998,9.0300009 57.9560025,9.12 57.444,9.12 Z M59.124,5.436 L59.124,5.4 C59.124,4.8399972 58.9720015,4.38400176 58.668,4.032 C58.3639985,3.67999824 57.9560025,3.504 57.444,3.504 C56.9239974,3.504 56.5160015,3.67999824 56.22,4.032 C55.9239985,4.38400176 55.776,4.8399972 55.776,5.4 L55.776,5.436 L59.124,5.436 Z M31.32,25 C31.2399996,25 31.1760002,24.9740003 31.128,24.922 C31.0799998,24.8699997 31.056,24.8040004 31.056,24.724 L31.056,16.888 C31.056,16.7999996 31.0799998,16.7300003 31.128,16.678 C31.1760002,16.6259997 31.2399996,16.6 31.32,16.6 L36.252,16.6 C36.3400004,16.6 36.4099997,16.6259997 36.462,16.678 C36.5140003,16.7300003 36.54,16.7999996 36.54,16.888 L36.54,17.32 C36.54,17.4000004 36.5140003,17.4639998 36.462,17.512 C36.4099997,17.5600002 36.3400004,17.584 36.252,17.584 L32.16,17.584 L32.16,20.26 L35.988,20.26 C36.0760004,20.26 36.1459997,20.2859997 36.198,20.338 C36.2500003,20.3900003 36.276,20.4599996 36.276,20.548 L36.276,20.956 C36.276,21.0360004 36.2500003,21.1019997 36.198,21.154 C36.1459997,21.2060003 36.0760004,21.232 35.988,21.232 L32.16,21.232 L32.16,24.004 L36.348,24.004 C36.4360004,24.004 36.5059997,24.0299997 36.558,24.082 C36.6100003,24.1340003 36.636,24.2039996 36.636,24.292 L36.636,24.724 C36.636,24.8040004 36.6080003,24.8699997 36.552,24.922 C36.4959997,24.9740003 36.4280004,25 36.348,25 L31.32,25 Z M40.368,25.12 C39.5279958,25.12 38.8980021,24.8480027 38.478,24.304 C38.0579979,23.7599973 37.8320002,23.0720042 37.8,22.24 L37.788,21.88 L37.8,21.52 C37.8320002,20.6959959 38.0599979,20.0100027 38.484,19.462 C38.9080021,18.9139973 39.5359958,18.64 40.368,18.64 C41.2000042,18.64 41.8479977,18.935997 42.312,19.528 L42.312,16.756 C42.312,16.6759996 42.3379997,16.6100003 42.39,16.558 C42.4420003,16.5059997 42.5079996,16.48 42.588,16.48 L43.128,16.48 C43.2080004,16.48 43.2739997,16.5059997 43.326,16.558 C43.3780003,16.6100003 43.404,16.6759996 43.404,16.756 L43.404,24.724 C43.404,24.8040004 43.3780003,24.8699997 43.326,24.922 C43.2739997,24.9740003 43.2080004,25 43.128,25 L42.612,25 C42.5319996,25 42.4680002,24.9740003 42.42,24.922 C42.3719998,24.8699997 42.348,24.8040004 42.348,24.724 L42.348,24.208 C41.8919977,24.816003 41.2320043,25.12 40.368,25.12 Z M40.596,24.184 C41.1560028,24.184 41.5759986,23.9980019 41.856,23.626 C42.1360014,23.2539981 42.2879999,22.8120026 42.312,22.3 C42.32,22.2119996 42.324,22.0600011 42.324,21.844 C42.324,21.6199989 42.32,21.4640004 42.312,21.376 C42.2959999,20.8879976 42.1420015,20.4660018 41.85,20.11 C41.5579985,19.7539982 41.1400027,19.576 40.596,19.576 C40.0199971,19.576 39.6000013,19.7559982 39.336,20.116 C39.0719987,20.4760018 38.9280001,20.9479971 38.904,21.532 L38.892,21.88 C38.892,23.4160077 39.4599943,24.184 40.596,24.184 Z M47.544,25.12 C46.7839962,25.12 46.1960021,24.8740025 45.78,24.382 C45.3639979,23.8899975 45.156,23.2360041 45.156,22.42 L45.156,19.036 C45.156,18.9559996 45.1819997,18.8900003 45.234,18.838 C45.2860003,18.7859997 45.3519996,18.76 45.432,18.76 L45.984,18.76 C46.0640004,18.76 46.1299997,18.7859997 46.182,18.838 C46.2340003,18.8900003 46.26,18.9559996 46.26,19.036 L46.26,22.36 C46.26,23.5760061 46.7879947,24.184 47.844,24.184 C48.3560026,24.184 48.7619985,24.0220016 49.062,23.698 C49.3620015,23.3739984 49.512,22.9280028 49.512,22.36 L49.512,19.036 C49.512,18.9559996 49.5379997,18.8900003 49.59,18.838 C49.6420003,18.7859997 49.7079996,18.76 49.788,18.76 L50.34,18.76 C50.4200004,18.76 50.4859997,18.7859997 50.538,18.838 C50.5900003,18.8900003 50.616,18.9559996 50.616,19.036 L50.616,24.724 C50.616,24.8040004 50.5900003,24.8699997 50.538,24.922 C50.4859997,24.9740003 50.4200004,25 50.34,25 L49.824,25 C49.7439996,25 49.6780003,24.9740003 49.626,24.922 C49.5739997,24.8699997 49.548,24.8040004 49.548,24.724 L49.548,24.184 C49.3159988,24.4960016 49.0440016,24.7299992 48.732,24.886 C48.4199984,25.0420008 48.0240024,25.12 47.544,25.12 Z M54.912,25.12 C54.0559957,25.12 53.3880024,24.8780024 52.908,24.394 C52.4279976,23.9099976 52.1760001,23.2320044 52.152,22.36 L52.14,21.88 L52.152,21.4 C52.1760001,20.5279956 52.4279976,19.8500024 52.908,19.366 C53.3880024,18.8819976 54.0559957,18.64 54.912,18.64 C55.4880029,18.64 55.973998,18.741999 56.37,18.946 C56.766002,19.150001 57.061999,19.4039985 57.258,19.708 C57.454001,20.0120015 57.5599999,20.3159985 57.576,20.62 C57.584,20.6920004 57.5580003,20.7559997 57.498,20.812 C57.4379997,20.8680003 57.3720003,20.896 57.3,20.896 L56.772,20.896 C56.6919996,20.896 56.6320002,20.8780002 56.592,20.842 C56.5519998,20.8059998 56.5120002,20.7400005 56.472,20.644 C56.3279993,20.251998 56.1300012,19.9740008 55.878,19.81 C55.6259987,19.6459992 55.3080019,19.564 54.924,19.564 C54.4199975,19.564 54.0200015,19.7199984 53.724,20.032 C53.4279985,20.3440016 53.2680001,20.8199968 53.244,21.46 L53.232,21.88 L53.244,22.3 C53.2680001,22.9400032 53.4279985,23.4159984 53.724,23.728 C54.0200015,24.0400016 54.4199975,24.196 54.924,24.196 C55.3160019,24.196 55.6359987,24.1140008 55.884,23.95 C56.1320012,23.7859992 56.3279993,23.508002 56.472,23.116 C56.5120002,23.0199995 56.5519998,22.9540002 56.592,22.918 C56.6320002,22.8819998 56.6919996,22.864 56.772,22.864 L57.3,22.864 C57.3720003,22.864 57.4379997,22.8919997 57.498,22.948 C57.5580003,23.0040003 57.584,23.0679996 57.576,23.14 C57.5599999,23.4360015 57.454001,23.7359985 57.258,24.04 C57.061999,24.3440015 56.766002,24.599999 56.37,24.808 C55.973998,25.016001 55.4880029,25.12 54.912,25.12 Z M60.744,25.12 C60.351998,25.12 59.9900016,25.0400008 59.658,24.88 C59.3259983,24.7199992 59.062001,24.5020014 58.866,24.226 C58.669999,23.9499986 58.572,23.6440017 58.572,23.308 C58.572,22.7799974 58.7879978,22.3480017 59.22,22.012 C59.6520021,21.6759983 60.2399963,21.4520006 60.984,21.34 L62.784,21.088 L62.784,20.74 C62.784,19.9159959 62.3080047,19.504 61.356,19.504 C60.9879981,19.504 60.6920011,19.5779993 60.468,19.726 C60.2439989,19.8740007 60.0800005,20.047999 59.976,20.248 C59.9439998,20.3280004 59.9100002,20.3819999 59.874,20.41 C59.8379998,20.4380001 59.7880003,20.452 59.724,20.452 L59.256,20.452 C59.1839996,20.452 59.1220002,20.4260003 59.07,20.374 C59.0179997,20.3219997 58.992,20.2600004 58.992,20.188 C58.992,20.0039991 59.0779991,19.7900012 59.25,19.546 C59.4220008,19.3019988 59.6879982,19.0900009 60.048,18.91 C60.4080018,18.7299991 60.8479974,18.64 61.368,18.64 C62.2640045,18.64 62.905998,18.8479979 63.294,19.264 C63.6820019,19.6800021 63.876,20.1999969 63.876,20.824 L63.876,24.724 C63.876,24.8040004 63.8500002,24.8699997 63.798,24.922 C63.7459997,24.9740003 63.6800004,25 63.6,25 L63.072,25 C62.9919996,25 62.9280002,24.9740003 62.88,24.922 C62.8319997,24.8699997 62.808,24.8040004 62.808,24.724 L62.808,24.196 C62.6319991,24.4600013 62.3760017,24.6799991 62.04,24.856 C61.7039983,25.0320009 61.2720026,25.12 60.744,25.12 Z M60.984,24.244 C61.5120026,24.244 61.9439983,24.0720017 62.28,23.728 C62.6160017,23.3839983 62.784,22.8840033 62.784,22.228 L62.784,21.892 L61.38,22.096 C60.8039971,22.1760004 60.3680015,22.311999 60.072,22.504 C59.7759985,22.696001 59.628,22.9359986 59.628,23.224 C59.628,23.5520016 59.7619986,23.8039991 60.03,23.98 C60.2980013,24.1560009 60.6159981,24.244 60.984,24.244 Z M67.956,25 C66.7159938,25 66.096,24.300007 66.096,22.9 L66.096,19.684 L65.148,19.684 C65.0679996,19.684 65.0040002,19.6600002 64.956,19.612 C64.9079997,19.5639998 64.884,19.5000004 64.884,19.42 L64.884,19.036 C64.884,18.9559996 64.9079997,18.8900003 64.956,18.838 C65.0040002,18.7859997 65.0679996,18.76 65.148,18.76 L66.096,18.76 L66.096,16.756 C66.096,16.6759996 66.1199997,16.6100003 66.168,16.558 C66.2160002,16.5059997 66.2799996,16.48 66.36,16.48 L66.888,16.48 C66.9680004,16.48 67.0339997,16.5059997 67.086,16.558 C67.1380002,16.6100003 67.164,16.6759996 67.164,16.756 L67.164,18.76 L68.652,18.76 C68.7320004,18.76 68.7979997,18.7859997 68.85,18.838 C68.9020002,18.8900003 68.928,18.9559996 68.928,19.036 L68.928,19.42 C68.928,19.5000004 68.9020002,19.5639998 68.85,19.612 C68.7979997,19.6600002 68.7320004,19.684 68.652,19.684 L67.164,19.684 L67.164,22.816 C67.164,23.224002 67.2299993,23.531999 67.362,23.74 C67.4940006,23.948001 67.7199984,24.052 68.04,24.052 L68.772,24.052 C68.8520004,24.052 68.9159997,24.0779997 68.964,24.13 C69.0120002,24.1820003 69.036,24.2479996 69.036,24.328 L69.036,24.724 C69.036,24.8040004 69.0120002,24.8699997 68.964,24.922 C68.9159997,24.9740003 68.8520004,25 68.772,25 L67.956,25 Z M70.392,17.584 C70.3119996,17.584 70.2460002,17.5580003 70.194,17.506 C70.1419997,17.4539997 70.116,17.3880004 70.116,17.308 L70.116,16.684 C70.116,16.6039996 70.1419997,16.5360003 70.194,16.48 C70.2460002,16.4239997 70.3119996,16.396 70.392,16.396 L71.1,16.396 C71.1800004,16.396 71.2479997,16.4239997 71.304,16.48 C71.3600003,16.5360003 71.388,16.6039996 71.388,16.684 L71.388,17.308 C71.388,17.3880004 71.3600003,17.4539997 71.304,17.506 C71.2479997,17.5580003 71.1800004,17.584 71.1,17.584 L70.392,17.584 Z M70.488,25 C70.4079996,25 70.3420002,24.9740003 70.29,24.922 C70.2379997,24.8699997 70.212,24.8040004 70.212,24.724 L70.212,19.036 C70.212,18.9559996 70.2379997,18.8900003 70.29,18.838 C70.3420002,18.7859997 70.4079996,18.76 70.488,18.76 L71.016,18.76 C71.0960004,18.76 71.1619997,18.7859997 71.214,18.838 C71.2660002,18.8900003 71.292,18.9559996 71.292,19.036 L71.292,24.724 C71.292,24.8040004 71.2660002,24.8699997 71.214,24.922 C71.1619997,24.9740003 71.0960004,25 71.016,25 L70.488,25 Z M75.624,25.12 C74.7439956,25.12 74.0660024,24.8720025 73.59,24.376 C73.1139976,23.8799975 72.8600001,23.2200041 72.828,22.396 L72.816,21.88 L72.828,21.364 C72.8600001,20.5399959 73.1179976,19.8800025 73.602,19.384 C74.0860024,18.8879975 74.7599957,18.64 75.624,18.64 C76.4880043,18.64 77.1619976,18.8879975 77.646,19.384 C78.1300024,19.8800025 78.3879998,20.5399959 78.42,21.364 C78.4360001,21.5400009 78.444,21.7119992 78.444,21.88 C78.444,22.0480008 78.4360001,22.2199991 78.42,22.396 C78.3879998,23.2200041 78.1340024,23.8799975 77.658,24.376 C77.1819976,24.8720025 76.5040044,25.12 75.624,25.12 Z M75.624,24.22 C76.1360025,24.22 76.5419985,24.0580016 76.842,23.734 C77.1420015,23.4099984 77.3039999,22.944003 77.328,22.336 C77.336,22.2559996 77.34,22.1040011 77.34,21.88 C77.34,21.6559989 77.336,21.5040004 77.328,21.424 C77.3039999,20.815997 77.1420015,20.3500016 76.842,20.026 C76.5419985,19.7019984 76.1360025,19.54 75.624,19.54 C75.1119974,19.54 74.7060015,19.7019984 74.406,20.026 C74.1059985,20.3500016 73.9440001,20.815997 73.92,21.424 L73.908,21.88 L73.92,22.336 C73.9440001,22.944003 74.1059985,23.4099984 74.406,23.734 C74.7060015,24.0580016 75.1119974,24.22 75.624,24.22 Z M80.232,25 C80.1519996,25 80.0860002,24.9740003 80.034,24.922 C79.9819997,24.8699997 79.956,24.8040004 79.956,24.724 L79.956,19.036 C79.956,18.9559996 79.9819997,18.8900003 80.034,18.838 C80.0860002,18.7859997 80.1519996,18.76 80.232,18.76 L80.748,18.76 C80.8360004,18.76 80.9039997,18.7839998 80.952,18.832 C81.0000002,18.8800002 81.024,18.9479996 81.024,19.036 L81.024,19.564 C81.2640012,19.2679985 81.5419984,19.0400008 81.858,18.88 C82.1740016,18.7199992 82.5679976,18.64 83.04,18.64 C83.8080038,18.64 84.4039979,18.8859975 84.828,19.378 C85.2520021,19.8700025 85.464,20.519996 85.464,21.328 L85.464,24.724 C85.464,24.8040004 85.4380002,24.8699997 85.386,24.922 C85.3339997,24.9740003 85.2680004,25 85.188,25 L84.636,25 C84.5559996,25 84.4900002,24.9740003 84.438,24.922 C84.3859997,24.8699997 84.36,24.8040004 84.36,24.724 L84.36,21.4 C84.36,20.8239971 84.2200014,20.3760016 83.94,20.056 C83.6599986,19.7359984 83.2600026,19.576 82.74,19.576 C82.2279974,19.576 81.8200015,19.7379984 81.516,20.062 C81.2119985,20.3860016 81.06,20.8319972 81.06,21.4 L81.06,24.724 C81.06,24.8040004 81.0340002,24.8699997 80.982,24.922 C80.9299997,24.9740003 80.8640004,25 80.784,25 L80.232,25 Z" id="Trade-Education" fill="#FFFFFF"></path>
                    </g>
                </g>
            </g>
        </g>
    </g>
</svg>