<?xml version="1.0" encoding="UTF-8"?>
<svg width="116px" height="76px" viewBox="0 0 116 76" version="1.1" xmlns="http://www.w3.org/2000/svg" xmlns:xlink="http://www.w3.org/1999/xlink">
    <!-- Generator: Sketch 50.2 (55047) - http://www.bohemiancoding.com/sketch -->
    <title>Trade education</title>
    <desc>Created with Sketch.</desc>
    <defs>
        <filter x="-115.4%" y="-107.1%" width="330.8%" height="314.3%" filterUnits="objectBoundingBox" id="filter-1">
            <feGaussianBlur stdDeviation="10" in="SourceGraphic"></feGaussianBlur>
        </filter>
        <path d="M3.45085714,9.56350626 C3.36371385,9.56350626 3.29182171,9.53587863 3.23517857,9.48062254 C3.17853543,9.42536645 3.15021429,9.35523477 3.15021429,9.2702254 L3.15021429,1.73418247 L0.627428571,1.73418247 C0.540285279,1.73418247 0.46839314,1.70655484 0.41175,1.65129875 C0.35510686,1.59604266 0.326785714,1.52591098 0.326785714,1.44090161 L0.326785714,0.943599284 C0.326785714,0.850088978 0.35510686,0.775706895 0.41175,0.720450805 C0.46839314,0.665194715 0.540285279,0.637567084 0.627428571,0.637567084 L6.90171429,0.637567084 C6.99757191,0.637567084 7.0716426,0.665194715 7.12392857,0.720450805 C7.17621455,0.775706895 7.20235714,0.850088978 7.20235714,0.943599284 L7.20235714,1.44090161 C7.20235714,1.52591098 7.174036,1.59604266 7.11739286,1.65129875 C7.06074972,1.70655484 6.98885758,1.73418247 6.90171429,1.73418247 L4.392,1.73418247 L4.392,9.2702254 C4.392,9.35523477 4.36150031,9.42536645 4.3005,9.48062254 C4.2394997,9.53587863 4.16542901,9.56350626 4.07828571,9.56350626 L3.45085714,9.56350626 Z M7.73828571,9.56350626 C7.65114242,9.56350626 7.57925028,9.53587863 7.52260714,9.48062254 C7.465964,9.42536645 7.43764286,9.35523477 7.43764286,9.2702254 L7.43764286,3.23884079 C7.43764286,3.15383142 7.465964,3.08157454 7.52260714,3.02206798 C7.57925028,2.96256142 7.65114242,2.93280859 7.73828571,2.93280859 L8.28728571,2.93280859 C8.38314334,2.93280859 8.45939257,2.96043622 8.51603571,3.01569231 C8.57267885,3.0709484 8.601,3.14533048 8.601,3.23884079 L8.601,3.79989982 C8.9582875,3.22183611 9.5639243,2.93280859 10.4179286,2.93280859 L10.9277143,2.93280859 C11.0235719,2.93280859 11.0976426,2.95831102 11.1499286,3.00931664 C11.2022145,3.06032226 11.2283571,3.13257914 11.2283571,3.22608945 L11.2283571,3.69788909 C11.2283571,3.78289846 11.2022145,3.85303014 11.1499286,3.90828623 C11.0976426,3.96354232 11.0235719,3.99116995 10.9277143,3.99116995 L10.1826429,3.99116995 C9.70335475,3.99116995 9.32646566,4.1271829 9.05196429,4.39921288 C8.77746291,4.67124286 8.64021429,5.04102807 8.64021429,5.50857961 L8.64021429,9.2702254 C8.64021429,9.35523477 8.60971459,9.42536645 8.54871429,9.48062254 C8.48771398,9.53587863 8.41364329,9.56350626 8.3265,9.56350626 L7.73828571,9.56350626 Z M14.1302143,9.69101968 C13.7032122,9.69101968 13.3088947,9.60601158 12.94725,9.43599284 C12.5856053,9.26597411 12.2980368,9.03432705 12.0845357,8.74104472 C11.8710346,8.4477624 11.7642857,8.12260644 11.7642857,7.76556708 C11.7642857,7.20450524 11.9995691,6.74546153 12.4701429,6.38842218 C12.9407166,6.03138283 13.5812102,5.79336017 14.3916429,5.67434705 L16.3523571,5.40656887 L16.3523571,5.03677996 C16.3523571,4.16118346 15.8338623,3.72339177 14.7968571,3.72339177 C14.395998,3.72339177 14.0735726,3.80202426 13.8295714,3.95929159 C13.5855702,4.11655893 13.4069291,4.30145153 13.2936429,4.51397496 C13.2587855,4.59898432 13.2217502,4.65636479 13.1825357,4.68611807 C13.1433212,4.71587135 13.0888575,4.73074776 13.0191429,4.73074776 L12.5093571,4.73074776 C12.4309282,4.73074776 12.3633931,4.70312013 12.30675,4.64786404 C12.2501069,4.59260795 12.2217857,4.52672668 12.2217857,4.45021825 C12.2217857,4.2546967 12.3154633,4.02730004 12.5028214,3.76802147 C12.6901795,3.50874289 12.9799266,3.28347144 13.3720714,3.09220036 C13.7642162,2.90092928 14.2434972,2.80529517 14.8099286,2.80529517 C15.7859335,2.80529517 16.4852479,3.02631622 16.9078929,3.46836494 C17.3305378,3.91041366 17.5418571,4.46296627 17.5418571,5.12603936 L17.5418571,9.2702254 C17.5418571,9.35523477 17.513536,9.42536645 17.4568929,9.48062254 C17.4002497,9.53587863 17.3283576,9.56350626 17.2412143,9.56350626 L16.6660714,9.56350626 C16.5789281,9.56350626 16.5092145,9.53587863 16.4569286,9.48062254 C16.4046426,9.42536645 16.3785,9.35523477 16.3785,9.2702254 L16.3785,8.70916637 C16.1867848,8.98969729 15.9079304,9.22346955 15.5419286,9.41049016 C15.1759267,9.59751077 14.70536,9.69101968 14.1302143,9.69101968 Z M14.3916429,8.76017174 C14.9667886,8.76017174 15.4373553,8.57740433 15.8033571,8.21186404 C16.169359,7.84632375 16.3523571,7.31502316 16.3523571,6.61794633 L16.3523571,6.26090877 L14.823,6.47768157 C14.1955683,6.56269094 13.7206445,6.7072047 13.3982143,6.91122719 C13.0757841,7.11524968 12.9145714,7.37027396 12.9145714,7.67630769 C12.9145714,8.02484611 13.0605343,8.29262161 13.3524643,8.47964222 C13.6443943,8.66666283 13.9907837,8.76017174 14.3916429,8.76017174 Z M21.9207857,9.69101968 C21.0057811,9.69101968 20.319538,9.40199216 19.8620357,8.82392844 C19.4045334,8.24586473 19.1583573,7.51479512 19.1235,6.63069767 L19.1104286,6.24815742 L19.1235,5.86561717 C19.1583573,4.99002067 19.406712,4.26107626 19.8685714,3.67876208 C20.3304309,3.09644789 21.0144955,2.80529517 21.9207857,2.80529517 C22.827076,2.80529517 23.532926,3.11982512 24.0383571,3.74889445 L24.0383571,0.803334526 C24.0383571,0.718325156 24.0666783,0.648193478 24.1233214,0.592937388 C24.1799646,0.537681298 24.2518567,0.510053667 24.339,0.510053667 L24.9272143,0.510053667 C25.0143576,0.510053667 25.0862497,0.537681298 25.1428929,0.592937388 C25.199536,0.648193478 25.2278571,0.718325156 25.2278571,0.803334526 L25.2278571,9.2702254 C25.2278571,9.35523477 25.199536,9.42536645 25.1428929,9.48062254 C25.0862497,9.53587863 25.0143576,9.56350626 24.9272143,9.56350626 L24.3651429,9.56350626 C24.2779996,9.56350626 24.208286,9.53587863 24.156,9.48062254 C24.103714,9.42536645 24.0775714,9.35523477 24.0775714,9.2702254 L24.0775714,8.72191771 C23.5808547,9.36798892 22.8619333,9.69101968 21.9207857,9.69101968 Z M22.1691429,8.69641503 C22.7791459,8.69641503 23.2366413,8.49877121 23.5416429,8.10347764 C23.8466444,7.70818407 24.0122142,7.23851435 24.0383571,6.69445438 C24.0470715,6.60094408 24.0514286,6.4394287 24.0514286,6.2099034 C24.0514286,5.97187716 24.0470715,5.80611138 24.0383571,5.71260107 C24.0209285,5.19404392 23.8531802,4.74562622 23.5351071,4.36733453 C23.2170341,3.98904283 22.7617172,3.79989982 22.1691429,3.79989982 C21.5417111,3.79989982 21.0842157,3.99116803 20.7966429,4.3737102 C20.50907,4.75625236 20.3522144,5.25780012 20.3260714,5.87836852 L20.313,6.24815742 C20.313,7.88033732 20.9317081,8.69641503 22.1691429,8.69641503 Z M29.8943571,9.69101968 C29.0054956,9.69101968 28.2952884,9.42111898 27.7637143,8.88130948 C27.2321402,8.34149998 26.9402145,7.60405476 26.8879286,6.6689517 L26.8748571,6.23540608 L26.8879286,5.81461181 C26.9402145,4.89651062 27.2321402,4.165441 27.7637143,3.62138104 C28.2952884,3.07732107 29.0054956,2.80529517 29.8943571,2.80529517 C30.8529334,2.80529517 31.5958188,3.1028235 32.1230357,3.69788909 C32.6502526,4.29295467 32.9138571,5.10053157 32.9138571,6.12064401 L32.9138571,6.35016816 C32.9138571,6.43517753 32.885536,6.5053092 32.8288929,6.5605653 C32.7722497,6.61582139 32.7003576,6.64344902 32.6132143,6.64344902 L28.0774286,6.64344902 L28.0774286,6.75821109 C28.1035716,7.31077199 28.2778555,7.78256692 28.6002857,8.17361002 C28.9227159,8.56465312 29.3497116,8.76017174 29.8812857,8.76017174 C30.2908592,8.76017174 30.6241773,8.68153925 30.88125,8.52427191 C31.1383227,8.36700458 31.3322136,8.203364 31.4629286,8.03334526 C31.5413575,7.93133402 31.6023569,7.86970315 31.6459286,7.84845081 C31.6895002,7.82719846 31.7635709,7.81657245 31.8681429,7.81657245 L32.4432857,7.81657245 C32.5217147,7.81657245 32.5892497,7.83782447 32.6458929,7.88032916 C32.702536,7.92283384 32.7308571,7.97808911 32.7308571,8.0460966 C32.7308571,8.23311721 32.6132155,8.45838866 32.3779286,8.72191771 C32.1426417,8.98544676 31.8093236,9.21284341 31.3779643,9.40411449 C30.946605,9.59538557 30.4520742,9.69101968 29.8943571,9.69101968 Z M31.7243571,5.77635778 L31.7243571,5.73810376 C31.7243571,5.14303817 31.5587874,4.65849203 31.2276429,4.28445081 C30.8964983,3.91040958 30.4520742,3.72339177 29.8943571,3.72339177 C29.3279257,3.72339177 28.8835016,3.91040958 28.5610714,4.28445081 C28.2386412,4.65849203 28.0774286,5.14303817 28.0774286,5.73810376 L28.0774286,5.77635778 L31.7243571,5.77635778 Z" id="path-2"></path>
        <path d="M1.43785714,26.5652952 C1.35071385,26.5652952 1.28100026,26.5376675 1.22871429,26.4824114 C1.17642831,26.4271554 1.15028571,26.3570237 1.15028571,26.2720143 L1.15028571,17.9453882 C1.15028571,17.8518779 1.17642831,17.7774958 1.22871429,17.7222397 C1.28100026,17.6669836 1.35071385,17.639356 1.43785714,17.639356 L6.81021429,17.639356 C6.90607191,17.639356 6.98232115,17.6669836 7.03896429,17.7222397 C7.09560743,17.7774958 7.12392857,17.8518779 7.12392857,17.9453882 L7.12392857,18.4044365 C7.12392857,18.4894459 7.09560743,18.5574523 7.03896429,18.608458 C6.98232115,18.6594636 6.90607191,18.684966 6.81021429,18.684966 L2.35285714,18.684966 L2.35285714,21.5285152 L6.52264286,21.5285152 C6.61850048,21.5285152 6.69474972,21.5561428 6.75139286,21.6113989 C6.808036,21.666655 6.83635714,21.7410371 6.83635714,21.8345474 L6.83635714,22.268093 C6.83635714,22.3531024 6.808036,22.4232341 6.75139286,22.4784902 C6.69474972,22.5337463 6.61850048,22.5613739 6.52264286,22.5613739 L2.35285714,22.5613739 L2.35285714,25.5069338 L6.91478571,25.5069338 C7.01064334,25.5069338 7.08689257,25.5345614 7.14353571,25.5898175 C7.20017885,25.6450736 7.2285,25.7194557 7.2285,25.812966 L7.2285,26.2720143 C7.2285,26.3570237 7.1980003,26.4271554 7.137,26.4824114 C7.07599969,26.5376675 7.00192901,26.5652952 6.91478571,26.5652952 L1.43785714,26.5652952 Z M11.2937143,26.6928086 C10.3787097,26.6928086 9.69246657,26.4037811 9.23496429,25.8257174 C8.777462,25.2476536 8.53128589,24.516584 8.49642857,23.6324866 L8.48335714,23.2499463 L8.49642857,22.8674061 C8.53128589,21.9918096 8.77964055,21.2628652 9.2415,20.680551 C9.70335945,20.0982368 10.387424,19.8070841 11.2937143,19.8070841 C12.2000045,19.8070841 12.9058546,20.121614 13.4112857,20.7506834 L13.4112857,17.8051234 C13.4112857,17.7201141 13.4396069,17.6499824 13.49625,17.5947263 C13.5528931,17.5394702 13.6247853,17.5118426 13.7119286,17.5118426 L14.3001429,17.5118426 C14.3872862,17.5118426 14.4591783,17.5394702 14.5158214,17.5947263 C14.5724646,17.6499824 14.6007857,17.7201141 14.6007857,17.8051234 L14.6007857,26.2720143 C14.6007857,26.3570237 14.5724646,26.4271554 14.5158214,26.4824114 C14.4591783,26.5376675 14.3872862,26.5652952 14.3001429,26.5652952 L13.7380714,26.5652952 C13.6509281,26.5652952 13.5812145,26.5376675 13.5289286,26.4824114 C13.4766426,26.4271554 13.4505,26.3570237 13.4505,26.2720143 L13.4505,25.7237066 C12.9537832,26.3697778 12.2348618,26.6928086 11.2937143,26.6928086 Z M11.5420714,25.6982039 C12.1520745,25.6982039 12.6095699,25.5005601 12.9145714,25.1052665 C13.219573,24.709973 13.3851427,24.2403033 13.4112857,23.6962433 C13.42,23.602733 13.4243571,23.4412176 13.4243571,23.2116923 C13.4243571,22.9736661 13.42,22.8079003 13.4112857,22.71439 C13.3938571,22.1958328 13.2261087,21.7474151 12.9080357,21.3691234 C12.5899627,20.9908317 12.1346458,20.8016887 11.5420714,20.8016887 C10.9146397,20.8016887 10.4571443,20.9929569 10.1695714,21.3754991 C9.88199856,21.7580413 9.72514299,22.259589 9.699,22.8801574 L9.68592857,23.2499463 C9.68592857,24.8821262 10.3046367,25.6982039 11.5420714,25.6982039 Z M19.1104286,26.6928086 C18.2825673,26.6928086 17.6420737,26.4314087 17.1889286,25.9086011 C16.7357834,25.3857935 16.5092143,24.6908523 16.5092143,23.8237567 L16.5092143,20.2278784 C16.5092143,20.142869 16.5375354,20.0727373 16.5941786,20.0174812 C16.6508217,19.9622251 16.7227139,19.9345975 16.8098571,19.9345975 L17.4111429,19.9345975 C17.4982862,19.9345975 17.5701783,19.9622251 17.6268214,20.0174812 C17.6834646,20.0727373 17.7117857,20.142869 17.7117857,20.2278784 L17.7117857,23.76 C17.7117857,25.0521424 18.2869228,25.6982039 19.4372143,25.6982039 C19.9949314,25.6982039 20.4371769,25.5260625 20.7639643,25.1817746 C21.0907516,24.8374867 21.2541429,24.3635665 21.2541429,23.76 L21.2541429,20.2278784 C21.2541429,20.142869 21.282464,20.0727373 21.3391071,20.0174812 C21.3957503,19.9622251 21.4676424,19.9345975 21.5547857,19.9345975 L22.1560714,19.9345975 C22.2432147,19.9345975 22.3151069,19.9622251 22.37175,20.0174812 C22.4283931,20.0727373 22.4567143,20.142869 22.4567143,20.2278784 L22.4567143,26.2720143 C22.4567143,26.3570237 22.4283931,26.4271554 22.37175,26.4824114 C22.3151069,26.5376675 22.2432147,26.5652952 22.1560714,26.5652952 L21.594,26.5652952 C21.5068567,26.5652952 21.4349646,26.5376675 21.3783214,26.4824114 C21.3216783,26.4271554 21.2933571,26.3570237 21.2933571,26.2720143 L21.2933571,25.6982039 C21.0406416,26.0297405 20.7443588,26.2783892 20.4045,26.4441574 C20.0646412,26.6099257 19.6332883,26.6928086 19.1104286,26.6928086 Z M27.1362857,26.6928086 C26.2038525,26.6928086 25.4762169,26.4356591 24.9533571,25.9213524 C24.4304974,25.4070457 24.1560001,24.6866021 24.1298571,23.76 L24.1167857,23.2499463 L24.1298571,22.7398927 C24.1560001,21.8132905 24.4304974,21.0928469 24.9533571,20.5785403 C25.4762169,20.0642336 26.2038525,19.8070841 27.1362857,19.8070841 C27.7637174,19.8070841 28.293105,19.9154694 28.7244643,20.1322433 C29.1558236,20.3490172 29.4782489,20.6189179 29.69175,20.9419535 C29.9052511,21.2649891 30.0207142,21.5880199 30.0381429,21.9110555 C30.0468572,21.9875639 30.018536,22.0555704 29.9531786,22.1150769 C29.8878211,22.1745835 29.815929,22.2043363 29.7375,22.2043363 L29.1623571,22.2043363 C29.0752138,22.2043363 29.0098574,22.1852095 28.9662857,22.1469553 C28.9227141,22.1087011 28.8791431,22.0385694 28.8355714,21.9365581 C28.6787135,21.5200122 28.4630371,21.2246091 28.1885357,21.0503399 C27.9140343,20.8760707 27.5676449,20.7889374 27.1493571,20.7889374 C26.6003544,20.7889374 26.1646445,20.9547032 25.8422143,21.2862397 C25.5197841,21.6177763 25.3455001,22.1235744 25.3193571,22.8036494 L25.3062857,23.2499463 L25.3193571,23.6962433 C25.3455001,24.3763182 25.5197841,24.8821164 25.8422143,25.213653 C26.1646445,25.5451895 26.6003544,25.7109553 27.1493571,25.7109553 C27.5763593,25.7109553 27.9249272,25.623822 28.1950714,25.4495528 C28.4652156,25.2752836 28.6787135,24.9798804 28.8355714,24.5633345 C28.8791431,24.4613233 28.9227141,24.3911916 28.9662857,24.3529374 C29.0098574,24.3146832 29.0752138,24.2955564 29.1623571,24.2955564 L29.7375,24.2955564 C29.815929,24.2955564 29.8878211,24.3253092 29.9531786,24.3848157 C30.018536,24.4443223 30.0468572,24.5123288 30.0381429,24.5888372 C30.0207142,24.9033719 29.9052511,25.2221522 29.69175,25.5451878 C29.4782489,25.8682234 29.1558236,26.1402493 28.7244643,26.3612737 C28.293105,26.5822981 27.7637174,26.6928086 27.1362857,26.6928086 Z M33.489,26.6928086 C33.0619979,26.6928086 32.6676804,26.6078005 32.3060357,26.4377818 C31.944391,26.267763 31.6568225,26.036116 31.4433214,25.7428336 C31.2298204,25.4495513 31.1230714,25.1243953 31.1230714,24.767356 C31.1230714,24.2062942 31.3583548,23.7472504 31.8289286,23.3902111 C32.2995024,23.0331717 32.9399959,22.7951491 33.7504286,22.676136 L35.7111429,22.4083578 L35.7111429,22.0385689 C35.7111429,21.1629724 35.192648,20.7251807 34.1556429,20.7251807 C33.7547837,20.7251807 33.4323584,20.8038132 33.1883571,20.9610805 C32.9443559,21.1183478 32.7657149,21.3032404 32.6524286,21.5157639 C32.6175713,21.6007732 32.5805359,21.6581537 32.5413214,21.687907 C32.5021069,21.7176603 32.4476432,21.7325367 32.3779286,21.7325367 L31.8681429,21.7325367 C31.7897139,21.7325367 31.7221789,21.704909 31.6655357,21.649653 C31.6088926,21.5943969 31.5805714,21.5285156 31.5805714,21.4520072 C31.5805714,21.2564856 31.6742491,21.029089 31.8616071,20.7698104 C32.0489652,20.5105318 32.3387123,20.2852603 32.7308571,20.0939893 C33.123002,19.9027182 33.6022829,19.8070841 34.1687143,19.8070841 C35.1447192,19.8070841 35.8440336,20.0281051 36.2666786,20.4701538 C36.6893235,20.9122026 36.9006429,21.4647552 36.9006429,22.1278283 L36.9006429,26.2720143 C36.9006429,26.3570237 36.8723217,26.4271554 36.8156786,26.4824114 C36.7590354,26.5376675 36.6871433,26.5652952 36.6,26.5652952 L36.0248571,26.5652952 C35.9377139,26.5652952 35.8680003,26.5376675 35.8157143,26.4824114 C35.7634283,26.4271554 35.7372857,26.3570237 35.7372857,26.2720143 L35.7372857,25.7109553 C35.5455705,25.9914862 35.2667161,26.2252585 34.9007143,26.4122791 C34.5347125,26.5992997 34.0641457,26.6928086 33.489,26.6928086 Z M33.7504286,25.7619606 C34.3255743,25.7619606 34.796141,25.5791932 35.1621429,25.213653 C35.5281447,24.8481127 35.7111429,24.3168121 35.7111429,23.6197352 L35.7111429,23.2626977 L34.1817857,23.4794705 C33.554354,23.5644799 33.0794302,23.7089936 32.757,23.9130161 C32.4345698,24.1170386 32.2733571,24.3720629 32.2733571,24.6780966 C32.2733571,25.026635 32.41932,25.2944105 32.71125,25.4814311 C33.00318,25.6684517 33.3495694,25.7619606 33.7504286,25.7619606 Z M41.3449286,26.5652952 C39.9942075,26.5652952 39.3188571,25.8214743 39.3188571,24.3338104 L39.3188571,20.9164508 L38.2862143,20.9164508 C38.199071,20.9164508 38.1293574,20.8909484 38.0770714,20.8399428 C38.0247855,20.7889371 37.9986429,20.7209307 37.9986429,20.6359213 L37.9986429,20.2278784 C37.9986429,20.142869 38.0247855,20.0727373 38.0770714,20.0174812 C38.1293574,19.9622251 38.199071,19.9345975 38.2862143,19.9345975 L39.3188571,19.9345975 L39.3188571,17.8051234 C39.3188571,17.7201141 39.3449997,17.6499824 39.3972857,17.5947263 C39.4495717,17.5394702 39.5192853,17.5118426 39.6064286,17.5118426 L40.1815714,17.5118426 C40.2687147,17.5118426 40.3406069,17.5394702 40.39725,17.5947263 C40.4538931,17.6499824 40.4822143,17.7201141 40.4822143,17.8051234 L40.4822143,19.9345975 L42.1030714,19.9345975 C42.1902147,19.9345975 42.2621069,19.9622251 42.31875,20.0174812 C42.3753931,20.0727373 42.4037143,20.142869 42.4037143,20.2278784 L42.4037143,20.6359213 C42.4037143,20.7209307 42.3753931,20.7889371 42.31875,20.8399428 C42.2621069,20.8909484 42.1902147,20.9164508 42.1030714,20.9164508 L40.4822143,20.9164508 L40.4822143,24.244551 C40.4822143,24.6780988 40.5541064,25.0053799 40.6978929,25.2264043 C40.8416793,25.4474287 41.0878554,25.5579392 41.4364286,25.5579392 L42.2337857,25.5579392 C42.320929,25.5579392 42.3906426,25.5855668 42.4429286,25.6408229 C42.4952145,25.696079 42.5213571,25.7662107 42.5213571,25.85122 L42.5213571,26.2720143 C42.5213571,26.3570237 42.4952145,26.4271554 42.4429286,26.4824114 C42.3906426,26.5376675 42.320929,26.5652952 42.2337857,26.5652952 L41.3449286,26.5652952 Z M43.9984286,18.684966 C43.9112853,18.684966 43.8393931,18.6573384 43.78275,18.6020823 C43.7261069,18.5468262 43.6977857,18.4766945 43.6977857,18.3916852 L43.6977857,17.7286154 C43.6977857,17.643606 43.7261069,17.5713491 43.78275,17.5118426 C43.8393931,17.452336 43.9112853,17.4225832 43.9984286,17.4225832 L44.7696429,17.4225832 C44.8567862,17.4225832 44.9308568,17.452336 44.9918571,17.5118426 C45.0528574,17.5713491 45.0833571,17.643606 45.0833571,17.7286154 L45.0833571,18.3916852 C45.0833571,18.4766945 45.0528574,18.5468262 44.9918571,18.6020823 C44.9308568,18.6573384 44.8567862,18.684966 44.7696429,18.684966 L43.9984286,18.684966 Z M44.103,26.5652952 C44.0158567,26.5652952 43.9439646,26.5376675 43.8873214,26.4824114 C43.8306783,26.4271554 43.8023571,26.3570237 43.8023571,26.2720143 L43.8023571,20.2278784 C43.8023571,20.142869 43.8306783,20.0727373 43.8873214,20.0174812 C43.9439646,19.9622251 44.0158567,19.9345975 44.103,19.9345975 L44.6781429,19.9345975 C44.7652861,19.9345975 44.8371783,19.9622251 44.8938214,20.0174812 C44.9504646,20.0727373 44.9787857,20.142869 44.9787857,20.2278784 L44.9787857,26.2720143 C44.9787857,26.3570237 44.9504646,26.4271554 44.8938214,26.4824114 C44.8371783,26.5376675 44.7652861,26.5652952 44.6781429,26.5652952 L44.103,26.5652952 Z M49.6975714,26.6928086 C48.7389952,26.6928086 48.0004669,26.4292835 47.4819643,25.9022254 C46.9634617,25.3751673 46.6867859,24.6738505 46.6519286,23.798254 L46.6388571,23.2499463 L46.6519286,22.7016386 C46.6867859,21.8260421 46.9678188,21.1247254 47.4950357,20.5976673 C48.0222526,20.0706092 48.7564239,19.8070841 49.6975714,19.8070841 C50.638719,19.8070841 51.3728902,20.0706092 51.9001071,20.5976673 C52.4273241,21.1247254 52.708357,21.8260421 52.7432143,22.7016386 C52.7606429,22.8886593 52.7693571,23.0714267 52.7693571,23.2499463 C52.7693571,23.428466 52.7606429,23.6112334 52.7432143,23.798254 C52.708357,24.6738505 52.4316812,25.3751673 51.9131786,25.9022254 C51.394676,26.4292835 50.6561477,26.6928086 49.6975714,26.6928086 Z M49.6975714,25.736458 C50.2552885,25.736458 50.6975341,25.5643166 51.0243214,25.2200286 C51.3511088,24.8757407 51.5275713,24.3805685 51.5537143,23.7344973 C51.5624286,23.6494879 51.5667857,23.4879726 51.5667857,23.2499463 C51.5667857,23.0119201 51.5624286,22.8504047 51.5537143,22.7653953 C51.5275713,22.1193241 51.3511088,21.624152 51.0243214,21.279864 C50.6975341,20.9355761 50.2552885,20.7634347 49.6975714,20.7634347 C49.1398544,20.7634347 48.6976088,20.9355761 48.3708214,21.279864 C48.0440341,21.624152 47.8675716,22.1193241 47.8414286,22.7653953 L47.8283571,23.2499463 L47.8414286,23.7344973 C47.8675716,24.3805685 48.0440341,24.8757407 48.3708214,25.2200286 C48.6976088,25.5643166 49.1398544,25.736458 49.6975714,25.736458 Z M54.717,26.5652952 C54.6298567,26.5652952 54.5579646,26.5376675 54.5013214,26.4824114 C54.4446783,26.4271554 54.4163571,26.3570237 54.4163571,26.2720143 L54.4163571,20.2278784 C54.4163571,20.142869 54.4446783,20.0727373 54.5013214,20.0174812 C54.5579646,19.9622251 54.6298567,19.9345975 54.717,19.9345975 L55.2790714,19.9345975 C55.3749291,19.9345975 55.4489997,19.9600999 55.5012857,20.0111055 C55.5535717,20.0621112 55.5797143,20.134368 55.5797143,20.2278784 L55.5797143,20.7889374 C55.8411442,20.4744027 56.1439626,20.2321297 56.4881786,20.0621109 C56.8323946,19.8920922 57.2615689,19.8070841 57.7757143,19.8070841 C58.6122899,19.8070841 59.2614977,20.068484 59.7233571,20.5912916 C60.1852166,21.1140992 60.4161429,21.80479 60.4161429,22.6633846 L60.4161429,26.2720143 C60.4161429,26.3570237 60.3878217,26.4271554 60.3311786,26.4824114 C60.2745354,26.5376675 60.2026433,26.5652952 60.1155,26.5652952 L59.5142143,26.5652952 C59.427071,26.5652952 59.3551789,26.5376675 59.2985357,26.4824114 C59.2418926,26.4271554 59.2135714,26.3570237 59.2135714,26.2720143 L59.2135714,22.7398927 C59.2135714,22.1278252 59.061073,21.6517799 58.7560714,21.3117424 C58.4510699,20.9717049 58.01536,20.8016887 57.4489286,20.8016887 C56.8912115,20.8016887 56.4467874,20.9738301 56.1156429,21.3181181 C55.7844983,21.662406 55.6189286,22.1363261 55.6189286,22.7398927 L55.6189286,26.2720143 C55.6189286,26.3570237 55.5906074,26.4271554 55.5339643,26.4824114 C55.4773211,26.5376675 55.405429,26.5652952 55.3182857,26.5652952 L54.717,26.5652952 Z" id="path-3"></path>
    </defs>
    <g id="Page-1" stroke="none" stroke-width="1" fill="none" fill-rule="evenodd">
        <g id="300x600-copy" transform="translate(-83.000000, -293.000000)">
            <g id="Trade-education" transform="translate(105.000000, 317.000000)">
                <g id="Logo" fill="#12A6C5" fill-rule="nonzero">
                    <polygon id="Combined-Shape-Copy" opacity="0.300223214" filter="url(#filter-1)" points="17.5929671 16.852459 17.5929671 20.7868853 26 20.7868853 26 28 17.5929671 28 8.17813663 28 8.17813663 7.32 0 7.32 0 0 25.7711037 0 25.7711037 7.32 17.5929671 7.32 17.5929671 12.2622951 22.076064 12.2622951 22.076064 16.852459"></polygon>
                    <polygon id="Combined-Shape" points="17.5929671 16.852459 17.5929671 20.7868853 26 20.7868853 26 28 17.5929671 28 8.17813663 28 8.17813663 7.32 0 7.32 0 0 25.7711037 0 25.7711037 7.32 17.5929671 7.32 17.5929671 12.2622951 22.076064 12.2622951 22.076064 16.852459"></polygon>
                </g>
                <g id="Trade-Education" transform="translate(33.000000, 0.000000)">
                    <g id="Trade">
                        <use fill="#000000" xlink:href="#path-2"></use>
                        <use fill="#FFFFFF" xlink:href="#path-2"></use>
                    </g>
                    <g id="Education">
                        <use fill="#000000" xlink:href="#path-3"></use>
                        <use fill="#FFFFFF" xlink:href="#path-3"></use>
                    </g>
                </g>
            </g>
        </g>
    </g>
</svg>