<?xml version="1.0" encoding="UTF-8"?>
<svg width="158px" height="83px" viewBox="0 0 158 83" version="1.1" xmlns="http://www.w3.org/2000/svg" xmlns:xlink="http://www.w3.org/1999/xlink">
    <!-- Generator: Sketch 50.2 (55047) - http://www.bohemiancoding.com/sketch -->
    <title>Trade Info logo</title>
    <desc>Created with Sketch.</desc>
    <defs></defs>
    <g id="Trade-Info-logo" stroke="none" stroke-width="1" fill="none" fill-rule="evenodd">
        <path d="M22.1162909,39.0250823 L19,39.0250823 L19,36.2432227 L28.8201165,36.2432227 L28.8201165,39.0250823 L25.7038257,39.0250823 L25.7038257,46.8842159 L22.1162909,46.8842159 L22.1162909,39.0250823 Z M34.3078287,44.2087662 L33.3349379,44.2087662 L33.3349379,46.8842159 L29.7474031,46.8842159 L29.7474031,36.2432227 L34.8702812,36.2432227 C35.8533112,36.2432227 36.7096493,36.4053695 37.439321,36.7296681 C38.1689928,37.0539667 38.7314396,37.5201388 39.1266785,38.1281986 C39.5219174,38.7362584 39.7195338,39.4456509 39.7195338,40.2563973 C39.7195338,41.016472 39.5472528,41.6802607 39.2026856,42.2477831 C38.8581184,42.8153056 38.3615437,43.2662765 37.7129465,43.6007094 L39.9475551,46.8842159 L36.1167976,46.8842159 L34.3078287,44.2087662 Z M36.1015961,40.2563973 C36.1015961,39.8611584 35.979986,39.5545995 35.7367621,39.3367114 C35.4935382,39.1188233 35.1287078,39.0098809 34.6422599,39.0098809 L33.3349379,39.0098809 L33.3349379,41.5029136 L34.6422599,41.5029136 C35.1287078,41.5029136 35.4935382,41.3939712 35.7367621,41.1760831 C35.979986,40.958195 36.1015961,40.6516361 36.1015961,40.2563973 Z M48.3235369,45.0296428 L44.2799595,45.0296428 L43.5654928,46.8842159 L39.9171523,46.8842159 L44.5687864,36.2432227 L48.0955156,36.2432227 L52.7471497,46.8842159 L49.0380035,46.8842159 L48.3235369,45.0296428 Z M47.3354446,42.4454016 L46.3017482,39.7699519 L45.2680517,42.4454016 L47.3354446,42.4454016 Z M53.3248036,36.2432227 L58.5692931,36.2432227 C59.7550097,36.2432227 60.8013636,36.458574 61.7083861,36.889283 C62.6154086,37.319992 63.319734,37.9356433 63.8213833,38.7362554 C64.3230327,39.5368674 64.5738536,40.479346 64.5738536,41.5637193 C64.5738536,42.6480926 64.3230327,43.5905711 63.8213833,44.3911832 C63.319734,45.1917952 62.6154086,45.8074465 61.7083861,46.2381556 C60.8013636,46.6688646 59.7550097,46.8842159 58.5692931,46.8842159 L53.3248036,46.8842159 L53.3248036,36.2432227 Z M58.4172789,44.0871548 C59.187488,44.0871548 59.8031393,43.8667364 60.2642513,43.4258931 C60.7253633,42.9850497 60.9559159,42.3643313 60.9559159,41.5637193 C60.9559159,40.7631072 60.7253633,40.1423888 60.2642513,39.7015455 C59.8031393,39.2607021 59.187488,39.0402838 58.4172789,39.0402838 L56.9123385,39.0402838 L56.9123385,44.0871548 L58.4172789,44.0871548 Z M74.7284013,44.1783633 L74.7284013,46.8842159 L65.8811756,46.8842159 L65.8811756,36.2432227 L74.5307829,36.2432227 L74.5307829,38.9490752 L69.4079047,38.9490752 L69.4079047,40.1955916 L73.9075247,40.1955916 L73.9075247,42.7798328 L69.4079047,42.7798328 L69.4079047,44.1783633 L74.7284013,44.1783633 Z M76.9782113,36.2432227 L78.1031163,36.2432227 L78.1031163,46.8842159 L76.9782113,46.8842159 L76.9782113,36.2432227 Z M90.4618698,36.2432227 L90.4618698,46.8842159 L89.5345832,46.8842159 L82.6939448,38.24981 L82.6939448,46.8842159 L81.5690398,46.8842159 L81.5690398,36.2432227 L82.4963263,36.2432227 L89.3521662,44.8776286 L89.3521662,36.2432227 L90.4618698,36.2432227 Z M95.0526983,37.2161135 L95.0526983,41.3965037 L100.555612,41.3965037 L100.555612,42.3693945 L95.0526983,42.3693945 L95.0526983,46.8842159 L93.9277933,46.8842159 L93.9277933,36.2432227 L101.224474,36.2432227 L101.224474,37.2161135 L95.0526983,37.2161135 Z M108.065113,46.9754244 C107.011142,46.9754244 106.055996,46.7398047 105.199645,46.2685584 C104.343294,45.7973121 103.674439,45.1512582 103.193058,44.3303775 C102.711677,43.5094968 102.470991,42.5872866 102.470991,41.5637193 C102.470991,40.540152 102.711677,39.6179418 103.193058,38.7970611 C103.674439,37.9761803 104.343294,37.3301265 105.199645,36.8588802 C106.055996,36.3876338 107.011142,36.1520142 108.065113,36.1520142 C109.119083,36.1520142 110.069162,36.3851003 110.915379,36.8512795 C111.761595,37.3174586 112.427918,37.9635125 112.914365,38.7894603 C113.400813,39.6154082 113.644033,40.540152 113.644033,41.5637193 C113.644033,42.5872866 113.400813,43.5120303 112.914365,44.3379782 C112.427918,45.1639261 111.761595,45.8099799 110.915379,46.2761591 C110.069162,46.7423383 109.119083,46.9754244 108.065113,46.9754244 Z M108.065113,45.9721307 C108.906262,45.9721307 109.666325,45.7821149 110.345326,45.4020775 C111.024326,45.0220402 111.55637,44.4950629 111.941475,43.82113 C112.326579,43.147197 112.519128,42.3947343 112.519128,41.5637193 C112.519128,40.7327042 112.326579,39.9802415 111.941475,39.3063086 C111.55637,38.6323757 111.024326,38.1053984 110.345326,37.725361 C109.666325,37.3453237 108.906262,37.1553078 108.065113,37.1553078 C107.223963,37.1553078 106.461366,37.3453237 105.777299,37.725361 C105.093232,38.1053984 104.556121,38.6323757 104.165949,39.3063086 C103.775777,39.9802415 103.580694,40.7327042 103.580694,41.5637193 C103.580694,42.3947343 103.775777,43.147197 104.165949,43.82113 C104.556121,44.4950629 105.093232,45.0220402 105.777299,45.4020775 C106.461366,45.7821149 107.223963,45.9721307 108.065113,45.9721307 Z M127.948569,44.1023562 L127.948569,46.8842159 L119.420573,46.8842159 L119.420573,44.6800101 L123.266532,41.1228781 C123.600964,40.8087139 123.823916,40.5401582 123.935394,40.3172029 C124.046872,40.0942477 124.10261,39.8763629 124.10261,39.6635419 C124.10261,39.4000494 124.013936,39.1948323 123.836585,39.0478845 C123.659234,38.9009367 123.403346,38.8274639 123.068913,38.8274639 C122.744615,38.8274639 122.440589,38.9136044 122.156828,39.085888 C121.873067,39.2581716 121.655182,39.5013919 121.503167,39.8155561 L118.797314,38.4626298 C119.202688,37.7025551 119.795537,37.1021051 120.57588,36.6612617 C121.356224,36.2204184 122.298702,36 123.403344,36 C124.244494,36 124.989356,36.1368114 125.637953,36.4104383 C126.28655,36.6840652 126.793259,37.0742311 127.158095,37.5809476 C127.522931,38.087664 127.705346,38.6703793 127.705346,39.3291107 C127.705346,39.9169018 127.581202,40.466681 127.332911,40.9784647 C127.08462,41.4902483 126.600713,42.07043 125.881176,42.7190271 L124.361034,44.1023562 L127.948569,44.1023562 Z M139,45.0600456 L137.586268,45.0600456 L137.586268,46.8842159 L134.105143,46.8842159 L134.105143,45.0600456 L128.587028,45.0600456 L128.587028,42.7798328 L133.10185,36.2432227 L136.780593,36.2432227 L132.767418,42.278186 L134.211553,42.278186 L134.211553,40.6516342 L137.586268,40.6516342 L137.586268,42.278186 L139,42.278186 L139,45.0600456 Z" id="Tradeinfo-24" fill="#FFFFFF"></path>
    </g>
</svg>