<?xml version="1.0" encoding="UTF-8"?>
<svg width="15px" height="11px" viewBox="0 0 15 11" version="1.1" xmlns="http://www.w3.org/2000/svg" xmlns:xlink="http://www.w3.org/1999/xlink">
    <!-- Generator: sketchtool 50.2 (55047) - http://www.bohemiancoding.com/sketch -->
    <title>0148003A-B927-4DA0-B213-3DB69E90CA31</title>
    <desc>Created with sketchtool.</desc>
    <defs>
        <linearGradient x1="-9.61837369%" y1="0%" x2="115.218014%" y2="219.587054%" id="linearGradient-1">
            <stop stop-color="#8239CE" offset="0%"></stop>
            <stop stop-color="#BE83FF" offset="100%"></stop>
        </linearGradient>
    </defs>
    <g id="Page-1" stroke="none" stroke-width="1" fill="none" fill-rule="evenodd">
        <g id="Home-01" transform="translate(-1125.000000, -1961.000000)" fill="url(#linearGradient-1)" fill-rule="nonzero">
            <g id="Group-5" transform="translate(1125.000000, 1957.000000)">
                <g id="mail-black-envelope-symbol" transform="translate(0.000000, 4.000000)">
                    <path d="M15,9.16661629 C15,9.48814536 14.9075042,9.78621795 14.7593315,10.048471 L10.0232167,4.86718896 L14.7079827,0.859516691 C14.890223,1.14229421 15,1.47446333 15,1.83341394 L15,9.16661629 Z M7.50001546,5.80795696 L14.0187156,0.230997945 C13.7512134,0.0878106554 13.4499836,0 13.1250425,0 L1.87498841,0 C1.54964541,0 1.24832289,0.0878106554 0.981902719,0.230997945 L7.50001546,5.80795696 Z M9.31737945,5.47055849 L7.8084792,6.76229706 C7.72021863,6.83747266 7.61031799,6.87501511 7.50001546,6.87501511 C7.3896511,6.87501511 7.27975046,6.83747266 7.19148989,6.76229706 L5.68224958,5.47049804 L0.886222695,10.7180084 C1.17369557,10.8943552 1.51060054,11 1.87495749,11 L13.1250425,11 C13.4893376,11 13.8263972,10.8943552 14.1137773,10.7180084 L9.31737945,5.47055849 Z M0.292079116,0.859486464 C0.109869727,1.14226398 0,1.4744331 0,1.83341394 L0,9.16664652 C0,9.48817558 0.0920630406,9.78624817 0.24079215,10.0485013 L4.97635049,4.86631236 L0.292079116,0.859486464 Z" id="Shape"></path>
                </g>
            </g>
        </g>
    </g>
</svg>