<?xml version="1.0" encoding="UTF-8"?>
<svg width="35px" height="35px" viewBox="0 0 35 35" version="1.1" xmlns="http://www.w3.org/2000/svg" xmlns:xlink="http://www.w3.org/1999/xlink">
    <!-- Generator: sketchtool 50.2 (55047) - http://www.bohemiancoding.com/sketch -->
    <title>1448C7AD-29EB-4873-8CA4-E6A520A56607</title>
    <desc>Created with sketchtool.</desc>
    <defs>
        <linearGradient x1="-9.61837369%" y1="0%" x2="111.798881%" y2="213.572804%" id="linearGradient-1">
            <stop stop-color="#9241E6" offset="0%"></stop>
            <stop stop-color="#AD72ED" offset="100%"></stop>
        </linearGradient>
    </defs>
    <g id="Page-1" stroke="none" stroke-width="1" fill="none" fill-rule="evenodd">
        <g id="Home-01" transform="translate(-287.000000, -829.000000)" fill="url(#linearGradient-1)" fill-rule="nonzero">
            <g id="icon-1" transform="translate(287.000000, 829.000000)">
                <path d="M16.1328632,18.4584668 L2.05075641,18.4584668 C0.919924603,18.4584668 0,19.3783789 0,20.509043 L0,29.258291 C0,30.3890234 0.919992968,31.3088672 2.05075641,31.3088672 L6.92069615,31.3088672 L6.92069615,33.6328809 L5.96590521,33.6328809 C5.58832319,33.6328809 5.28231974,33.9389941 5.28231974,34.3164062 C5.28231974,34.6938184 5.58839156,35 5.96590521,35 L12.1639109,35 C12.5414929,35 12.8474964,34.6938867 12.8474964,34.3164746 C12.8474964,33.9390625 12.5414245,33.6329492 12.1639109,33.6329492 L11.2108974,33.6329492 L11.2108974,31.3089355 L16.1327949,31.3089355 C17.2636267,31.3089355 18.1835513,30.3890234 18.1835513,29.2583594 L18.1835513,20.509043 C18.1836197,19.3783789 17.2636267,18.4584668 16.1328632,18.4584668 Z M9.84379486,33.6329492 L8.28793546,33.6329492 L8.28793546,31.3089355 L9.84379486,31.3089355 L9.84379486,33.6329492 Z M16.8164487,29.258291 C16.8164487,29.6352246 16.5097616,29.9418164 16.1328632,29.9418164 L2.05075641,29.9418164 C1.67385805,29.9418164 1.36717094,29.6351563 1.36717094,29.258291 L1.36717094,27.481084 L12.3046752,27.481084 C12.6822572,27.481084 12.9882607,27.1749707 12.9882607,26.7975586 C12.9882607,26.4201465 12.6821889,26.1140332 12.3046752,26.1140332 L1.36717094,26.1140332 L1.36717094,20.509043 C1.36717094,20.1321777 1.67385805,19.8255176 2.05075641,19.8255176 L16.1327949,19.8255176 C16.5097616,19.8255176 16.8163803,20.1321777 16.8163803,20.509043 L16.8163803,29.258291 L16.8164487,29.258291 Z M15.2735787,26.3143262 C15.1464191,26.1871094 14.9707201,26.1140332 14.7903038,26.1140332 C14.6105029,26.1140332 14.4348038,26.1871094 14.3070289,26.3143262 C14.1798693,26.4414746 14.107402,26.6178418 14.107402,26.7975586 C14.107402,26.9772754 14.1798693,27.1537109 14.3070289,27.2807227 C14.4348722,27.4078711 14.6112549,27.481084 14.7903038,27.481084 C14.9707884,27.481084 15.1464875,27.4079395 15.2735787,27.2807227 C15.401422,27.1536426 15.474573,26.9772754 15.474573,26.7975586 C15.474573,26.6178418 15.401422,26.4414746 15.2735787,26.3143262 Z M32.949312,0 C34.0800754,0 35.0000684,0.919912109 35,2.05057617 L35,10.7998242 C35,11.9304883 34.0800754,12.8504004 32.9492436,12.8504004 L28.0273462,12.8504004 L28.0273462,15.1744141 L29.0072272,15.1744141 C29.3847408,15.1744141 29.6908127,15.4805273 29.6908127,15.8579395 C29.6908127,16.2353516 29.3848092,16.5414648 29.0072272,16.5414648 L22.8092215,16.5414648 C22.4317079,16.5414648 22.125636,16.2354199 22.125636,15.8579395 C22.125636,15.4805273 22.4316395,15.1744141 22.8092215,15.1744141 L23.7371449,15.1744141 L23.7371449,12.8504004 L18.8672051,12.8504004 C17.7364417,12.8504004 16.8164487,11.9305566 16.8164487,10.7998242 L16.8164487,2.05057617 C16.8164487,0.919912109 17.7363733,0 18.8672051,0 L32.949312,0 Z M26.6601752,15.1744824 L26.6601752,12.8504688 L25.1043158,12.8504688 L25.1043158,15.1744824 L26.6601752,15.1744824 Z M33.6328974,10.7998242 L33.6328291,10.7998242 L33.6328291,2.05057617 C33.6328291,1.67371094 33.3261419,1.36705078 32.9492436,1.36705078 L18.8672051,1.36705078 C18.4903068,1.36705078 18.1836197,1.67364258 18.1836197,2.05057617 L18.1836197,7.65556641 L29.1211239,7.65556641 C29.4986376,7.65556641 29.8047094,7.96167969 29.8047094,8.3390918 C29.8047094,8.71650391 29.4987059,9.02261719 29.1211239,9.02261719 L18.1836197,9.02261719 L18.1836197,10.7998242 C18.1836197,11.1766895 18.4902384,11.4833496 18.8672051,11.4833496 L32.949312,11.4833496 C33.3262103,11.4833496 33.6328974,11.1766895 33.6328974,10.7998242 Z M32.0907111,7.85613281 C32.2178023,7.98328125 32.2902697,8.15889648 32.290338,8.33936523 C32.290338,8.51908203 32.2178707,8.69544922 32.0907111,8.82259766 C31.9629362,8.94974609 31.7865535,9.02289062 31.6067525,9.02289062 C31.42702,9.02289062 31.2513209,8.94967773 31.1234776,8.82259766 C30.996318,8.69483398 30.9231671,8.51915039 30.9231671,8.33936523 C30.9231671,8.15896484 30.996318,7.98328125 31.1234776,7.85613281 C31.2512526,7.72830078 31.4269516,7.65583984 31.6067525,7.65583984 C31.7871688,7.65583984 31.9628678,7.72823242 32.0907111,7.85613281 Z M15.3806389,7.65556641 C15.7581526,7.65556641 16.0642244,7.96167969 16.0642244,8.3390918 C16.0642244,8.71650391 15.7582209,9.02261719 15.3806389,9.02261719 L11.2873299,9.02261719 C11.0613823,9.75529297 10.4821908,10.3344336 9.74945064,10.5603613 L9.74945064,16.6781836 C9.74945064,17.0555957 9.44337881,17.361709 9.06586516,17.361709 C8.68835152,17.361709 8.38227969,17.0556641 8.38227969,16.6781836 L8.38227969,10.5603613 C7.43323144,10.2678516 6.74164722,9.38280273 6.74164722,8.3390918 C6.74164722,7.05762695 7.78428768,6.01507813 9.06586516,6.01507813 C10.1095311,6.01507813 10.9946577,6.70660156 11.2873299,7.65556641 L15.3806389,7.65556641 Z M9.06586516,9.29605469 C9.59357756,9.29605469 10.0228438,8.86682617 10.0229122,8.3390918 C10.0229122,7.81135742 9.59357756,7.38212891 9.06586516,7.38212891 C8.5380844,7.38212891 8.10881816,7.81142578 8.10881816,8.3390918 C8.10881816,8.86682617 8.53815277,9.29605469 9.06586516,9.29605469 Z M26.5491498,24.5762891 C27.4981297,24.8688672 28.1897823,25.753916 28.1897823,26.7975586 C28.1897823,28.0790234 27.1471418,29.1215723 25.8655644,29.1215723 C24.8218984,29.1215723 23.9367718,28.4300488 23.6440996,27.481084 L19.550859,27.481084 C19.1733453,27.481084 18.8672735,27.1749707 18.8672735,26.7975586 C18.8672735,26.4201465 19.1732769,26.1140332 19.550859,26.1140332 L23.6440996,26.1140332 C23.8700472,25.3813574 24.4492387,24.8022168 25.1819789,24.5762891 L25.1819789,18.4584668 C25.1819789,18.0810547 25.4879823,17.7749414 25.8655644,17.7749414 C26.243078,17.7749414 26.5491498,18.0809863 26.5491498,18.4584668 L26.5491498,24.5762891 Z M25.8655644,27.7545215 C26.3932768,27.7545215 26.8226114,27.325293 26.8226114,26.7975586 C26.8226114,26.2698242 26.3932768,25.8405957 25.8655644,25.8405957 C25.3377836,25.8405957 24.9085174,26.2698242 24.9085174,26.7975586 C24.9085174,27.325293 25.337852,27.7545215 25.8655644,27.7545215 Z" id="network-1"></path>
            </g>
        </g>
    </g>
</svg>