<?xml version="1.0" encoding="UTF-8"?>
<svg width="13px" height="13px" viewBox="0 0 13 13" version="1.1" xmlns="http://www.w3.org/2000/svg" xmlns:xlink="http://www.w3.org/1999/xlink">
    <!-- Generator: sketchtool 50.2 (55047) - http://www.bohemiancoding.com/sketch -->
    <title>8CB238B8-0DF7-4A24-A3F3-D458A8D71A4E</title>
    <desc>Created with sketchtool.</desc>
    <defs>
        <linearGradient x1="-9.61837369%" y1="0%" x2="115.218014%" y2="219.587054%" id="linearGradient-1">
            <stop stop-color="#8239CE" offset="0%"></stop>
            <stop stop-color="#BE83FF" offset="100%"></stop>
        </linearGradient>
    </defs>
    <g id="Page-1" stroke="none" stroke-width="1" fill="none" fill-rule="evenodd">
        <g id="Home-01" transform="translate(-896.000000, -1961.000000)" fill="url(#linearGradient-1)" fill-rule="nonzero">
            <g id="Group-6" transform="translate(896.000000, 1957.000000)">
                <g id="phone-receiver" transform="translate(0.000000, 4.000000)">
                    <path d="M12.9938036,10.2595161 C13.0213504,10.4706965 12.9570369,10.654312 12.8011329,10.8103626 L10.9707613,12.6280886 C10.8881881,12.7198964 10.7804067,12.7980004 10.6473722,12.8621984 C10.5143377,12.9264863 10.3836193,12.9677998 10.2552172,12.9861388 C10.2460424,12.9861388 10.2184505,12.9885015 10.1725541,12.9930919 C10.1267476,12.9976598 10.0671114,13 9.99371303,13 C9.81934695,13 9.53719952,12.9701625 9.14727072,12.9104649 C8.75734193,12.8507674 8.28027507,12.7038525 7.71607015,12.4697877 C7.1517303,12.235678 6.51181083,11.8844683 5.7961993,11.4162938 C5.08058777,10.9481418 4.31905728,10.3054425 3.51167532,9.48833103 C2.86943966,8.85485755 2.33730154,8.2489264 1.91526097,7.67056007 C1.49322039,7.09214874 1.15375297,6.55736859 0.896858709,6.06619713 C0.639941959,5.57502566 0.447271262,5.12975807 0.31882413,4.73039435 C0.190376999,4.33103064 0.103216445,3.98675157 0.0573424694,3.69755716 C0.0114684939,3.40836274 -0.00688109633,3.18113856 0.00229369878,3.01588461 C0.0114684939,2.85063066 0.0160558914,2.75882291 0.0160558914,2.74046136 C0.0344054817,2.61193051 0.0756920596,2.48110446 0.139915625,2.34798322 C0.204139191,2.21486199 0.28212495,2.10698788 0.373872901,2.0243609 L2.20424452,0.192796276 C2.33269166,0.0642654255 2.47948838,0 2.64463469,0 C2.76390703,0 2.86941717,0.0344279065 2.96116512,0.10328372 C3.05291307,0.172139533 3.13089883,0.257061702 3.1951224,0.358050228 L4.66767701,3.15359624 C4.75025017,3.30048864 4.77318716,3.4611522 4.73648797,3.63558693 C4.69978879,3.81002165 4.62180304,3.95691405 4.5025307,4.07626413 L3.82818326,4.7510511 C3.80983367,4.76941265 3.79377778,4.79925017 3.78001558,4.84056366 C3.76625339,4.88187714 3.7593723,4.91630505 3.7593723,4.94384737 C3.79607148,5.13664365 3.87864463,5.35698225 4.00709176,5.60486318 C4.1171893,5.82520178 4.28692301,6.09373945 4.51629289,6.41047619 C4.74566277,6.72721293 5.071368,7.09212624 5.49340857,7.50526112 C5.90627435,7.92762177 6.27326616,8.25578948 6.59438398,8.48994425 C6.91543435,8.723964 7.18388706,8.89617104 7.39949474,9.00634034 C7.61510243,9.11650964 7.78024874,9.18307026 7.89491119,9.2059547 L8.06689362,9.2404051 C8.08524321,9.2404051 8.11512876,9.23349702 8.15637036,9.21974836 C8.19765694,9.2059547 8.22747503,9.18991084 8.2458471,9.17152679 L9.0302696,8.37279936 C9.19550586,8.22592946 9.38808661,8.15248326 9.60830418,8.15248326 C9.76432067,8.15248326 9.88811294,8.18000308 9.97986089,8.23511023 L9.9936006,8.23511023 L12.6496813,9.80502277 C12.8424195,9.92446285 12.9570819,10.0759006 12.9938036,10.2595161 Z" id="Shape"></path>
                </g>
            </g>
        </g>
    </g>
</svg>