<?xml version="1.0" encoding="UTF-8"?>
<svg width="32px" height="36px" viewBox="0 0 32 36" version="1.1" xmlns="http://www.w3.org/2000/svg" xmlns:xlink="http://www.w3.org/1999/xlink">
    <!-- Generator: sketchtool 50.2 (55047) - http://www.bohemiancoding.com/sketch -->
    <title>348A71FC-F23C-4CFE-B32B-8D466EF4BABB</title>
    <desc>Created with sketchtool.</desc>
    <defs>
        <linearGradient x1="-9.61837369%" y1="0%" x2="111.798881%" y2="213.572804%" id="linearGradient-1">
            <stop stop-color="#9241E6" offset="0%"></stop>
            <stop stop-color="#AD72ED" offset="100%"></stop>
        </linearGradient>
    </defs>
    <g id="Page-1" stroke="none" stroke-width="1" fill="none" fill-rule="evenodd">
        <g id="Home-01" transform="translate(-704.000000, -829.000000)" fill="url(#linearGradient-1)" fill-rule="nonzero">
            <g id="icon-2" transform="translate(704.000000, 829.000000)">
                <path d="M31.9977641,17.0940754 C31.9976243,16.7058797 31.6848113,16.391231 31.2990528,16.391231 L29.4430659,16.391231 C29.1199119,15.1295422 28.6257134,13.9283223 27.9685754,12.80754 L29.2811046,11.4867184 C29.5539514,11.2121478 29.5539514,10.7669286 29.2811046,10.4922877 L25.3475695,6.53390106 C25.0747228,6.25933048 24.6322988,6.25933048 24.3593821,6.53390106 L23.9637019,6.93208114 C23.9266004,4.11957841 22.409209,1.50683368 19.9831436,0.094605745 C19.7669623,-0.0313240648 19.5004738,-0.0313943774 19.2842227,0.094113557 C19.0679016,0.219691804 18.9345875,0.451863905 18.9345875,0.703231336 L18.9345875,6.2297992 L15.9999301,7.93487899 L13.0652727,6.2297992 L13.0652727,0.703161024 C13.0652727,0.451863905 12.9319586,0.219691804 12.7156376,0.0940432444 C12.4993166,-0.0315350026 12.2328281,-0.0313240648 12.0167167,0.0945354324 C9.59386533,1.50500555 8.0773823,4.11261746 8.03636795,6.92083113 L7.64508961,6.52708074 C7.37224285,6.25251016 6.92981884,6.25251016 6.65690221,6.52708074 L2.72336713,10.4854674 C2.45052036,10.760038 2.45052036,11.2052572 2.72336713,11.4798981 L4.04253409,12.807329 C3.38546597,13.9281114 2.89112772,15.1294016 2.56797374,16.3911606 L0.700737625,16.3911606 C0.314979109,16.3911606 0.00216605479,16.7058094 0.00202631253,17.0940051 L4.97202701e-08,22.6920105 C-6.98214109e-05,22.8785498 0.0735044798,23.0574249 0.204582722,23.1893313 C0.335591093,23.321308 0.513343251,23.3954174 0.698711362,23.3954174 L2.56783399,23.3954174 C2.89098797,24.6571062 3.38518649,25.8584667 4.04232448,26.9793194 L2.71868577,28.3113207 C2.445839,28.5858912 2.445839,29.0311104 2.71868577,29.3057513 L6.65222084,33.264138 C6.92506761,33.5386382 7.36749161,33.5386382 7.64040825,33.264138 L8.96404696,31.9321367 C10.0777928,32.5933561 11.2716808,33.0908175 12.5255183,33.4160131 L12.5255183,35.2968743 C12.5255183,35.4833432 12.5991624,35.6622887 12.7302407,35.7941248 C12.861249,35.9259609 13.0389313,36 13.2242296,36 C13.2242994,36 13.2243693,36 13.2245091,36 L18.787369,35.9979609 C19.1731276,35.9978203 19.4858009,35.6830309 19.4858009,35.2948353 L19.4858009,33.4158725 C20.7395684,33.0906769 21.9333866,32.5933561 23.0472023,31.931996 L24.3662994,33.2594973 C24.4973078,33.3913334 24.6750599,33.4654429 24.8603581,33.4654429 C24.860428,33.4654429 24.8604979,33.4654429 24.8605678,33.4654429 C25.0459359,33.4653725 25.223688,33.3911928 25.3546964,33.2592161 L29.2860655,29.2986497 C29.5586328,29.0240088 29.558493,28.5790709 29.285786,28.3045003 L27.968785,26.9791084 C28.6258532,25.8583261 29.1201215,24.6571062 29.4432755,23.3953471 L31.3012886,23.3953471 C31.4866567,23.3953471 31.6644089,23.3212377 31.7954173,23.189261 C31.9264256,23.0573546 32.0000698,22.8784794 32,22.6919402 L31.9977641,17.0940754 Z M11.6677803,2.07059985 L11.6677803,6.63564335 C11.6677803,6.88687016 11.8009546,7.11897194 12.0171359,7.24455019 L15.6505745,9.35554443 C15.8667558,9.48112268 16.1331045,9.48112268 16.3492858,9.35554443 L19.9827244,7.24455019 C20.1989056,7.11897194 20.33208,6.88687016 20.33208,6.63564335 L20.33208,2.07059985 C21.7345334,3.31372606 22.5680261,5.12307938 22.5680261,7.03740936 C22.5680261,10.681991 19.6216303,13.6470017 15.9999301,13.6470017 C12.3782299,13.6470017 9.43183418,10.681991 9.43183418,7.03740936 C9.43183418,5.12307938 10.2653269,3.31365575 11.6677803,2.07059985 Z M28.8903853,21.9892364 L28.8903853,21.9891661 C28.5610826,21.9891661 28.2764276,22.2205647 28.2072552,22.5445651 C27.8902499,24.0294259 27.3148611,25.4279429 26.4969497,26.7013738 C26.3181494,26.9796709 26.356858,27.3458588 26.5896686,27.5802106 L27.8037494,28.8019618 L24.8600787,31.767535 L23.6444607,30.5442369 C23.4115802,30.3100257 23.0477613,30.2709319 22.7710716,30.4509321 C21.5056355,31.2738704 20.1158987,31.853035 18.6402204,32.1721135 C18.3182543,32.2417229 18.0883084,32.5281763 18.0883084,32.8595594 L18.0883084,34.5919205 L13.9229409,34.5933971 L13.9229409,32.8596298 C13.9229409,32.5282466 13.692995,32.2417932 13.3710288,32.1722541 C11.8953505,31.8531757 10.5056137,31.2740813 9.24017767,30.4510024 C8.96355786,30.2710726 8.59966901,30.3100257 8.36678853,30.5443072 L7.14634948,31.7724568 L4.20086207,28.8085711 L5.42130112,27.5804215 C5.6541816,27.3460697 5.69282034,26.9798819 5.51402011,26.7015847 C4.69624839,25.4281538 4.12078976,24.0295665 3.80364469,22.5446354 C3.73447227,22.2206351 3.44988715,21.9892364 3.12051464,21.9892364 L1.39777203,21.9892364 L1.39923932,17.7975526 L3.12072425,17.7975526 C3.4500269,17.7975526 3.73468188,17.566154 3.8038543,17.2421537 C4.1209295,15.7571522 4.69631826,14.3586352 5.51422973,13.0852746 C5.69302995,12.8069775 5.65432134,12.4407193 5.42151073,12.2063675 L4.20554344,10.9827882 L7.1508911,8.01883219 L8.3308049,9.20620053 C8.86091717,11.1021789 10.0683602,12.7154305 11.6724616,13.7640721 L11.6724616,27.2915072 C11.6539458,27.2805384 11.6352203,27.2702728 11.6167743,27.2591634 C11.2860743,27.0591944 10.8567162,27.1670539 10.6580725,27.5000542 C10.4594289,27.8329139 10.5666112,28.2649144 10.897451,28.464813 C12.4835956,29.4231733 14.2466538,29.8906113 15.9977641,29.8905409 C18.5610564,29.8904706 21.0984964,28.8887978 23.0159,26.9593506 C24.7144672,25.2499817 25.7385684,22.9818389 25.8995515,20.5725788 C26.0589275,18.1867327 25.3658059,15.8240898 23.9477713,13.9199551 C23.7162882,13.6093142 23.2784757,13.5461735 22.9695755,13.7789784 C22.6608149,14.0118536 22.5980707,14.4525728 22.8294838,14.7633544 C25.3521112,18.1508733 25.0074369,22.9665108 22.0277825,25.9649903 C21.5112252,26.4848111 20.9422646,26.9262334 20.3367614,27.287429 L20.3367614,19.2427572 C20.3367614,18.8544912 20.0239483,18.5396315 19.6380501,18.5396315 C19.2521518,18.5396315 18.9393387,18.8544912 18.9393387,19.2427572 L18.9393387,27.9553984 C17.9953099,28.3052035 16.9988777,28.4836568 15.9976244,28.4835864 C15.0109741,28.4835161 14.0198521,28.3094925 13.070024,27.9582109 L13.070024,14.491315 C13.9773705,14.8537763 14.966047,15.0532531 16.0000699,15.0532531 C19.6401462,15.0532531 22.7176202,12.5834538 23.6650028,9.2216693 L24.8537204,8.02544157 L27.7990681,10.9893976 L26.5897385,12.2062972 C26.356858,12.440649 26.3182193,12.8068368 26.4970195,13.0852043 C27.3147912,14.3585649 27.8902499,15.7570819 28.2073251,17.242013 C28.2764975,17.5660133 28.5610826,17.797412 28.8904551,17.797412 L30.6007607,17.797412 L30.6022978,21.9890958 L28.8903853,21.9890958 L28.8903853,21.9892364 Z M9.01351572,13.7981034 C8.70412635,13.566072 8.26631384,13.6304783 8.03573911,13.9418223 C5.95944857,16.7460282 5.50004589,20.4986803 6.83689024,23.7353787 C6.94854431,24.0058008 7.20846491,24.1688557 7.48235975,24.1688557 C7.57172493,24.1688557 7.66262727,24.1514885 7.75024567,24.1147853 C8.10658844,23.965793 8.27539709,23.5543238 8.12727029,23.1957297 C6.97858889,20.4146567 7.37294156,17.1907552 9.15626244,14.7821278 C9.38697692,14.4707135 9.32297496,14.0302052 9.01351572,13.7981034 Z M9.32220638,25.3086927 C9.32178715,25.3082709 9.32136792,25.307849 9.3209487,25.3074271 C9.0481718,25.0331378 8.60407089,25.0308878 8.33108438,25.3051771 C8.05809787,25.5794664 8.05970491,26.0263731 8.33213245,26.3012953 C8.46907986,26.4394595 8.64948713,26.5087877 8.82975464,26.5087877 C9.00792603,26.5087877 9.18609741,26.4410063 9.32192689,26.3048109 C9.59526276,26.0308731 9.59421469,25.5839664 9.32220638,25.3086927 Z M20.1322486,15.838996 C20.0022883,15.7082147 19.8220207,15.6329802 19.6382597,15.6329802 C19.4537999,15.6329802 19.2735324,15.7082147 19.1442708,15.838996 C19.0136118,15.9697774 18.9395484,16.1511838 18.9395484,16.3361059 C18.9395484,16.5217311 19.0136118,16.7024344 19.1442708,16.8332158 C19.2742311,16.9647003 19.4537999,17.0392316 19.6382597,17.0392316 C19.8220207,17.0392316 20.0022883,16.9647003 20.1322486,16.8332158 C20.2622089,16.7024344 20.336971,16.5217311 20.336971,16.3361059 C20.336971,16.1511838 20.2622089,15.9697774 20.1322486,15.838996 Z" id="settings"></path>
            </g>
        </g>
    </g>
</svg>