<?xml version="1.0" encoding="UTF-8"?>
<svg width="32px" height="32px" viewBox="0 0 32 32" version="1.1" xmlns="http://www.w3.org/2000/svg" xmlns:xlink="http://www.w3.org/1999/xlink">
    <!-- Generator: sketchtool 50.2 (55047) - http://www.bohemiancoding.com/sketch -->
    <title>7FAA5E60-3CE3-4A50-9B01-8BD5B7645A42</title>
    <desc>Created with sketchtool.</desc>
    <defs>
        <linearGradient x1="-9.61837369%" y1="0%" x2="111.798881%" y2="213.572804%" id="linearGradient-1">
            <stop stop-color="#9241E6" offset="0%"></stop>
            <stop stop-color="#AD72ED" offset="100%"></stop>
        </linearGradient>
    </defs>
    <g id="Page-1" stroke="none" stroke-width="1" fill="none" fill-rule="evenodd">
        <g id="Home-01" transform="translate(-1096.000000, -829.000000)" fill="url(#linearGradient-1)" fill-rule="nonzero">
            <g id="icon-3" transform="translate(1096.000000, 829.000000)">
                <path d="M16,7.6875 C11.4165,7.6875 7.6875,11.4165 7.6875,16 C7.6875,20.5835 11.4165,24.3125 16,24.3125 C20.5835,24.3125 24.3125,20.5835 24.3125,16 C24.3125,11.4165 20.5835,7.6875 16,7.6875 Z M20.375,21.54025 C19.171125,22.4929375 17.650875,23.0625 16,23.0625 C14.349125,23.0625 12.828875,22.4929375 11.625,21.54025 L11.625,20.506625 C11.625,19.7565 12.1601875,19.11225 12.897625,18.9746875 L13.833125,18.8001875 C14.395375,19.34225 15.1591875,19.6766875 16,19.6766875 C16.8408125,19.6766875 17.604625,19.34225 18.166875,18.80025 L19.102375,18.97475 C19.8398125,19.11225 20.375,19.7565 20.375,20.506625 L20.375,21.54025 Z M14.125,16.55175 L14.125,15.55175 C14.125,14.517875 14.966125,13.67675 16,13.67675 C17.033875,13.67675 17.875,14.517875 17.875,15.55175 L17.875,16.55175 C17.875,17.585625 17.033875,18.42675 16,18.42675 C14.966125,18.42675 14.125,17.585625 14.125,16.55175 Z M21.6153125,20.278 C21.513625,19.02575 20.5848125,17.9796875 19.3315,17.745875 L18.9178125,17.6686875 C19.0511875,17.3215625 19.125,16.9451875 19.125,16.5516875 L19.125,15.5516875 C19.125,13.8285625 17.723125,12.4266875 16,12.4266875 C14.276875,12.4266875 12.875,13.8285625 12.875,15.5516875 L12.875,16.5516875 C12.875,16.9451875 12.9488125,17.3215625 13.0821875,17.6686875 L12.6685,17.745875 C11.4151875,17.979625 10.486375,19.02575 10.3846875,20.278 C9.4773125,19.0899375 8.9375,17.6069375 8.9375,16 C8.9375,12.1056875 12.1056875,8.9375 16,8.9375 C19.8943125,8.9375 23.0625,12.1056875 23.0625,16 C23.0625,17.6069375 22.5226875,19.0899375 21.6153125,20.278 Z M25.3749375,28.202 C25.5741875,28.4838125 25.5071875,28.873875 25.225375,29.073125 C22.5169375,30.9879375 19.326875,32 16,32 C14.1595,32 12.3548125,31.6898125 10.636,31.0780625 C10.3108125,30.9623125 10.141,30.604875 10.25675,30.2796875 C10.3725,29.9544375 10.729875,29.784625 11.055125,29.9004375 C12.639,30.4641875 14.30275,30.75 16,30.75 C19.067,30.75 22.0075625,29.8171875 24.50375,28.0524375 C24.785625,27.8530625 25.175625,27.9201875 25.3749375,28.202 Z M21.9874375,1.1586875 C22.3075,1.2879375 22.4621875,1.6521875 22.332875,1.97225 C22.203625,2.292375 21.839375,2.447125 21.5193125,2.3176875 C19.7654375,1.60925 17.9084375,1.25 16,1.25 C12.8541875,1.25 9.851875,2.227125 7.317625,4.0758125 C7.2065,4.156875 7.0775625,4.1959375 6.9498125,4.1959375 C6.7569375,4.1959375 6.56675,4.1069375 6.4443125,3.93925 C6.2409375,3.660375 6.302125,3.269375 6.5809375,3.066 C9.3305625,1.0601875 12.5875625,0 16,0 C18.069625,0 20.084125,0.3898125 21.9874375,1.1586875 Z M28.8413125,6.4561875 C30.9091875,9.2290625 32,12.51725 32,16 C32,18.0821875 31.6055625,20.108 30.8276875,22.0211875 C30.729,22.2638125 30.49525,22.4109375 30.2485,22.4109375 C30.170125,22.4109375 30.0904375,22.3960625 30.0133125,22.36475 C29.6935625,22.23475 29.53975,21.870125 29.66975,21.550375 C30.3865625,19.7874375 30.75,17.92 30.75,16 C30.75,12.8194375 29.7635,9.814875 27.8920625,7.274125 C27.577375,7.4240625 27.2306875,7.50325 26.87175,7.50325 C26.237375,7.50325 25.6409375,7.25625 25.192375,6.807625 C24.7438125,6.3590625 24.49675,5.762625 24.49675,5.12825 C24.49675,4.493875 24.74375,3.8974375 25.192375,3.448875 C25.6409375,3.0003125 26.237375,2.75325 26.87175,2.75325 C27.506125,2.75325 28.1025625,3.00025 28.551125,3.448875 C28.9996875,3.8974375 29.24675,4.493875 29.24675,5.12825 C29.24675,5.608625 29.104875,6.0670625 28.8413125,6.4561875 Z M27.66725,5.9236875 C27.87975,5.7111875 27.99675,5.4286875 27.99675,5.1281875 C27.99675,4.8276875 27.87975,4.545125 27.66725,4.3326875 C27.45475,4.1201875 27.17225,4.0031875 26.87175,4.0031875 C26.57125,4.0031875 26.2886875,4.1201875 26.07625,4.3326875 C25.86375,4.5451875 25.74675,4.8276875 25.74675,5.1281875 C25.74675,5.4286875 25.86375,5.71125 26.07625,5.9236875 C26.28875,6.13625 26.57125,6.2531875 26.87175,6.2531875 C27.17225,6.2531875 27.4548125,6.1361875 27.66725,5.9236875 Z M16,24.942875 C17.3095625,24.942875 18.375,26.0083125 18.375,27.317875 C18.375,28.6274375 17.3095625,29.692875 16,29.692875 C14.8225625,29.692875 13.843,28.8314375 13.657125,27.7058125 C10.1179375,26.999375 7.05025,24.696 5.3835,21.4631875 C5.225375,21.156375 5.3458125,20.7794375 5.652625,20.62125 C5.9595625,20.4630625 6.336375,20.5835625 6.4945625,20.890375 C7.9691875,23.750375 10.6674375,25.798375 13.787125,26.4570625 C14.1326875,25.5719375 14.994,24.942875 16,24.942875 Z M16,28.442875 C16.6203125,28.442875 17.125,27.9381875 17.125,27.317875 C17.125,26.6975625 16.6203125,26.192875 16,26.192875 C15.3796875,26.192875 14.875,26.6975625 14.875,27.317875 C14.875,27.9381875 15.3796875,28.442875 16,28.442875 Z M6.4540625,25.545875 C7.185125,26.277 7.185125,27.4665 6.4540625,28.1975625 C6.0885625,28.5630625 5.608375,28.7458125 5.12825,28.7458125 C4.648125,28.7458125 4.168,28.5630625 3.8024375,28.1975625 C3.1995,27.594625 3.094375,26.6800625 3.4859375,25.9678125 C3.48225,25.9634375 3.478125,25.9595625 3.4745,25.9550625 C1.2014375,23.0988125 0,19.656375 0,16 C0,14.3024375 0.26475,12.6308125 0.787,11.0315625 C0.894125,10.7034375 1.247,10.5241875 1.575125,10.6314375 C1.90325,10.7385625 2.082375,11.0914375 1.97525,11.4195625 C1.494,12.8933125 1.25,14.4344375 1.25,16 C1.25,19.35325 2.346375,22.510875 4.4205,25.1355 C5.098125,24.860375 5.90525,24.9971875 6.4540625,25.545875 Z M5.5701875,27.3136875 C5.68825,27.195625 5.75325,27.0386875 5.75325,26.87175 C5.75325,26.7048125 5.68825,26.547875 5.5701875,26.4298125 C5.452125,26.31175 5.2951875,26.24675 5.12825,26.24675 C4.9613125,26.24675 4.804375,26.31175 4.6863125,26.4298125 C4.56825,26.547875 4.50325,26.7048125 4.50325,26.87175 C4.50325,27.0386875 4.56825,27.195625 4.6863125,27.3136875 C4.804375,27.43175 4.9613125,27.49675 5.12825,27.49675 C5.2951875,27.49675 5.452125,27.43175 5.5701875,27.3136875 Z M27.27425,17.1259375 C27.615375,17.1786875 27.849125,17.498 27.79625,17.8391875 C27.5148125,19.6585 26.8000625,21.41475 25.72925,22.918125 C24.678,24.3940625 23.2824375,25.63075 21.6933125,26.4945625 C21.5985,26.5460625 21.4961875,26.5705625 21.395375,26.5705625 C21.17375,26.5705625 20.9590625,26.452375 20.84575,26.2439375 C20.6809375,25.940625 20.793125,25.5611875 21.096375,25.3963125 C24.012875,23.8109375 26.05575,20.9144375 26.5610625,17.6480625 C26.6138125,17.3069375 26.9331875,17.073125 27.27425,17.1259375 Z M11.112125,5.776125 C11.27825,6.0786875 11.1675625,6.458625 10.865,6.62475 C7.9705,8.2136875 5.942125,11.1019375 5.439125,14.3508125 C5.3913125,14.6595625 5.1251875,14.8803125 4.82225,14.8803125 C4.7904375,14.8803125 4.7583125,14.877875 4.725875,14.872875 C4.38475,14.8200625 4.1510625,14.5006875 4.2038125,14.159625 C4.4841875,12.3488125 5.194125,10.59975 6.256875,9.1013125 C7.3000625,7.6305 8.6855,6.3951875 10.2635,5.529 C10.566,5.3629375 10.946,5.4735 11.112125,5.776125 Z M26.30125,9.96475 C26.476,10.2624375 26.376375,10.6454375 26.0786875,10.8201875 C25.9793125,10.8785 25.870375,10.90625 25.762875,10.90625 C25.5484375,10.90625 25.33975,10.7958125 25.2233125,10.5975 C23.5993125,7.831125 20.866,5.958625 17.7168125,5.4505625 C17.4263125,6.11075 16.76625,6.573 16,6.573 C14.966125,6.573 14.125,5.731875 14.125,4.698 C14.125,3.664125 14.966125,2.823 16,2.823 C16.861625,2.823 17.5889375,3.4074375 17.8075,4.2005 C17.8185625,4.201625 17.829625,4.2021875 17.8408125,4.2039375 C21.3910625,4.75375 24.47475,6.8534375 26.30125,9.96475 Z M16,5.323 C16.344625,5.323 16.625,5.042625 16.625,4.698 C16.625,4.353375 16.344625,4.073 16,4.073 C15.655375,4.073 15.375,4.353375 15.375,4.698 C15.375,5.042625 15.655375,5.323 16,5.323 Z M5.57,4.68625 C5.68625,4.8025 5.753125,4.96375 5.753125,5.128125 C5.753125,5.2925 5.68625,5.45375 5.57,5.57 C5.45375,5.68625 5.293125,5.753125 5.128125,5.753125 C4.96375,5.753125 4.8025,5.68625 4.68625,5.57 C4.57,5.45375 4.503125,5.2925 4.503125,5.128125 C4.503125,4.96375 4.57,4.8025 4.68625,4.68625 C4.8025,4.57 4.96375,4.503125 5.128125,4.503125 C5.2925,4.503125 5.45375,4.57 5.57,4.68625 Z M27.31375,26.43 C27.43,26.54625 27.496875,26.7075 27.496875,26.871875 C27.496875,27.03625 27.43,27.1975 27.31375,27.31375 C27.1975,27.43 27.03625,27.496875 26.871875,27.496875 C26.7075,27.496875 26.54625,27.43 26.43,27.31375 C26.31375,27.1975 26.246875,27.03625 26.246875,26.871875 C26.246875,26.7075 26.31375,26.54625 26.43,26.43 C26.54625,26.31375 26.7075,26.246875 26.871875,26.246875 C27.03625,26.246875 27.1975,26.31375 27.31375,26.43 Z" id="user-1"></path>
            </g>
        </g>
    </g>
</svg>