<?xml version="1.0" encoding="utf-8"?>
<!-- Generator: Adobe Illustrator 21.0.2, SVG Export Plug-In . SVG Version: 6.00 Build 0)  -->
<svg version="1.1" id="Layer_1" xmlns="http://www.w3.org/2000/svg" xmlns:xlink="http://www.w3.org/1999/xlink" x="0px" y="0px"
	 viewBox="0 0 20 20" style="enable-background:new 0 0 20 20;" xml:space="preserve">
<style type="text/css">
	.st0{fill:#69C6FF;}
</style>
<g>
	<g>
		<path class="st0" d="M10,2.5c0.3,0.8,0.6,1.6,1,2.3c0.7,1.2,1.4,2.4,2.2,3.7c0.6,1,1.1,1.9,1.4,3c0.7,2.7-0.9,5.3-3.6,5.9
			C8,18,5.5,15.9,5.3,13.3c-0.1-0.9,0.1-1.7,0.4-2.6C6.2,9.4,7,8.3,7.7,7.2c0.9-1.3,1.7-2.7,2.1-4.3C9.9,2.7,9.9,2.6,10,2.5z
			 M9.4,5.6C9.4,5.5,9.4,5.5,9.4,5.6C9.3,5.6,9.2,5.7,9.2,5.8C8.5,7,7.7,8.2,7,9.5c-0.5,0.8-0.9,1.6-1.1,2.5
			c-0.2,0.8-0.1,1.5,0.3,2.2c0.2,0.3,0.6,0.5,0.9,0.4c0.1,0,0.3-0.1,0.3-0.2c0-0.2,0-0.5,0-0.8c-0.1-0.4-0.2-0.8-0.2-1.2
			c-0.1-0.9,0.3-1.8,0.6-2.6c0.4-1,0.8-2.1,1.2-3.1C9.1,6.2,9.3,5.9,9.4,5.6z M8.3,16.5c1.2,0.6,2.4,0.5,3.6,0
			c1.4-0.7,2.2-1.9,2.3-3.4C13.2,15.8,11.2,16.9,8.3,16.5z"/>
	</g>
</g>
</svg>
