<?xml version="1.0" encoding="utf-8"?>
<!-- Generator: Adobe Illustrator 21.0.2, SVG Export Plug-In . SVG Version: 6.00 Build 0)  -->
<svg version="1.1" id="Layer_1" xmlns="http://www.w3.org/2000/svg" xmlns:xlink="http://www.w3.org/1999/xlink" x="0px" y="0px"
	 viewBox="0 0 160 160" style="enable-background:new 0 0 160 160;" xml:space="preserve">
<style type="text/css">
	.st0{fill:#69C6FF;}
</style>
<g>
	<g>
		<path class="st0" d="M76.5,28.7c0-2.3,0-4.4,0-6.5c0-3.2,0.8-4.1,4-4.5c2.7-0.3,4.8-2.6,4.9-5.4c0.1-2.5-1.8-4.7-4.5-5.2
			c-2.5-0.4-5,1-5.7,3.5c-0.2,0.6-0.2,1.2-0.3,1.8c-0.3,2-1.8,3.2-3.7,3.1C69.3,15.4,68,14,68,12c0.1-4.7,2.3-8.2,6.4-10.4
			c4.4-2.3,8.7-1.9,12.8,0.9c7.5,5.2,6.7,16.5-1.5,20.7c-2,1-2.6,2.1-2.3,4c0.1,0.4,0.1,0.9,0.1,1.5c3.3,0.1,6.5,0.3,9.8,0.4
			c6.6,0.2,13.2,0.8,19.6,2.6c15.1,4.4,23.9,14.5,26.6,29.7c1.4,8.1,2.3,16.4,2.6,24.6c0.8,17.8,1.2,35.6,1.8,53.5
			c0.1,3.7-1.4,6.2-4.2,8.1c-3.9,2.7-8.3,4.4-12.8,5.8c-10.6,3.3-21.5,5.1-32.5,6c-19.6,1.6-38.9-0.3-57.8-5.8
			c-4.2-1.2-8.2-3-12.3-4.6c-1.6-0.7-3.1-1.8-4.5-2.8c-2.5-1.8-3.9-4.2-3.8-7.4c0.3-8.7,0.4-17.4,0.8-26.1c0.4-8.8,1-17.6,1.9-26.4
			s1.6-17.7,3.3-26.4c3.1-15.6,13-25,28.4-28.8c7.9-2,16.1-2,24.2-2.3C75.1,28.7,75.6,28.7,76.5,28.7z M138.7,118.3
			c-0.1,0-0.2,0-0.4,0c-0.5-10.2-0.9-20.4-1.7-30.6c-0.7-9.2-1.5-18.5-3.1-27.6c-2.1-11.9-9.3-19.9-21.1-23
			c-4.9-1.3-10-2.1-15.1-2.3c-10.7-0.3-21.4-0.2-32.2-0.1c-6.2,0.1-12.3,1-18.2,2.9c-10.8,3.5-18.1,10.5-20.5,21.8
			c-1.1,5.2-1.7,10.5-2.2,15.8c-0.9,10.3-1.6,20.7-2.2,31.1c-0.5,10.1-0.6,20.2-1,30.3c-0.1,1.7,0.5,2.8,1.8,3.9
			c4.3,3.6,9.1,6.2,14.4,7.9c11.2,3.6,22.8,5.2,34.5,5.9c16.8,1,33.4-0.8,49.6-5.3c5.5-1.5,10.8-3.4,15.7-6.3
			c0.9-0.5,1.6-1.1,1.6-2.4C138.6,133,138.7,125.6,138.7,118.3z"/>
		<path class="st0" d="M48.1,92.7c-0.5,4.3-0.9,8.5-1.5,12.8c-1,8.1-2,16.2-3.1,24.3c-0.3,2.6-1.3,3.5-3.9,3.8
			c-4,0.4-7.7-0.6-11.2-2.6c-1-0.6-1.3-1.5-1.2-2.7c0.7-7.8,1.2-15.6,2.2-23.4c1.6-12.2,3.4-24.4,5.3-36.6c0.7-4.3,1.7-8.5,3.1-12.6
			c3-8.6,9.6-13.2,18.3-14.9c2.9-0.6,5.8-0.7,8.7-1.2c1.2-0.2,1.6,0.1,1.8,1.4c3.5,18.5,7,36.9,10.6,55.4c0.8,4.2,1.6,8.5,2.8,12.8
			c0.2-0.8,0.4-1.6,0.6-2.4c4.2-22,8.4-43.9,12.6-65.9c0.2-1.1,0.5-1.6,1.7-1.4c4.2,0.7,8.5,1,12.6,2.2c9.2,2.7,14.2,9.4,16.1,18.5
			c2,9.8,3.6,19.6,5,29.5c1.5,10.3,2.5,20.7,3.6,31.1c0.3,2.5,0.4,5.1,0.4,7.6c0,0.7-0.5,1.8-1.1,2.2c-3.5,2.2-7.3,3.2-11.4,2.7
			c-2.5-0.3-3.3-1.2-3.7-3.7c-0.9-6.2-1.7-12.3-2.4-18.5c-0.7-6.1-1.4-12.2-2.4-18.3c0.2,2.9,0.3,5.8,0.5,8.7
			c0.6,11.3,1.3,22.6,1.9,33.9c0.1,1.8,0.1,3.7,0.3,5.5c0.2,2.1-0.7,3.7-2.5,4.4c-2.7,1-5.4,2.1-8.2,2.5
			c-16.1,2.3-32.2,2.4-48.3-0.3c-2.4-0.4-4.8-1.4-7.1-2.3c-1.7-0.7-2.5-2.1-2.4-4.1c0.8-13.4,1.5-26.8,2.2-40.3
			c0.2-2.8,0.3-5.5,0.5-8.3C48.3,92.7,48.2,92.7,48.1,92.7z M93.3,77.3c6.3,0,12.4,0,18.6,0c0-1.8,0-3.5,0-5.2c-6.3,0-12.4,0-18.6,0
			C93.3,73.9,93.3,75.6,93.3,77.3z"/>
		<path class="st0" d="M79.6,50.5c-2.1-2.3-4.1-4.4-6.3-6.8c2.2-1.6,4.4-3.1,6.6-4.7c2.1,1.5,4.3,3.1,6.6,4.7
			c-2.1,2.3-4.2,4.5-6.3,6.8c1.8,2,3.7,3.8,5.3,5.8c0.5,0.6,0.9,1.6,0.7,2.3c-1.9,10.1-4,20.1-6,30.2c0,0.2-0.2,0.4-0.4,0.9
			C78.5,83.2,77.2,77.1,76,71c-0.8-4.1-1.6-8.3-2.5-12.4c-0.2-1,0-1.6,0.7-2.3C76,54.4,77.7,52.5,79.6,50.5z"/>
	</g>
</g>
</svg>
