<?xml version="1.0" encoding="utf-8"?>
<!-- Generator: Adobe Illustrator 21.0.2, SVG Export Plug-In . SVG Version: 6.00 Build 0)  -->
<svg version="1.1" id="Layer_1" xmlns="http://www.w3.org/2000/svg" xmlns:xlink="http://www.w3.org/1999/xlink" x="0px" y="0px"
	 viewBox="0 0 160 160" style="enable-background:new 0 0 160 160;" xml:space="preserve">
<style type="text/css">
	.st0{fill:#69C6FF;}
</style>
<g>
	<path class="st0" d="M1.4,155.2c0.2-2.4,2.8-4.6,4-4.6c49.1-0.2,66.3-0.4,111.9-0.2c1,0,3.2,2.2,3.4,4.6c0,2.2-2.2,4.6-3.4,4.6
		C70.8,160.2,50.6,159.8,5,160C3.8,160,1.4,157.4,1.4,155.2z"/>
	<g>
		<path class="st0" d="M120.5,79.5c3.8-2.4,6.2-3.8,13.4-5c0-1.6-0.4-3.6-0.6-6.4c-6.2,1-10.6,2.8-15.4,6.2c0-0.2-0.2-0.2-0.2-0.4
			C28.4,79.7,0,146.6,0,146.6l106.9,0.2l31-15.8C137.8,131.1,129.6,98.9,120.5,79.5z M12.2,140.4c-0.4-0.4-3-2.8-3-2.8
			c0-4.7,26.8-34.1,39.1-38.5c0,0,1.2,1.4,2,3.4C33.6,115.3,22,125.5,12.2,140.4z M102.1,114.3c-0.2,0-0.2,0-0.4,0
			c0.4-2.6-0.2-4.8-0.4-4.8c-11-0.6-18-1-28.2-0.4c-1.4,0.2-1.6,4.6-0.8,8.4c-9.2,2-15.4,4-15.4,4s-7.6-1.4-6.4-9.4
			c14.6-10,25.4-18,62.1-22.6c4.8,15.8,7,23.8,7,23.8S112.1,114.3,102.1,114.3z"/>
	</g>
	<path class="st0" d="M137,70.5"/>
	<g>
		<path class="st0" d="M156.8,109.3c-6.6,0-16.6,0-17.2-10c-0.2-4.8,4.4-9,9-13c5.6-5,9.2-8.6,7.2-12c-1.8-2.8-8-3.6-18.8-2.6
			l-0.4-3.6c16.2-1.4,20.4,1.6,22.2,4.4c3.8,6.2-2.2,11.6-7.8,16.6c-3.8,3.4-8,7-7.8,10.2c0.4,6.2,5.8,6.6,13.6,6.6V109.3z"/>
	</g>
</g>
</svg>
