<?xml version="1.0" encoding="utf-8"?>
<!-- Generator: Adobe Illustrator 21.0.2, SVG Export Plug-In . SVG Version: 6.00 Build 0)  -->
<svg version="1.1" id="Layer_1" xmlns="http://www.w3.org/2000/svg" xmlns:xlink="http://www.w3.org/1999/xlink" x="0px" y="0px"
	 viewBox="0 0 50 50" style="enable-background:new 0 0 50 50;" xml:space="preserve">
<style type="text/css">
	.st0{fill:#69C6FF;}
</style>
<g>
	<g>
		<path class="st0" d="M35,40c-0.3,0-0.4,0-0.6,0c-6.3,0-12.5,0-18.8,0c-0.5,0-0.7,0.1-0.7,0.6c0,0.5,0,1,0,1.5
			c-0.1,1.1-0.8,1.9-1.9,1.9c-1.4,0-2.7,0-4.1,0c-1.1,0-1.9-0.9-1.9-2c0-0.5,0-1,0-1.6C7,40.1,7,40,6.6,39.9C5.7,39.7,5,39,5,38
			c0-3.3,0-6.7,0-10c0-1.2,0.9-2,2.1-2c0.5,0,0.7-0.2,0.8-0.6c1.2-3.5,2.3-7,3.5-10.5c0.4-1.1,1-2.2,1.7-3.2
			c0.7-1.1,1.9-1.6,3.2-1.7c0.9,0,1.8,0,2.8,0c0-0.7,0-1.2,0-1.8C19,6.8,19.8,6,21.3,6c2.5,0,5,0,7.5,0C30.2,6,31,6.8,31,8.2
			c0,0.6,0,1.1,0,1.8c0.9,0,1.7,0,2.5,0c1.9,0.1,3.2,1.1,4.1,2.6c1,1.6,1.4,3.5,2,5.2c0.9,2.5,1.7,5.1,2.5,7.6
			c0.1,0.3,0.3,0.5,0.6,0.5c1.4,0,2.2,0.8,2.2,2.2c0,3.2,0,6.4,0,9.5c0,1.2-0.5,1.9-1.7,2.2c-0.1,0-0.3,0.2-0.3,0.4
			c0,0.6,0,1.1,0,1.7c0,1.1-0.8,1.9-1.9,2c-1.4,0-2.7,0-4.1,0c-1.1,0-1.9-0.8-1.9-1.9C35,41.4,35,40.7,35,40z M38.1,26
			c-0.1-0.2-0.1-0.4-0.1-0.5c-0.6-1.7-1.2-3.5-1.8-5.2c-0.6-1.7-1.2-3.4-1.8-5.1c-0.3-0.9-0.9-1.2-1.9-1.2c-5,0-9.9,0-14.9,0
			c-1.4,0-1.6,0.2-2.2,1.5c-0.1,0.1-0.1,0.3-0.2,0.4c-1.1,3.3-2.2,6.5-3.3,9.8c0,0.1,0,0.2-0.1,0.3C20.7,26,29.4,26,38.1,26z
			 M12.2,36.5c2-0.1,3.5-1.8,3.4-3.7c-0.2-2.1-1.8-3.5-3.8-3.4c-1.9,0.1-3.4,1.9-3.2,3.7C8.6,35.2,10.3,36.7,12.2,36.5z M37.8,36.5
			c1.9,0.1,3.5-1.4,3.7-3.4c0.1-1.8-1.4-3.5-3.3-3.7c-2-0.1-3.7,1.3-3.8,3.4C34.3,34.7,35.9,36.4,37.8,36.5z"/>
	</g>
</g>
</svg>
