<?xml version="1.0" encoding="utf-8"?>
<!-- Generator: Adobe Illustrator 21.0.2, SVG Export Plug-In . SVG Version: 6.00 Build 0)  -->
<svg version="1.1" id="Layer_1" xmlns="http://www.w3.org/2000/svg" xmlns:xlink="http://www.w3.org/1999/xlink" x="0px" y="0px"
	 viewBox="0 0 50 50" style="enable-background:new 0 0 50 50;" xml:space="preserve">
<style type="text/css">
	.st0{fill:#69C6FF;}
</style>
<g>
	<g>
		<rect x="9.5" y="25.8" class="st0" width="5.4" height="5.3"/>
		<path class="st0" d="M14.4,26.3v4.3H10v-4.3H14.4 M15.4,25.3H9v6.3h6.4V25.3L15.4,25.3z"/>
	</g>
	<g>
		<rect x="15.9" y="19.5" class="st0" width="5.4" height="5.3"/>
		<path class="st0" d="M20.8,20v4.3h-4.4V20H20.8 M21.8,19h-6.4v6.3h6.4V19L21.8,19z"/>
	</g>
	<g>
		<rect x="22.3" y="25.8" class="st0" width="5.4" height="5.3"/>
		<path class="st0" d="M27.2,26.3v4.3h-4.4v-4.3H27.2 M28.2,25.3h-6.4v6.3h6.4V25.3L28.2,25.3z"/>
	</g>
	<g>
		<rect x="28.7" y="19.5" class="st0" width="5.4" height="5.3"/>
		<path class="st0" d="M33.6,20v4.3h-4.4V20H33.6 M34.6,19h-6.4v6.3h6.4V19L34.6,19z"/>
	</g>
	<g>
		<rect x="35.1" y="25.8" class="st0" width="5.4" height="5.3"/>
		<path class="st0" d="M40,26.3v4.3h-4.4v-4.3H40 M41,25.3h-6.4v6.3H41V25.3L41,25.3z"/>
	</g>
</g>
</svg>
