<svg xmlns="http://www.w3.org/2000/svg" viewBox="0 0 187.3 162.36"><defs><style>.cls-1{fill:#4d4d4c;}</style></defs><title>Ресурс 1</title><g id="Слой_2" data-name="Слой 2"><g id="Layer_1" data-name="Layer 1"><g id="_Группа_" data-name="&lt;Группа&gt;"><g id="_Группа_2" data-name="&lt;Группа&gt;"><path id="_Составной_контур_" data-name="&lt;Составной контур&gt;" class="cls-1" d="M81.12,49.94H106.3c0-1.85,0-3.64,0-5.43,0-4.32,2.62-6.95,6.9-7,1.76,0,3.52-.06,5.27,0a6.43,6.43,0,0,1,6.4,6.32.76.76,0,0,1,0,.19c-1,4.55,1.44,7.49,4.37,10.64,13.87,15,26.83,30.66,37.7,48,3.32,5.28,7,10.65,7.54,17a78.31,78.31,0,0,1-.29,19.43c-1.44,8.7-7.34,14.07-15.93,16.31l-1.86.46c-1.56,5.51-2.94,6.54-8.7,6.52H138.9c-4.77,0-6.47-1.33-7.78-6.12H56.33c-.13.41-.29.88-.42,1.36a6.1,6.1,0,0,1-6.13,4.75c-3.45.05-6.9,0-10.35,0-5.42,0-7.1-1.28-8.28-6.21A59.26,59.26,0,0,1,24,153.41a20.22,20.22,0,0,1-11.24-17.16,116.12,116.12,0,0,1,0-15.61c.31-4.89,2.76-9.18,5.13-13.37C25.34,94,34.7,81.94,44.49,70.27,50,63.69,55.9,57.42,61.56,51a4.44,4.44,0,0,0,.94-2.38c.15-1.55,0-3.12.06-4.68a6.39,6.39,0,0,1,6.35-6.36c2-.08,3.91-.07,5.86,0a6.4,6.4,0,0,1,6.34,6.37C81.18,45.85,81.12,47.79,81.12,49.94ZM75,81.2c0-1.43,0-2.86,0-4.29a1.79,1.79,0,0,0-2-2.05H64.44a1.8,1.8,0,0,0-2.05,2c0,2.86,0,5.72,0,8.58a1.79,1.79,0,0,0,2,2H73a1.8,1.8,0,0,0,2.05-2C75,84.06,75,82.63,75,81.2Zm18.57,6.31c1.43,0,2.86,0,4.29,0A1.86,1.86,0,0,0,100,85.36q0-4.19,0-8.39c0-1.33-.56-2.11-2-2.12q-4.39,0-8.78,0a1.73,1.73,0,0,0-1.93,1.94q0,4.39,0,8.78a1.73,1.73,0,0,0,1.93,1.93C90.75,87.52,92.18,87.51,93.61,87.51Zm25.07,0H123a1.79,1.79,0,0,0,2.06-2c0-2.86,0-5.72,0-8.59,0-1.34-.62-2.07-2-2.07h-8.59a1.79,1.79,0,0,0-2.07,2c0,2.86,0,5.72,0,8.59a1.79,1.79,0,0,0,2,2.06ZM75,100.09c0-1.43,0-2.86,0-4.29s-.73-2.22-2.28-2.2c-2.73,0-5.46,0-8.2,0-1.58,0-2.22.75-2.2,2.28,0,2.73,0,5.46,0,8.2,0,1.44.61,2.19,2.09,2.19H73c1.38,0,2-.73,2-2.08S75,101.45,75,100.09Zm25-.07c0-1.43,0-2.86,0-4.29s-.71-2.13-2.16-2.13q-4.19,0-8.39,0c-1.47,0-2.13.7-2.12,2.15,0,2.8,0,5.59,0,8.39a1.87,1.87,0,0,0,2.16,2.13q4.19,0,8.39,0a1.86,1.86,0,0,0,2.12-2.16C100,102.75,100,101.38,100,100Zm18.66,6.25H123a1.8,1.8,0,0,0,2-2c0-2.86,0-5.72,0-8.59a1.79,1.79,0,0,0-2-2h-8.59a1.79,1.79,0,0,0-2,2q0,4.29,0,8.59a1.79,1.79,0,0,0,2,2.05ZM68.56,125c1.37,0,2.73,0,4.1,0,1.62.06,2.42-.61,2.4-2.29,0-2.73,0-5.46,0-8.2,0-1.44-.62-2.19-2.09-2.18H64.37a1.72,1.72,0,0,0-2,1.88c0,2.93,0,5.85,0,8.78a1.79,1.79,0,0,0,2.07,2C65.83,125,67.19,125,68.56,125ZM100,118.74c0-1.37,0-2.73,0-4.1,0-1.52-.6-2.31-2.18-2.29q-4.1,0-8.19,0c-1.53,0-2.31.61-2.29,2.19,0,2.8,0,5.59,0,8.39,0,1.35.61,2.08,2,2.08H98c1.48,0,2.12-.75,2.1-2.18S100,120.1,100,118.74Zm12.34-.08c0,1.43,0,2.86,0,4.29a1.79,1.79,0,0,0,2,2.07H123a1.8,1.8,0,0,0,2.07-2c0-2.86,0-5.72,0-8.59a1.79,1.79,0,0,0-2-2.06h-8.59c-1.49,0-2.1.78-2.07,2.21S112.38,117.29,112.38,118.65Z"/><path id="_Контур_" data-name="&lt;Контур&gt;" class="cls-1" d="M93.84,0c14.71.16,29.4.71,43.94,3.14C149.1,5,160.2,7.71,170.25,13.55c7.94,4.61,14.11,10.78,16.09,20.08a47.69,47.69,0,0,1,.93,11.23C187.09,51,183.15,55,176.83,55.7a100.2,100.2,0,0,1-10.91.37c-5.59,0-11.21.08-16.76-.4-7.29-.63-11.64-5.63-11.58-13,.05-6.26-2.83-10.49-8.29-13.18-5-2.48-10.44-3.56-15.93-4.23a169.31,169.31,0,0,0-36.24-.37,58.43,58.43,0,0,0-17.44,3.87c-6.35,2.67-10,7-9.87,14.34.1,7-4.35,11.74-11.41,12.54a95.26,95.26,0,0,1-11.1.41c-5.53,0-11.07.08-16.57-.4C3.88,55.08.29,50.71,0,43.82-.55,28.39,7.14,18.29,20.46,11.74,30.32,6.9,40.87,4.46,51.62,2.81,65.61.66,79.71.11,93.84,0Z"/></g></g></g></g></svg>