<svg xmlns="http://www.w3.org/2000/svg" viewBox="0 0 169.55 200"><defs><style>.cls-1{fill:#4d4d4c;}</style></defs><title>Ресурс 1</title><g id="Слой_2" data-name="Слой 2"><g id="Layer_1" data-name="Layer 1"><g id="_Группа_" data-name="&lt;Группа&gt;"><g id="_Группа_2" data-name="&lt;Группа&gt;"><path id="_Составной_контур_" data-name="&lt;Составной контур&gt;" class="cls-1" d="M150.41,200H19.16c-5.16-1.3-9.77-3.5-13.34-7.64S.1,183.63.07,178.3C0,151.75,0,125.2,0,98.64A20.47,20.47,0,0,1,3.91,87c5-7.28,12.25-10.42,20.94-10.43q59.94,0,119.88,0A29,29,0,0,1,155,78.42c8.1,3.06,14.52,12,14.52,20.81q0,37.58,0,75.17a50.2,50.2,0,0,1-.4,6.55c-.82,6.19-4.2,10.89-8.93,14.74C157.35,198,153.85,199,150.41,200ZM38.64,153.52a15.06,15.06,0,0,0,.93-30.09,15.07,15.07,0,1,0-.93,30.09Zm92.27-30.08a15.05,15.05,0,0,0-.89,30.08,15.24,15.24,0,0,0,16.09-15.11C146.12,130.58,139.35,123.14,130.91,123.44Zm-46.08,0a15.05,15.05,0,1,0,15.11,15A14.92,14.92,0,0,0,84.83,123.44Z"/><path id="_Контур_" data-name="&lt;Контур&gt;" class="cls-1" d="M93.38,0c1.47.26,2.94.57,4.42.77,10.88,1.45,20.82,5.08,29.43,12.13,8.82,7.23,14.05,16.63,16.89,27.46,2.48,9.49,2.71,19.2,2.28,29.06H123.07c0-.57,0-1.18,0-1.8-.25-5.48-.27-11-.84-16.43a30.48,30.48,0,0,0-8.07-18.42c-3.93-4.11-9-6.31-14.48-7.79C93,23.16,86.12,23.16,79.31,23.52c-6.59.35-13.09,1.72-18.77,5.31a26.76,26.76,0,0,0-12.4,18.41c-.85,4.65-1.2,9.4-1.59,14.11-.21,2.64,0,5.31,0,8.07H23.18c0-.49-.12-1-.11-1.6.12-5.44,0-10.91.46-16.32a64.51,64.51,0,0,1,5-19.92A49.15,49.15,0,0,1,40,14.95,50.21,50.21,0,0,1,62.07,2.8C66.56,1.65,71.21,1.15,75.79.34c.15,0,.27-.23.4-.34Z"/></g></g></g></g></svg>