<?xml version="1.0" encoding="iso-8859-1"?>
<!-- Generator: Adobe Illustrator 19.0.0, SVG Export Plug-In . SVG Version: 6.00 Build 0)  -->
<svg version="1.1" id="Layer_1" xmlns="http://www.w3.org/2000/svg" xmlns:xlink="http://www.w3.org/1999/xlink" x="0px" y="0px"
	 viewBox="0 0 512.004 512.004" style="enable-background:new 0 0 512.004 512.004;" xml:space="preserve">
<g>
	<path style="fill:#25B99A;" d="M449.023,189.648L332.435,73.06c-20.332-20.332-53.3-20.332-73.633,0l-30.798,30.798
		c6.76,13.095,10.639,27.917,10.639,43.668c0,15.317-3.688,29.731-10.092,42.557L338.57,300.101c20.332,20.332,53.3,20.332,73.633,0
		l36.821-36.821C469.356,242.948,469.356,209.981,449.023,189.648"/>
	<path style="fill:#F0C419;" d="M238.647,147.53c0,52.719-42.739,95.458-95.458,95.458s-95.458-42.739-95.458-95.458
		s42.739-95.458,95.458-95.458S238.647,94.811,238.647,147.53"/>
	<g>
		<path style="fill:#BE9819;" d="M169.223,112.818c0,14.379-11.655,26.034-26.034,26.034c-14.379,0-26.034-11.655-26.034-26.034
			s11.655-26.034,26.034-26.034C157.569,86.784,169.223,98.439,169.223,112.818"/>
		<path style="fill:#BE9819;" d="M151.867,242.549V512l34.712-52.068V232.483C175.992,237.906,164.285,241.43,151.867,242.549"/>
	</g>
	<path style="fill:#A37E11;" d="M143.189,242.987c-15.638,0-30.364-3.836-43.39-10.5v88.602l17.356,17.347l-17.356,17.365
		l17.356,17.356l-17.356,17.356l17.356,17.356l-17.356,17.356l17.356,17.347l-17.356,17.365l17.356,17.356l-17.356,17.356
		l17.356,17.356h34.712v-269.46C149.003,242.805,146.122,242.987,143.189,242.987"/>
	<path style="fill:#198D71;" d="M325.427,112.818c0,14.379-11.655,26.034-26.034,26.034c-14.379,0-26.034-11.655-26.034-26.034
		s11.654-26.034,26.034-26.034C313.772,86.784,325.427,98.439,325.427,112.818"/>
	<path style="fill:#CAD3DB;" d="M299.393,104.136c-4.79,0-8.678-3.879-8.678-8.678c0-37.619-21.721-78.102-69.424-78.102
		s-69.424,40.483-69.424,78.102c0,4.799-3.888,8.678-8.678,8.678s-8.678-3.879-8.678-8.678C134.511,48.024,164.32,0,221.291,0
		s86.78,48.024,86.78,95.458C308.071,100.257,304.183,104.136,299.393,104.136"/>
	<path style="fill:#FFFFFF;" d="M424.476,238.735l-36.821,36.821c-6.778,6.777-17.764,6.777-24.541,0l-61.362-61.362
		c-6.777-6.777-6.777-17.772,0-24.55l36.812-36.812c6.786-6.786,17.772-6.786,24.55,0l61.362,61.362
		C431.253,220.971,431.253,231.958,424.476,238.735"/>
	<path style="fill:#25B99A;" d="M381.519,241.28c-2.222,0-4.443-0.85-6.135-2.543l-36.812-36.821c-3.393-3.393-3.393-8.886,0-12.271
		c3.384-3.393,8.878-3.393,12.271,0l36.812,36.821c3.393,3.393,3.393,8.878,0,12.271C385.962,240.429,383.741,241.28,381.519,241.28
		"/>
</g>
<g>
</g>
<g>
</g>
<g>
</g>
<g>
</g>
<g>
</g>
<g>
</g>
<g>
</g>
<g>
</g>
<g>
</g>
<g>
</g>
<g>
</g>
<g>
</g>
<g>
</g>
<g>
</g>
<g>
</g>
</svg>
