<?xml version="1.0" encoding="UTF-8"?>
<svg width="17px" height="12px" viewBox="0 0 17 12" version="1.1" xmlns="http://www.w3.org/2000/svg" xmlns:xlink="http://www.w3.org/1999/xlink">
    <!-- Generator: sketchtool 50.2 (55047) - http://www.bohemiancoding.com/sketch -->
    <title>FC7C511C-64B4-482C-8157-1470EB6FF093</title>
    <desc>Created with sketchtool.</desc>
    <defs></defs>
    <g id="Mobile-320" stroke="none" stroke-width="1" fill="none" fill-rule="evenodd">
        <g id="5" transform="translate(-848.000000, -340.000000)" fill="#FFFFFF" fill-rule="nonzero">
            <g id="Group" transform="translate(848.000000, 340.000000)">
                <g id="close-envelope">
                    <path d="M8.5,8.4 L6.39685714,6.5808 L0.383714286,11.6748 C0.602285714,11.8752 0.897357143,12 1.22278571,12 L15.7772143,12 C16.1014286,12 16.3952857,11.8752 16.6126429,11.6748 L10.6031429,6.5808 L8.5,8.4 Z" id="Shape"></path>
                    <path d="M16.6162857,0.3252 C16.3977143,0.1236 16.1038571,0 15.7772143,0 L1.22278571,0 C0.898571429,0 0.604714286,0.1248 0.386142857,0.3276 L8.5,7.2 L16.6162857,0.3252 Z" id="Shape"></path>
                    <polygon id="Shape" points="0 1.0536 0 11.0232 5.86864286 6.0948"></polygon>
                    <polygon id="Shape" points="11.1313571 6.0948 17 11.0232 17 1.05"></polygon>
                </g>
            </g>
        </g>
    </g>
</svg>