<?xml version="1.0" encoding="UTF-8"?>
<svg width="16px" height="16px" viewBox="0 0 16 16" version="1.1" xmlns="http://www.w3.org/2000/svg" xmlns:xlink="http://www.w3.org/1999/xlink">
    <!-- Generator: sketchtool 50.2 (55047) - http://www.bohemiancoding.com/sketch -->
    <title>78EEB8A7-7491-41DA-B304-7D0B5520EF97</title>
    <desc>Created with sketchtool.</desc>
    <defs></defs>
    <g id="Mobile-320" stroke="none" stroke-width="1" fill="none" fill-rule="evenodd">
        <g id="5" transform="translate(-849.000000, -439.000000)" fill="#FFFFFF" fill-rule="nonzero">
            <g id="phone-receiver-(1)" transform="translate(849.000000, 439.000000)">
                <path d="M15.9923736,12.6270968 C16.0262775,12.887011 15.9471224,13.1129993 15.7552405,13.3050617 L13.5024754,15.5422629 C13.4008469,15.655257 13.2681929,15.7513852 13.1044581,15.830398 C12.9407233,15.9095216 12.7798392,15.960369 12.6218058,15.9829401 C12.6105137,15.9829401 12.5765545,15.985848 12.5200666,15.9914977 C12.4636893,15.9971198 12.3902909,16 12.2999545,16 C12.0853501,16 11.7380917,15.9632769 11.2581794,15.889803 C10.778267,15.8163291 10.1911078,15.6355108 9.49670172,15.3474311 C8.8021296,15.059296 8.0145364,14.6270379 7.13378375,14.0508231 C6.2530311,13.474636 5.31576281,12.6836216 4.32206193,11.6779459 C3.53161804,10.8982862 2.87667882,10.1525248 2.35724427,9.44068932 C1.83780971,8.72879845 1.42000366,8.0706075 1.1038261,7.46608877 C0.787620872,6.86157004 0.550487707,6.31354839 0.392398929,5.82202382 C0.234310152,5.33049925 0.127035625,4.90677117 0.070575347,4.55083958 C0.0141150694,4.19490799 -0.00846904164,3.91524746 0.00282301388,3.71185798 C0.0141150694,3.5084685 0.0197610972,3.39547435 0.0197610972,3.37287552 C0.0423452082,3.2146837 0.093159458,3.05366703 0.172203847,2.88982551 C0.251248235,2.72598398 0.347230707,2.59321585 0.460151262,2.49152111 L2.71291634,0.237287725 C2.87100512,0.0790959083 3.051678,0 3.254935,0 C3.40173172,0 3.53159036,0.042372808 3.64451092,0.127118424 C3.75743147,0.21186404 3.85341395,0.316383633 3.93245833,0.440677203 L5.74483324,3.88134921 C5.84646174,4.06213986 5.87469188,4.25987963 5.82952366,4.47456853 C5.78435544,4.68925742 5.68837297,4.87004807 5.54157625,5.01694047 L4.71161016,5.84744751 C4.68902605,5.87004634 4.66926496,5.90676944 4.65232687,5.95761681 C4.63538879,6.00846418 4.62691975,6.05083698 4.62691975,6.08473523 C4.67208797,6.32202296 4.77371647,6.59320893 4.93180525,6.89829314 C5.06730991,7.16947912 5.27621294,7.49998702 5.55851433,7.88981685 C5.84081572,8.27964669 6.24168369,8.72877076 6.76111824,9.23724445 C7.26926074,9.75707295 7.72094296,10.1609717 8.1161649,10.4491622 C8.51130382,10.7371865 8.84170715,10.9491336 9.10707045,11.0847266 C9.37243376,11.2203196 9.57569076,11.3022403 9.71681377,11.3304058 L9.92848446,11.3728063 C9.95106857,11.3728063 9.98785078,11.364304 10.0386097,11.3473826 C10.0894239,11.3304058 10.1261231,11.3106595 10.1487349,11.288033 L11.114178,10.3049838 C11.3175457,10.1242209 11.5545681,10.0338255 11.8256051,10.0338255 C12.0176254,10.0338255 12.1699852,10.0676961 12.2829057,10.1355203 L12.2998161,10.1355203 L15.5688385,12.0677203 C15.8060547,12.2147235 15.9471777,12.4011085 15.9923736,12.6270968 Z" id="Shape"></path>
            </g>
        </g>
    </g>
</svg>