<?xml version="1.0" encoding="utf-8"?>
<!-- Generator: Adobe Illustrator 21.0.2, SVG Export Plug-In . SVG Version: 6.00 Build 0)  -->
<svg version="1.1" id="Layer_1" xmlns="http://www.w3.org/2000/svg" xmlns:xlink="http://www.w3.org/1999/xlink" x="0px" y="0px"
	 viewBox="0 0 30 26" style="enable-background:new 0 0 30 26;" xml:space="preserve">
<style type="text/css">
	.st0{fill:#FFFFFF;}
</style>
<g>
	<g>
		<path class="st0" d="M2,13.2c-0.3,0-0.6,0-0.8-0.1C0.4,13-0.1,12.3,0,11.5c0.1-0.7,0.7-1.3,1.4-1.3c1.1,0,2.2,0,3.3,0
			c0,0.3,0,0.6,0,0.8c0.1,1.2,1,2.2,2.2,2.5s2.4-0.2,3-1.3c0.4-0.6,0.7-1.2,1-1.8c0.1-0.1,0.2-0.2,0.4-0.2c2.5,0,4.9,0,7.4,0
			c0.2,0,0.3,0.1,0.4,0.2c0.3,0.6,0.6,1.1,1,1.6c0.7,1.2,2.1,1.7,3.4,1.3c1.3-0.4,2-1.7,1.8-3.1v-0.1c0.4,0,0.7,0,1.1,0
			c0.7,0,1.4,0,2.1,0c0.8,0,1.5,0.6,1.5,1.4c0,0.8-0.6,1.5-1.4,1.5c-0.4,0-0.5,0.1-0.6,0.5c-0.9,3.4-1.9,7-2.8,10.4
			c-0.3,1-1.2,1.7-2.2,1.7c-5.2,0-10.5,0-15.8,0c-1.1,0-2-0.7-2.3-1.7c-1-3.5-1.9-7.1-2.8-10.6C2,13.3,2,13.3,2,13.2z M22.7,19.7
			L22.7,19.7c0-1,0-2,0-3c0-0.6-0.3-0.9-0.8-1c-0.5,0-0.8,0.4-0.8,1c0,2,0,4,0,6.1c0,0.6,0.3,1,0.8,1c0.5,0,0.8-0.4,0.8-0.9
			C22.7,21.7,22.7,20.8,22.7,19.7z M13.5,19.7L13.5,19.7c0-1,0-2,0-3.1c0-0.5-0.3-0.9-0.8-0.9s-0.8,0.4-0.8,0.9c0,2,0,4,0,6.1
			c0,0.1,0.1,0.4,0.1,0.4c0.1,0.3,0.5,0.4,0.9,0.4c0.4-0.1,0.6-0.4,0.6-0.8C13.5,21.8,13.5,20.8,13.5,19.7z M18.2,19.7L18.2,19.7
			c0-1,0-2,0-3.1c0-0.5-0.4-0.9-0.8-0.9s-0.8,0.4-0.8,0.9c0,0.6,0,1.3,0,1.9c0,1.4,0,2.8,0,4.3c0,0.5,0.4,0.9,0.9,0.9
			c0.4,0,0.7-0.4,0.7-0.9C18.2,21.8,18.2,20.8,18.2,19.7z M8.9,19.7c0-0.4,0-0.9,0-1.3c0-0.6,0-1.3,0-1.9c0-0.4-0.4-0.7-0.8-0.7
			c-0.4,0-0.7,0.4-0.7,0.8c0,2.1,0,4.2,0,6.3c0,0.5,0.4,0.9,1,0.8c0.4-0.1,0.7-0.4,0.7-1C8.9,21.7,8.9,20.8,8.9,19.7z"/>
		<path class="st0" d="M7.4,12.3c-1.1,0-1.8-1.2-1.2-2.2c0.7-1.3,1.5-2.6,2.2-4c1-1.7,1.9-3.4,2.9-5.1c0.4-0.7,1.3-1,2-0.5
			c0.7,0.4,0.9,1.3,0.4,2C13,4,12.1,5.6,11.3,7.1c-0.8,1.4-1.6,2.9-2.5,4.3C8.5,12.1,8,12.3,7.4,12.3z"/>
		<path class="st0" d="M22.5,12.3c-0.6-0.1-1-0.3-1.3-0.8c-1.1-1.9-2.2-3.8-3.3-5.8c-0.7-1.1-1.3-2.2-1.9-3.3
			c-0.3-0.6-0.2-1.3,0.3-1.8c0.5-0.4,1.3-0.5,1.9-0.1c0.1,0.1,0.3,0.3,0.4,0.4c1.7,3,3.4,6,5.2,9.1c0.4,0.8,0.2,1.8-0.7,2.1
			C23,12.3,22.7,12.3,22.5,12.3z"/>
	</g>
</g>
</svg>
