<svg xmlns="http://www.w3.org/2000/svg" viewBox="0 0 32 27.81"><defs><style>.cls-1{fill:#69c6ff;}.cls-2{fill:#ff9797;}.cls-3{font-size:12px;fill:#219ad6;font-family:MyriadPro-Regular, Myriad Pro;}</style></defs><title>Ресурс 4basket_mag</title><g id="Слой_2" data-name="Слой 2"><g id="Layer_1" data-name="Layer 1"><path class="cls-1" d="M1.92,15.16a6.63,6.63,0,0,1-.84-.1A1.43,1.43,0,0,1,0,13.48a1.44,1.44,0,0,1,1.42-1.26H4.69c0,.3,0,.57,0,.84a2.78,2.78,0,0,0,5.14,1.21c.36-.6.71-1.21,1-1.82a.39.39,0,0,1,.39-.24h7.45a.39.39,0,0,1,.39.24q.47.85,1,1.69a2.78,2.78,0,0,0,5.18-1.82,1,1,0,0,1,0-.1H28.5a1.45,1.45,0,1,1,.07,2.91c-.4,0-.51.14-.61.5-.91,3.49-1.84,7-2.77,10.45a2.32,2.32,0,0,1-2.27,1.74H7.11a2.34,2.34,0,0,1-2.3-1.76Q3.39,20.74,2,15.42ZM22.76,21.7h0q0-1.51,0-3a.84.84,0,1,0-1.66,0q0,3,0,6a.84.84,0,1,0,1.66,0Q22.76,23.21,22.76,21.7Zm-9.24,0h0q0-1.53,0-3.06a.83.83,0,1,0-1.66,0q0,3.06,0,6.12a1.11,1.11,0,0,0,.12.48.8.8,0,0,0,.89.39.84.84,0,0,0,.64-.85C13.52,23.76,13.52,22.73,13.52,21.7Zm4.62,0h0c0-1,0-2.06,0-3.09a.83.83,0,1,0-1.65,0c0,.64,0,1.27,0,1.91,0,1.42,0,2.85,0,4.27a.81.81,0,0,0,.88.86.83.83,0,0,0,.76-.9C18.14,23.74,18.14,22.72,18.14,21.7Zm-9.24,0c0-.44,0-.87,0-1.31,0-.64,0-1.27,0-1.91A.78.78,0,0,0,8,17.73a.8.8,0,0,0-.78.81q0,3.15,0,6.31a.81.81,0,0,0,1,.8.86.86,0,0,0,.68-.94C8.9,23.7,8.9,22.69,8.9,21.68Z"/><path class="cls-1" d="M7.43,14.25a1.44,1.44,0,0,1-1.22-2.2C7,10.72,7.74,9.4,8.5,8.08c1-1.71,2-3.42,3-5.13a1.45,1.45,0,0,1,2-.55,1.46,1.46,0,0,1,.46,2.06L11.3,9.06,8.78,13.45A1.41,1.41,0,0,1,7.43,14.25Z"/><path class="cls-1" d="M22.52,14.28a1.54,1.54,0,0,1-1.3-.82L17.91,7.7C17.27,6.59,16.62,5.48,16,4.36a1.45,1.45,0,0,1,2.14-1.88,1.66,1.66,0,0,1,.41.48q2.61,4.52,5.2,9a1.44,1.44,0,0,1-.65,2.13A3.8,3.8,0,0,1,22.52,14.28Z"/><circle class="cls-2" cx="25" cy="7" r="7"/><text class="cls-3" transform="translate(21.92 11.04)">7</text></g></g></svg>