<?xml version="1.0" encoding="utf-8"?>
<!-- Generator: Adobe Illustrator 21.0.2, SVG Export Plug-In . SVG Version: 6.00 Build 0)  -->
<svg version="1.1" id="Layer_1" xmlns="http://www.w3.org/2000/svg" xmlns:xlink="http://www.w3.org/1999/xlink" x="0px" y="0px"
	 viewBox="0 0 40 40" style="enable-background:new 0 0 40 40;" xml:space="preserve">
<style type="text/css">
	.st0{fill:#69C6FF;}
</style>
<g>
	<rect y="1.1" class="st0" width="40" height="3.7"/>
	<polygon class="st0" points="4.3,6.9 6.5,9.8 34.4,9.8 32.4,6.9 	"/>
	<polygon class="st0" points="34.4,11.1 32.3,14 4.3,14 6.3,11.1 	"/>
	<polygon class="st0" points="34.4,19.5 32.3,22.3 4.3,22.3 6.3,19.5 	"/>
	<polygon class="st0" points="4.3,15.3 6.5,18.2 34.4,18.2 32.4,15.3 	"/>
	<polygon class="st0" points="4.3,23.7 6.5,26.5 34.4,26.5 32.4,23.7 	"/>
	<polygon class="st0" points="34.4,27.9 32.3,30.7 4.3,30.7 6.3,27.9 	"/>
	<polygon class="st0" points="34.4,36.3 32.3,39 4.3,39 6.3,36.3 	"/>
	<polygon class="st0" points="4.3,32.1 6.5,34.9 34.4,34.9 32.4,32.1 	"/>
	<rect x="37.5" y="5.5" class="st0" width="1" height="25.2"/>
	<ellipse class="st0" cx="38" cy="33.5" rx="1.7" ry="3.3"/>
</g>
</svg>
