<svg xmlns="http://www.w3.org/2000/svg" viewBox="0 0 60 51.26"><defs><style>.cls-1{fill:#d4edff;}</style></defs><title>Ресурс 4cart_check</title><g id="Слой_2" data-name="Слой 2"><g id="Layer_1" data-name="Layer 1"><path class="cls-1" d="M3.83,26a13.27,13.27,0,0,1-1.67-.19A2.86,2.86,0,0,1,0,22.58a2.89,2.89,0,0,1,2.83-2.52c2.18,0,4.37,0,6.53,0,0,.6,0,1.14,0,1.68a5.56,5.56,0,0,0,10.27,2.42c.72-1.2,1.42-2.41,2.1-3.64a.78.78,0,0,1,.79-.48q7.45,0,14.91,0a.78.78,0,0,1,.79.48q.93,1.7,1.92,3.37a5.55,5.55,0,0,0,10.35-3.64,2,2,0,0,1,0-.2H57a2.91,2.91,0,1,1,.13,5.81c-.8,0-1,.28-1.22,1-1.82,7-3.69,13.93-5.54,20.89a4.65,4.65,0,0,1-4.54,3.49H14.22a4.69,4.69,0,0,1-4.6-3.51Q6.79,37.11,4,26.47C3.93,26.29,3.88,26.11,3.83,26ZM45.51,39h0q0-3,0-6a1.67,1.67,0,1,0-3.32,0q0,6,0,12.09a1.67,1.67,0,1,0,3.31,0Q45.52,42,45.51,39ZM27,39h0q0-3.06,0-6.12a1.67,1.67,0,1,0-3.32,0q0,6.12,0,12.23a2.22,2.22,0,0,0,.24,1,1.6,1.6,0,0,0,1.79.79A1.67,1.67,0,0,0,27,45.22C27,43.16,27,41.1,27,39Zm9.24,0h0c0-2.06,0-4.12,0-6.18a1.65,1.65,0,1,0-3.3,0c0,1.27,0,2.55,0,3.82,0,2.85,0,5.69,0,8.54a1.62,1.62,0,0,0,1.76,1.73,1.67,1.67,0,0,0,1.53-1.79C36.29,43.11,36.28,41.07,36.28,39ZM17.8,39c0-.87,0-1.74,0-2.61,0-1.27,0-2.55,0-3.82a1.56,1.56,0,0,0-1.69-1.46,1.6,1.6,0,0,0-1.56,1.61q0,6.31,0,12.61a1.62,1.62,0,0,0,1.93,1.6A1.72,1.72,0,0,0,17.79,45C17.81,43,17.8,41,17.8,39Z"/><path class="cls-1" d="M14.87,24.13a2.88,2.88,0,0,1-2.43-4.4c1.51-2.66,3-5.3,4.57-7.94,2-3.42,3.93-6.84,5.91-10.25A2.89,2.89,0,0,1,27,.43a2.93,2.93,0,0,1,.92,4.11l-5.31,9.21q-2.52,4.38-5,8.77A2.82,2.82,0,0,1,14.87,24.13Z"/><path class="cls-1" d="M45,24.2a3.08,3.08,0,0,1-2.59-1.65Q39.14,16.78,35.82,11C34.54,8.8,33.24,6.59,32,4.35A2.91,2.91,0,0,1,36.26.6a3.33,3.33,0,0,1,.82,1q5.22,9,10.41,18.09a2.88,2.88,0,0,1-1.29,4.27A7.6,7.6,0,0,1,45,24.2Z"/></g></g></svg>