<?xml version="1.0" encoding="utf-8"?>
<!-- Generator: Adobe Illustrator 21.0.2, SVG Export Plug-In . SVG Version: 6.00 Build 0)  -->
<svg version="1.1" id="Layer_1" xmlns="http://www.w3.org/2000/svg" xmlns:xlink="http://www.w3.org/1999/xlink" x="0px" y="0px"
	 viewBox="0 0 40 40" style="enable-background:new 0 0 40 40;" xml:space="preserve">
<style type="text/css">
	.st0{fill:#69C6FF;}
</style>
<g>
	<path class="st0" d="M25.2,22.8c-0.2-0.1-0.3-0.2-0.5-0.3c-0.1,0.2-0.3,0.4-0.4,0.7c0.1,0.2,0.1,0.4,0.2,0.6
		C24.7,23.4,24.9,23,25.2,22.8z"/>
	<path class="st0" d="M24.8,25.2c0.1,0.4,0.2,0.8,0.2,1.1c0.1-0.3,0.2-0.7,0.3-1.1C25.3,25.2,25.1,25.2,24.8,25.2z"/>
	<path class="st0" d="M23.3,23.1c0.2,0,0.3,0.4,0.4,1.1c0.2-0.3,0.4-0.7,0.5-1C24,22.5,23.7,22,23.4,22c-0.7-0.1-1.3,2-1.7,3.2
		c0.2,0,0.4,0,0.6,0C22.7,24.3,23.1,23.1,23.3,23.1z"/>
	<path class="st0" d="M23.8,24.9c0,0.1,0,0.2,0,0.3c0.4,0,0.7,0,0.9,0c-0.1-0.5-0.2-1-0.3-1.4C24.2,24.2,24,24.6,23.8,24.9z"/>
	<path class="st0" d="M16.6,25.8l0.5,0c0,0-0.1-0.2-0.3-0.6c-0.2,0-0.3,0-0.5,0C16.5,25.5,16.6,25.8,16.6,25.8z"/>
	<path class="st0" d="M15,26.3c0.1-0.3,0.1-0.7,0.2-1.1c-0.3,0-0.5,0-0.5,0C14.8,25.6,14.9,26,15,26.3z"/>
	<path class="st0" d="M17.9,26.2l0.6-0.1c0,0-0.1-0.3-0.2-0.8c-0.2,0-0.4,0-0.6,0C17.8,25.8,17.9,26.2,17.9,26.2z"/>
	<path class="st0" d="M22.1,26.2c0,0,0.1-0.4,0.3-1c-0.2,0-0.4,0-0.6,0c-0.1,0.5-0.2,0.8-0.2,0.8L22.1,26.2z"/>
	<path class="st0" d="M23.7,25.2c0.1,0,0.1,0,0.2,0c0-0.1,0-0.2,0-0.3C23.8,25,23.7,25.1,23.7,25.2z"/>
	<path class="st0" d="M4.7,25.3c0-0.2,0-0.4-0.1-0.6c-0.5-0.3-1.6-0.1-1.6-0.1s0,0.2,0,0.6c0.3,0.1,0.5,0.1,0.8,0.1
		C4.2,25.3,4.5,25.3,4.7,25.3z"/>
	<path class="st0" d="M4.7,24.7c0,0.2,0.1,0.4,0.1,0.6c1.8-0.4,3.2-2,3.2-3.9c0,0,0,0,0,0H5.3c-0.2,0.5-0.7,0.9-1.3,0.9
		s-1.1-0.4-1.3-0.9H0c0,0,0,0,0,0c0,1.9,1.3,3.5,3.1,3.9c0-0.4,0-0.6,0-0.6S4.2,24.4,4.7,24.7z"/>
	<path class="st0" d="M6.5,28.2c-1.9-0.3-1.7-1.6-1.8-2.9c-0.2,0-0.5,0.1-0.7,0.1c-0.3,0-0.6,0-0.8-0.1c0.1,1.3,0.7,4.2,3.2,4.5
		c3.2,0.4,4.3-6.2,5-7c0-0.1,0.1-0.1,0.2-0.2c-0.2-0.1-0.4-0.3-0.6-0.4C9.2,23.7,8.6,28.6,6.5,28.2z"/>
	<path class="st0" d="M4,22.2c0.6,0,1.1-0.4,1.3-0.9H2.6C2.8,21.8,3.4,22.2,4,22.2z"/>
	<path class="st0" d="M14.7,18.5c0-0.8-0.6-1.4-1.4-1.4c-0.8,0-1.4,0.6-1.4,1.4c0,0.2,0,0.4,0.1,0.5h2.6
		C14.6,18.9,14.7,18.7,14.7,18.5z"/>
	<path class="st0" d="M5.4,20.8c0-0.8-0.6-1.4-1.4-1.4S2.5,20,2.5,20.8c0,0.2,0,0.4,0.1,0.5h2.6C5.3,21.1,5.4,21,5.4,20.8z"/>
	<path class="st0" d="M15.5,23.8c-0.1,0.4-0.2,0.9-0.3,1.4c0.2,0,0.6,0,0.9,0c0-0.1,0-0.2,0-0.3C16,24.6,15.8,24.2,15.5,23.8z"/>
	<path class="st0" d="M22.9,25.8l0.5,0c0,0,0.1-0.2,0.3-0.6c-0.2,0-0.3,0-0.5,0C23,25.6,22.9,25.8,22.9,25.8z"/>
	<path class="st0" d="M23.7,24.2c-0.2,0.4-0.4,0.8-0.5,1c0.2,0,0.3,0,0.5,0c0-0.1,0.1-0.2,0.1-0.3C23.8,24.7,23.7,24.4,23.7,24.2z"
		/>
	<path class="st0" d="M25.2,21.9c0.7-0.5,2-1.1,3.8,0.2c0.1,0,0.1,0.1,0.2,0.1c0.9-0.7,1.5-1.9,1.5-3.1c0,0,0,0,0,0H28
		c-0.2,0.5-0.7,0.9-1.3,0.9s-1.1-0.4-1.3-0.9h-2.7c0,0,0,0,0,0c0,1.5,0.8,2.7,1.9,3.4C24.9,22.2,25.1,22,25.2,21.9z"/>
	<path class="st0" d="M26.7,20c0.6,0,1.1-0.4,1.3-0.9h-2.6C25.6,19.6,26.1,20,26.7,20z"/>
	<path class="st0" d="M28.1,18.5c0-0.8-0.6-1.4-1.4-1.4s-1.4,0.6-1.4,1.4c0,0.2,0,0.4,0.1,0.5H28C28.1,18.9,28.1,18.7,28.1,18.5z"/>
	<path class="st0" d="M23.8,24.9c0.2-0.3,0.4-0.8,0.6-1.1c-0.1-0.2-0.1-0.4-0.2-0.6c-0.2,0.3-0.4,0.7-0.5,1
		C23.7,24.4,23.8,24.7,23.8,24.9z"/>
	<path class="st0" d="M25.3,22.6c-0.1,0-0.1,0.1-0.2,0.2c0.2,0.1,0.5,0.2,0.8,0.2c0-0.2,0-0.3,0-0.3l1.9,0c0,0,0,0.1,0,0.2
		c0.3-0.1,0.5-0.2,0.7-0.3C27.8,22,26.1,21.9,25.3,22.6z"/>
	<path class="st0" d="M16.1,25.2c0.1,0,0.1,0,0.2,0c0-0.1-0.1-0.2-0.1-0.3C16.2,25,16.2,25.1,16.1,25.2z"/>
	<path class="st0" d="M25.9,22.8c0,0,0,0.1,0,0.3c0.2,0,0.5,0.1,0.7,0.1c0.4,0,0.8-0.1,1.1-0.2c0-0.1,0-0.2,0-0.2L25.9,22.8z"/>
	<path class="st0" d="M26,23c0.1,0.6,0.1,2.3-0.7,4.4c0,0.1-0.1-0.4-0.3-1.1c-0.2,0.6-0.5,1.2-0.7,1.7c0.2,0.9,0.5,1.6,0.9,1.6
		c2,0.1,2.6-5.5,2.7-6.7c-0.4,0.1-0.7,0.2-1.1,0.2C26.5,23.1,26.2,23.1,26,23z"/>
	<path class="st0" d="M37.5,20.8c0-0.8-0.6-1.4-1.4-1.4s-1.4,0.6-1.4,1.4c0,0.2,0,0.4,0.1,0.5h2.6C37.4,21.1,37.5,21,37.5,20.8z"/>
	<path class="st0" d="M23.7,25.2c-0.2,0.3-0.3,0.6-0.3,0.6l-0.5,0c0,0,0.1-0.2,0.3-0.6c-0.3,0-0.5,0-0.8,0c-0.2,0.5-0.3,1-0.3,1
		l-0.6-0.1c0,0,0.1-0.3,0.2-0.8c-0.2,0-0.4,0-0.7,0c-0.8-0.9,0.9-6,1.1-8.2c0.2-2.2-1.5-2.7-1.5-2.7s2.2-0.6,2.1-2.8
		c-0.1-2.2-2-2.6-2-2.6s3.3-1.1,3-3.9L20,5l0.1,0L20,5l-0.1,0L20,5l-3.7,0c-0.3,2.8,3,3.9,3,3.9s-2,0.4-2,2.6
		c-0.1,2.2,2.1,2.8,2.1,2.8s-1.7,0.5-1.5,2.7c0.2,2.2,1.9,7.3,1.1,8.2c-0.2,0-0.4,0-0.7,0c0.1,0.5,0.2,0.8,0.2,0.8l-0.6,0.1
		c0,0-0.1-0.4-0.3-1c-0.3,0-0.6,0-0.8,0c0.2,0.3,0.3,0.6,0.3,0.6l-0.5,0c0,0-0.1-0.2-0.3-0.6c-0.1,0-0.1,0-0.2,0
		c-0.1,0.9-0.2,1.9-0.4,2.8c1.3,2.1,3.3,2.4,3.3,2.4s-1.4,0.5-1.4,2c0,1.4,1.3,2,2.4,2.7c1.1-0.6,2.4-1.2,2.4-2.7c0-1.5-1.4-2-1.4-2
		s2-0.3,3.3-2.4c-0.2-0.8-0.3-1.9-0.4-2.8C23.8,25.2,23.7,25.2,23.7,25.2z"/>
	<path class="st0" d="M24.8,25.2c-0.2,0-0.6,0-0.9,0c0.1,0.9,0.2,1.9,0.4,2.8c0.3-0.5,0.5-1,0.7-1.7C25,26,24.9,25.6,24.8,25.2z"/>
	<path class="st0" d="M40,21.3h-2.6c-0.2,0.5-0.7,0.9-1.3,0.9s-1.1-0.4-1.3-0.9H32c0,0,0,0,0,0c0,1.9,1.4,3.6,3.2,3.9
		c0-0.2,0-0.4,0.1-0.6c0.5-0.3,1.6-0.1,1.6-0.1s0,0.2,0,0.6C38.7,24.9,40,23.3,40,21.3C40,21.3,40,21.3,40,21.3z"/>
	<path class="st0" d="M35.3,24.7c0,0.2-0.1,0.4-0.1,0.6c0.2,0,0.5,0.1,0.7,0.1c0.3,0,0.6,0,0.8-0.1c0-0.4,0-0.6,0-0.6
		S35.8,24.4,35.3,24.7z"/>
	<path class="st0" d="M36,22.2c0.6,0,1.1-0.4,1.3-0.9h-2.6C34.9,21.8,35.5,22.2,36,22.2z"/>
	<path class="st0" d="M35.3,25.3c-0.1,1.4,0.2,2.6-1.8,2.9c-2.1,0.4-2.7-4.5-4.3-6c-0.2,0.2-0.4,0.3-0.6,0.4
		c0.1,0.1,0.1,0.1,0.2,0.2c0.6,0.8,1.8,7.4,5,7c2.5-0.3,3.1-3.3,3.2-4.5c-0.3,0.1-0.5,0.1-0.8,0.1C35.8,25.3,35.5,25.3,35.3,25.3z"
		/>
	<path class="st0" d="M29,22.1c-1.8-1.2-3-0.7-3.8-0.2c-0.2,0.1-0.3,0.3-0.5,0.6c0.2,0.1,0.3,0.2,0.5,0.3c0.1-0.1,0.1-0.1,0.2-0.2
		c0.8-0.7,2.4-0.6,3.2,0c0.2-0.1,0.4-0.3,0.6-0.4C29.1,22.2,29.1,22.1,29,22.1z"/>
	<path class="st0" d="M16.7,23.1c0.3,0,0.7,1.3,1,2.2c0.2,0,0.4,0,0.6,0c-0.3-1.2-1-3.3-1.7-3.2c-0.3,0-0.6,0.5-0.8,1.2
		c0.2,0.3,0.4,0.7,0.5,1C16.4,23.5,16.5,23,16.7,23.1z"/>
	<path class="st0" d="M16.2,24.9c0-0.3,0.1-0.5,0.1-0.8c-0.2-0.3-0.4-0.7-0.5-1c-0.1,0.2-0.1,0.4-0.2,0.6
		C15.8,24.2,16,24.6,16.2,24.9z"/>
	<path class="st0" d="M15.5,23.8c0.1-0.2,0.1-0.4,0.2-0.6c-0.1-0.2-0.3-0.5-0.4-0.7c-0.2,0.1-0.3,0.2-0.5,0.3
		C15.1,23,15.3,23.4,15.5,23.8z"/>
	<path class="st0" d="M13.3,20c0.6,0,1.1-0.4,1.3-0.9H12C12.2,19.6,12.7,20,13.3,20z"/>
	<path class="st0" d="M16.2,24.9c0,0.1,0.1,0.2,0.1,0.3c0.2,0,0.3,0,0.5,0c-0.1-0.3-0.3-0.7-0.5-1C16.3,24.4,16.2,24.7,16.2,24.9z"
		/>
	<path class="st0" d="M14,23c0-0.2,0-0.3,0-0.3l-1.9,0c0,0,0,0.1,0,0.2c0.4,0.1,0.7,0.2,1.1,0.2C13.5,23.1,13.8,23.1,14,23z"/>
	<path class="st0" d="M14.7,27.4c-0.8-2-0.8-3.7-0.7-4.4c-0.2,0-0.5,0.1-0.7,0.1c-0.4,0-0.8-0.1-1.1-0.2c0.1,1.2,0.6,6.8,2.7,6.7
		c0.4,0,0.7-0.7,0.9-1.6c-0.3-0.5-0.5-1-0.7-1.7C14.9,27,14.8,27.5,14.7,27.4z"/>
	<path class="st0" d="M15.2,25.2C15.1,25.6,15,26,15,26.3c0.2,0.6,0.5,1.2,0.7,1.7c0.2-0.8,0.3-1.9,0.4-2.8
		C15.8,25.2,15.4,25.2,15.2,25.2z"/>
	<path class="st0" d="M14.7,22.6c0.1,0,0.1,0.1,0.2,0.2c0.2-0.1,0.3-0.2,0.5-0.3c-0.2-0.3-0.4-0.5-0.5-0.6c-0.7-0.5-2-1.1-3.8,0.2
		c-0.1,0-0.1,0.1-0.2,0.1c0.2,0.2,0.4,0.3,0.6,0.4C12.2,22,13.9,21.9,14.7,22.6z"/>
	<path class="st0" d="M14.8,21.9c0.2,0.1,0.3,0.3,0.5,0.6c1.2-0.7,1.9-2,1.9-3.4c0,0,0,0,0,0h-2.7c-0.2,0.5-0.7,0.9-1.3,0.9
		c-0.6,0-1.1-0.4-1.3-0.9H9.3c0,0,0,0,0,0c0,1.3,0.6,2.4,1.5,3.1c0.1-0.1,0.1-0.1,0.2-0.1C12.8,20.8,14,21.4,14.8,21.9z"/>
	<path class="st0" d="M14.1,22.8c0,0,0,0.1,0,0.3c0.3-0.1,0.5-0.1,0.8-0.2c-0.1-0.1-0.1-0.1-0.2-0.2c-0.8-0.7-2.4-0.6-3.2,0
		c0.2,0.1,0.5,0.2,0.7,0.3c0-0.1,0-0.2,0-0.2L14.1,22.8z"/>
</g>
</svg>
