<?xml version="1.0" encoding="utf-8"?>
<!-- Generator: Adobe Illustrator 21.0.2, SVG Export Plug-In . SVG Version: 6.00 Build 0)  -->
<svg version="1.1" id="Layer_1" xmlns="http://www.w3.org/2000/svg" xmlns:xlink="http://www.w3.org/1999/xlink" x="0px" y="0px"
	 viewBox="0 0 40 40" style="enable-background:new 0 0 40 40;" xml:space="preserve">
<style type="text/css">
	.st0{fill:#69C6FF;}
</style>
<g>
	<path class="st0" d="M5.9,12.3c0-1.4,0-2.9,0-4.3c9.4,0,18.9,0,28.3,0c0,1.5,0,2.9,0,4.3C24.8,12.3,15.3,12.3,5.9,12.3z M10,10.1
		c0-0.9-0.7-1.6-1.6-1.6s-1.6,0.7-1.6,1.6c0,0.9,0.7,1.6,1.6,1.6C9.3,11.6,9.9,10.9,10,10.1z M31.7,8.6c-0.9,0-1.6,0.7-1.6,1.6
		s0.7,1.6,1.6,1.6c0.9,0,1.6-0.7,1.6-1.6S32.6,8.6,31.7,8.6z M28.3,10.1c0-0.9-0.7-1.6-1.6-1.6s-1.6,0.7-1.6,1.6s0.7,1.6,1.6,1.6
		C27.6,11.6,28.3,10.9,28.3,10.1z M15,10.1c0-0.9-0.7-1.6-1.6-1.6c-0.8,0-1.6,0.7-1.6,1.6s0.7,1.6,1.6,1.6S15,10.9,15,10.1z
		 M17.2,9.6c-0.3,0-0.6,0.3-0.6,0.6s0.3,0.6,0.6,0.6c0.3,0,0.6-0.3,0.6-0.6C17.8,9.8,17.5,9.6,17.2,9.6z M24.1,10.1
		c0-0.3-0.3-0.6-0.6-0.6c-0.3,0-0.6,0.3-0.6,0.6s0.3,0.6,0.6,0.6C23.9,10.6,24.1,10.4,24.1,10.1z"/>
	<g>
		<path class="st0" d="M8.8,27.5c0-0.2,0-0.4,0-0.5c0-4.1,0-8.2,0-12.3c0-0.4,0.1-0.6,0.6-0.6c7.1,0,14.2,0,21.3,0
			c0.4,0,0.6,0.1,0.6,0.6c0,4.1,0,8.3,0,12.4c0,0.4-0.1,0.5-0.5,0.5c-7.1,0-14.2,0-21.3,0C9.2,27.5,9,27.5,8.8,27.5z M10.6,15.9
			c0,3.3,0,6.6,0,9.8c6.3,0,12.5,0,18.7,0c0-3.3,0-6.5,0-9.8C23.1,15.9,16.9,15.9,10.6,15.9z"/>
		<path class="st0" d="M15.1,32c0-0.6,0-1.1,0-1.7c0.5,0,0.9,0,1.4,0c0.3,0,0.4-0.1,0.4-0.4c0-0.4,0-0.7,0-1.1
			c0-0.3,0.1-0.4,0.3-0.4c1.9,0,3.7,0,5.6,0c0.3,0,0.3,0.1,0.3,0.4c0,0.4,0,0.8,0,1.1c0,0.3,0.1,0.4,0.4,0.3c0.5,0,0.9,0,1.4,0
			c0,0.6,0,1.2,0,1.7C21.6,32,18.4,32,15.1,32z"/>
	</g>
	<path class="st0" d="M8.4,10.6c-0.3,0-0.6-0.3-0.6-0.6s0.3-0.6,0.6-0.6S9,9.8,9,10C9,10.4,8.7,10.6,8.4,10.6z"/>
	<path class="st0" d="M31.7,10.6c-0.3,0-0.6-0.3-0.6-0.6s0.3-0.6,0.6-0.6c0.3,0,0.6,0.3,0.6,0.6C32.3,10.4,32.1,10.6,31.7,10.6z"/>
	<path class="st0" d="M27.3,10.1c0,0.3-0.3,0.6-0.6,0.6c-0.3,0-0.6-0.3-0.6-0.6s0.3-0.6,0.6-0.6S27.3,9.8,27.3,10.1z"/>
	<path class="st0" d="M13.4,10.6c-0.3,0-0.6-0.3-0.6-0.6s0.3-0.6,0.6-0.6S14,9.8,14,10C14,10.4,13.8,10.6,13.4,10.6z"/>
	<g>
		<path class="st0" d="M2.8,22.5c-0.4,0-0.7-0.3-0.7-0.7S2.4,21,2.8,21s0.7,0.3,0.7,0.7C3.5,22,3.2,22.3,2.8,22.5z"/>
		<path class="st0" d="M0,14.9c0,3.4,0,6.7,0,10V32h5.6v-7.2c0-3.4,0-6.7,0-10C3.7,14.9,1.9,14.9,0,14.9z M2.8,16.5
			c0.4,0,0.7,0.3,0.7,0.7S3.2,18,2.8,18s-0.7-0.3-0.7-0.7C2.1,16.8,2.4,16.5,2.8,16.5z M0.9,21.6c0-1.1,0.9-1.9,1.9-1.9
			c1.1,0,1.9,0.9,1.9,1.9c0,1.1-0.9,1.9-1.9,1.9C1.7,23.5,0.9,22.6,0.9,21.6z"/>
	</g>
	<g>
		<path class="st0" d="M37.2,22.5c-0.4,0-0.7-0.3-0.7-0.7s0.3-0.7,0.7-0.7s0.7,0.3,0.7,0.7C37.9,22,37.6,22.3,37.2,22.5z"/>
		<path class="st0" d="M34.4,14.9c0,3.4,0,6.7,0,10V32H40v-7.2c0-3.4,0-6.7,0-10C38.1,14.9,36.2,14.9,34.4,14.9z M37.2,16.5
			c0.4,0,0.7,0.3,0.7,0.7S37.6,18,37.2,18s-0.7-0.3-0.7-0.7C36.5,16.8,36.8,16.5,37.2,16.5z M35.3,21.6c0-1.1,0.9-1.9,1.9-1.9
			s1.9,0.9,1.8,1.9c0,1.1-0.9,1.9-1.9,1.9S35.3,22.6,35.3,21.6z"/>
	</g>
</g>
</svg>
