<?xml version="1.0" encoding="utf-8"?>
<!-- Generator: Adobe Illustrator 21.0.2, SVG Export Plug-In . SVG Version: 6.00 Build 0)  -->
<svg version="1.1" id="Layer_1" xmlns="http://www.w3.org/2000/svg" xmlns:xlink="http://www.w3.org/1999/xlink" x="0px" y="0px"
	 viewBox="0 0 40 40" style="enable-background:new 0 0 40 40;" xml:space="preserve">
<style type="text/css">
	.st0{fill:none;stroke:#2C9B2C;stroke-miterlimit:10;}
</style>
<path class="st0" d="M1,10.7c0.3,1.1,0.7,2.1,1.2,3.1c0.2,0.5,0.4,1,0.7,1.4c0.2,0.5,1.3,2.4,1.6,2.8c0.4,0.6,0.8,1.3,1.2,1.8
	c0.7,0.9,1.4,1.9,2.1,2.8c0.5,0.7,5.7,5.9,6.1,6.2c0.9,0.9,1.8,1.9,2.9,2.7c0.8,0.6,1.5,1.3,2.3,1.9c1,0.8,2,1.4,3.1,2.1
	c1.8,1.2,3.7,2.2,5.7,2.9c2.3,0.8,5,1.5,7.4,0.5c1.1-0.5,1.8-1.3,2.5-2.2c0.6-0.7,1.2-1.6,1.5-2.4c0.5-1.2,0.2-1.9-0.7-2.8
	c-0.1-0.1-0.6-0.5-0.7-0.6c-0.5-0.3-1-0.6-1.5-1c-1.7-1.1-3.4-2.3-5.2-3.2c-1.8-0.9-3.5,0.4-5,1.2c-0.6,0.3-1.1,0.7-1.7,0.9
	c-0.4,0.1-0.6,0.1-1-0.1c-1-0.3-1.7-1.1-2.5-1.8c-1.9-1.5-3.5-3.5-5.3-5.2c-1.4-1.3-2.6-2.6-3.7-4.1c-0.6-0.8-1-1.9-0.5-2.8
	c0.5-0.7,0.9-1.5,1.4-2.4c0.5-0.9,1.2-2.1,0.9-3.2c-0.1-0.4-0.6-1-0.9-1.4c-0.3-0.5-0.7-1-1-1.5c-0.8-1.5-2-2.9-2.9-4.3
	C8.5,1.7,8.3,0.8,7.4,0.6c-1-0.3-2.3,0.3-3.2,0.8C2.8,2.3,1.3,3.6,0.8,5.3C0.2,7,0.6,8.9,1,10.7z"/>
</svg>
