<svg xmlns="http://www.w3.org/2000/svg" viewBox="0 0 70 48"><defs><style>.cls-1{fill:#d4edff;}</style></defs><title>Ресурс 5restaurant</title><g id="Слой_2" data-name="Слой 2"><g id="Layer_1" data-name="Layer 1"><path class="cls-1" d="M10.85,41.07c0-.87.17-1.91.17-2.95a45.72,45.72,0,0,1,1.23-6.76c.35-1,.7-2.25,1-3.29.53-1,.88-2.08,1.4-3.12a28.49,28.49,0,0,1,3.5-5.37,5.27,5.27,0,0,0,.88-1.21l1.05-1a20.9,20.9,0,0,1,2.1-1.91,17.57,17.57,0,0,1,4-2.6,18.75,18.75,0,0,1,3.32-1.56c1.93-.69,3-1,3-1a26.55,26.55,0,0,0-2.8,1.91,15.18,15.18,0,0,0-2.62,2.25A26.6,26.6,0,0,0,24,17.5a18.45,18.45,0,0,0-1.57,1.91c-.35.35-.53.69-.87,1a7.52,7.52,0,0,0-.7,1.21,45.57,45.57,0,0,0-2.62,5c-.35.87-.7,1.91-1.05,2.77-.18,1-.53,2.08-.7,2.95-.35,2.08-.87,4.16-1.05,6.24a11.33,11.33,0,0,0-.18,2.43H64.58c0-.87.17-1.56.17-2.43C64.75,23,53.2,10.22,38.5,8.49A5,5,0,0,0,40.07,5c-.25-3.94-4.75-6.84-8.46-3.69A4.21,4.21,0,0,0,30.2,3.77a4.57,4.57,0,0,0,1.47,4.54C17,10.05,5.43,22.87,5.43,38.47A11.33,11.33,0,0,0,5.6,40.9C7.35,41.07,9.1,41.07,10.85,41.07Z"/><rect class="cls-1" y="42.8" width="70" height="5.2"/></g></g></svg>