<svg id="Слой_1" data-name="Слой 1" xmlns="http://www.w3.org/2000/svg" viewBox="0 0 50 50"><defs><style>.cls-1,.cls-2{fill:#fff;}.cls-1{opacity:0.2;isolation:isolate;}</style></defs><title>корзина</title><circle class="cls-1" cx="25" cy="25" r="25"/><path class="cls-2" d="M34.49,26.73l2.87-8.59a1,1,0,0,0-.72-1.22l-.18,0H17.58l-.72-3.09a1,1,0,0,0-.93-.73H13.54a.94.94,0,0,0-.95.93s0,0,0,0a1,1,0,0,0,.95.95h1.63L18.8,30.46a1,1,0,0,0,.93.73h14.8a.94.94,0,0,0,1-.93s0,0,0,0a1,1,0,0,0-1-1h-14l-.44-1.91H33.59a.94.94,0,0,0,.9-.66Zm-14.9-1.25L18,18.79h17.1L32.9,25.48Z" transform="translate(0 0)"/><path class="cls-2" d="M18.31,35a1.91,1.91,0,1,0,1.91-1.91h0A1.91,1.91,0,0,0,18.31,35Z" transform="translate(0 0)"/><path class="cls-2" d="M31.68,35a1.91,1.91,0,1,0,1.91-1.91A1.91,1.91,0,0,0,31.68,35Z" transform="translate(0 0)"/></svg>