<svg id="Слой_1" data-name="Слой 1" xmlns="http://www.w3.org/2000/svg" viewBox="0 0 50 50"><defs><style>.cls-1,.cls-2{fill:#fff;}.cls-1{opacity:0.2;isolation:isolate;}</style></defs><title>уборка (2)</title><circle class="cls-1" cx="25" cy="25" r="25"/><path class="cls-2" d="M29,31.49A15.57,15.57,0,0,1,27,35c.31.08.62.16.92.21l1.69.28a.32.32,0,0,0,.37-.18A29.14,29.14,0,0,0,32.8,30c.3-.73.55-1.47.85-2.21l.08-.24,1.8.62c-.11.32-.21.63-.32.93a32.62,32.62,0,0,1-3.61,7.28c-.13.19-.27.36-.4.55a1.18,1.18,0,0,1-1.17.53,21.86,21.86,0,0,1-5.71-1.3,19.67,19.67,0,0,1-8.47-5.93,1,1,0,0,1-.17-1.07.93.93,0,0,1,.91-.55,14.62,14.62,0,0,0,5-1A9,9,0,0,0,25.4,25c.3-.35.54-.75.85-1.14l1.69.94a15.77,15.77,0,0,1-.91,1.3,9.52,9.52,0,0,1-3,2.4,16.32,16.32,0,0,1-5.35,1.77h-.16c.27.25.49.47.75.68.47.37.94.75,1.42,1.1a.52.52,0,0,0,.34,0,5.44,5.44,0,0,0,2.62-1.24A7.49,7.49,0,0,1,22.13,33c.53.27,1.08.51,1.58.8a2,2,0,0,0,1.92,0,11.59,11.59,0,0,0,2.9-1.93Zm7-4.94-9.1-4.07a2.79,2.79,0,0,1,1.18-1.36A2.91,2.91,0,0,1,30.89,21c1.22.53,2.43,1.07,3.63,1.63a3,3,0,0,1,1.69,3.6,1.51,1.51,0,0,1-.13.36Zm-1.35-5.31L31.83,20l-.06-.06.1-.21L35.43,13a.71.71,0,0,1,.85-.42,1.52,1.52,0,0,1,1,.51.64.64,0,0,1,.12.68Q36,17.43,34.75,21.12l0,.11ZM20.22,23.58a2.4,2.4,0,1,1-2.36-2.46A2.4,2.4,0,0,1,20.22,23.58ZM14,16.36a1.43,1.43,0,0,1,1.43,1.43h0A1.44,1.44,0,1,1,14,16.36Zm3.39,1.91a.94.94,0,0,1,1.88,0,1,1,0,0,1-2,0Z" transform="translate(0 0)"/></svg>