<svg id="Слой_1" data-name="Слой 1" xmlns="http://www.w3.org/2000/svg" viewBox="0 0 50 50"><defs><style>.cls-1,.cls-2{fill:#8e24aa;}.cls-1{opacity:0.1;isolation:isolate;}</style></defs><title>температура</title><circle class="cls-1" cx="25" cy="25" r="25"/><path class="cls-2" d="M26.44,37.67a5.06,5.06,0,0,1-5.09-5.09,5.22,5.22,0,0,1,2.17-4.17V15.9A3,3,0,0,1,26.44,13h.17a3,3,0,0,1,2.92,2.92V28.41a5.09,5.09,0,0,1-3.09,9.26Zm0-23.77A2.06,2.06,0,0,0,24.36,16V28.91l-.17.17a4.16,4.16,0,0,0-1.92,3.59,4.25,4.25,0,0,0,8.51,0,4.47,4.47,0,0,0-1.92-3.59l-.17-.17v-13a2.06,2.06,0,0,0-2.09-2.09h-.17ZM24,32.75a2.5,2.5,0,1,0,2.5-2.5,2.46,2.46,0,0,0-2.5,2.5Zm3.34-2.09a.93.93,0,0,1-.92.92h0a.93.93,0,0,1-.92-.92V20.82a.93.93,0,0,1,.92-.92h0a.93.93,0,0,1,.92.92ZM21.77,16.49H19.35a.27.27,0,0,1-.25-.25.38.38,0,0,1,.25-.25h2.42a.27.27,0,0,1,.25.25C22.1,16.4,21.94,16.49,21.77,16.49Zm0,1.92H20.19a.27.27,0,0,1-.25-.25.38.38,0,0,1,.25-.25h1.58a.27.27,0,0,1,.25.25C22.1,18.24,21.94,18.4,21.77,18.4Zm0,1.92H19.35a.27.27,0,0,1-.25-.25.38.38,0,0,1,.25-.25h2.42a.25.25,0,0,1,0,.5Zm0,1.92H20.19a.27.27,0,0,1-.25-.25.38.38,0,0,1,.25-.25h1.58A.27.27,0,0,1,22,22C22.1,22.07,21.94,22.24,21.77,22.24Zm0,1.92H19.35a.27.27,0,0,1-.25-.25.38.38,0,0,1,.25-.25h2.42a.25.25,0,1,1,0,.5Z" transform="translate(-0.4 -0.33)"/></svg>