<svg id="Слой_1" data-name="Слой 1" xmlns="http://www.w3.org/2000/svg" viewBox="0 0 50 50"><defs><style>.cls-1,.cls-2{fill:#fff;}.cls-1{opacity:0.2;}</style></defs><title>не беспокоить</title><circle class="cls-1" cx="25" cy="25" r="25"/><path id="Фигура_1332_копия" data-name="Фигура 1332 копия" class="cls-2" d="M32.72,24.28s-8-2-9.12-2.82-2.15-2.12-2-3.25a3.84,3.84,0,0,1,1.14-2.49,3.37,3.37,0,0,1,2.8-1.08c1.13.2,3,1.1,3.21,2.49s.34,2.45.83,2.82a2.6,2.6,0,0,0,1.76.43,2.06,2.06,0,0,0,1.45-1.52,31.62,31.62,0,0,0,0-3.79,4.84,4.84,0,0,0-4.15-3.14,21.76,21.76,0,0,0-6.74,0c-1.92.42-3.7,1.43-3.94,2.92s-.11,20.58-.1,21.23a3.33,3.33,0,0,0,1.35,2.28,4.64,4.64,0,0,0,1.24.33h9.64A2.78,2.78,0,0,0,32,37.83a3.21,3.21,0,0,0,.83-1.52C32.83,36.05,32.72,24.28,32.72,24.28Zm-7.4,1.83a4.83,4.83,0,1,1-4.61,5q0-.11,0-.22a4.73,4.73,0,0,1,4.61-4.83Zm-1.2,2.18a2.18,2.18,0,0,1,1.35-.22,2.43,2.43,0,0,1,1.66.65A3.35,3.35,0,0,1,28,30.24a8.75,8.75,0,0,1-.1,2ZM26.5,33.6a2.18,2.18,0,0,1-1.35.22,2.43,2.43,0,0,1-1.66-.65,3.36,3.36,0,0,1-.83-1.52,8.79,8.79,0,0,1,.1-2Z" transform="translate(-0.37 -0.18)"/></svg>