<svg id="Слой_1" data-name="Слой 1" xmlns="http://www.w3.org/2000/svg" viewBox="0 0 50 50"><defs><style>.cls-1,.cls-2{fill:#8e24aa;}.cls-1{opacity:0.1;isolation:isolate;}</style></defs><title>стирка</title><circle class="cls-1" cx="25" cy="25" r="25"/><path class="cls-2" d="M35.2,21.17H34a.75.75,0,1,1-.17-1.49h.67V14H15.55v5.64H28.88a.75.75,0,1,1,.17,1.49H14.76a.75.75,0,0,1-.75-.75V13.29a.75.75,0,0,1,.75-.75h20.4a.75.75,0,0,1,.75.75v7.13a.75.75,0,0,1-.75.75m0,16.28H14.76A.75.75,0,0,1,14,36.7V20.42a.75.75,0,0,1,.75-.75H31.07a.75.75,0,0,1,.17,1.49H15.55V36H34.46V21.17H34.2A.75.75,0,1,1,34,19.68H35.2a.75.75,0,0,1,.75.75V36.7a.75.75,0,0,1-.75.75M28.64,18.08H26.5a.75.75,0,0,1-.75-.75V16.4a.75.75,0,0,1,.75-.75h2.14a.75.75,0,0,1,.75.75v.93a.75.75,0,0,1-.75.75m4.42-.48h-2a.75.75,0,0,1-.17-1.49h2.17a.75.75,0,1,1,.17,1.49h-.17M25.15,34.36a6,6,0,1,1,6-6h0a6,6,0,0,1-6,6m0-10.53a4.52,4.52,0,1,0,4.52,4.52,4.52,4.52,0,0,0-4.52-4.52M25,31.88a3.54,3.54,0,1,1,3.54-3.54h0A3.55,3.55,0,0,1,25,31.88m0-5.59a2.05,2.05,0,1,0,2,2.05h0a2,2,0,0,0-2-2M23.28,30a.74.74,0,0,1-.32-.07.75.75,0,0,1-.36-1h0A2.43,2.43,0,0,1,24,27.57a1.42,1.42,0,0,1,1.22.28A2,2,0,0,0,27,27.69a.72.72,0,0,1,.9-.48h0a.77.77,0,0,1,.5,1v0a1.91,1.91,0,0,1-1.35,1.15,3.25,3.25,0,0,1-2.79-.28,1.54,1.54,0,0,0-.35.47.75.75,0,0,1-.68.43" transform="translate(0 0)"/></svg>