<svg id="Слой_1" data-name="Слой 1" xmlns="http://www.w3.org/2000/svg" viewBox="0 0 18.04 17.49"><defs><style>.cls-1{fill:#fff;}</style></defs><title>домой</title><path class="cls-1" d="M.72,9.27a.56.56,0,0,1-.38-1L8.92.37a.56.56,0,0,1,.76,0L18,8.31a.56.56,0,0,1-.77.81l-8-7.57L1.1,9.12A.55.55,0,0,1,.72,9.27ZM15,17.71H11.25a.56.56,0,0,1-.56-.56V12.84H7.81v4.31a.56.56,0,0,1-.56.56H3.5a.56.56,0,0,1-.56-.56V8.71a.56.56,0,0,1,1.11,0V16.6H6.7V12.28a.56.56,0,0,1,.56-.56h4a.56.56,0,0,1,.56.56V16.6h2.64V8.71a.56.56,0,1,1,1.11,0v8.44A.56.56,0,0,1,15,17.71ZM17.65,3.8a.56.56,0,0,1-.56-.56V1.34H14.77a.56.56,0,0,1,0-1.11h2.88a.56.56,0,0,1,.56.56V3.24A.56.56,0,0,1,17.65,3.8Z" transform="translate(-0.16 -0.22)"/></svg>