<svg id="Слой_1" data-name="Слой 1" xmlns="http://www.w3.org/2000/svg" viewBox="0 0 50 50"><defs><style>.cls-1,.cls-2{fill:#59c25e;}.cls-1{opacity:0.1;}</style></defs><title>свет</title><circle class="cls-1" cx="25" cy="25" r="25"/><path class="cls-2" d="M19.25,18.43a7.74,7.74,0,0,1,1-1l-1.77-1.77a.71.71,0,0,0-1,1l1.8,1.8ZM25,15.59h0a6.71,6.71,0,0,1,.69,0V13.22a.71.71,0,1,0-1.42,0v2.41a6.86,6.86,0,0,1,.69,0h0Zm5.75,2.84,1.79-1.79a.71.71,0,0,0-1-1L29.77,17.4a7.84,7.84,0,0,1,1,1Zm-13.25,5a8.43,8.43,0,0,1,.07-1H15a.71.71,0,0,0,0,1.42h2.47c0-.14,0-.27,0-.41Zm17.46-1H32.43a8.24,8.24,0,0,1,.07,1c0,.14,0,.28,0,.41H35a.71.71,0,0,0,0-1.42ZM31.13,28.3a11.11,11.11,0,0,1-.89,1.12l1.3,1.3a.71.71,0,1,0,1-1L31.13,28.3ZM17.45,29.72a.71.71,0,1,0,1,1l1.3-1.3a11.1,11.1,0,0,1-.89-1.12l-1.42,1.42Zm14.06-6.24a6.53,6.53,0,0,0-4.17-6.09v0l-.49-.14A6.64,6.64,0,0,0,25.69,17h-.06c-.2,0-.4,0-.61,0h0c-.21,0-.42,0-.61,0h-.06a6.61,6.61,0,0,0-1.17.23l-.47.14v0a6.52,6.52,0,0,0-4.19,6.09A7.13,7.13,0,0,0,19,26.13a7.23,7.23,0,0,0,1.6,2.36c.26.28.49.51.65.71a1.17,1.17,0,0,1,.26.48,9.71,9.71,0,0,1,.13,1.56v.06a1.58,1.58,0,0,0,1.58,1.58h3.65a1.58,1.58,0,0,0,1.58-1.58v-.05a9.62,9.62,0,0,1,.13-1.56.86.86,0,0,1,.13-.3,5.4,5.4,0,0,1,.65-.76,8.42,8.42,0,0,0,1.44-1.87,6.76,6.76,0,0,0,.76-3.28ZM30,25.72a6.13,6.13,0,0,1-1.38,2c-.25.27-.5.52-.72.79a2.24,2.24,0,0,0-.48,1,10.52,10.52,0,0,0-.14,1.77v.05a.48.48,0,0,1-.48.48H23.17a.48.48,0,0,1-.48-.48v-.06a10.54,10.54,0,0,0-.15-1.76,2,2,0,0,0-.27-.68,6.31,6.31,0,0,0-.79-.94,7.32,7.32,0,0,1-1.26-1.63,5.64,5.64,0,0,1-.63-2.76,5.42,5.42,0,0,1,3.87-5.19l.14,0a5.73,5.73,0,0,1,.83-.15h.05l.49,0H25l.49,0h.05a5.55,5.55,0,0,1,.83.15l.14,0a5.42,5.42,0,0,1,3.87,5.19A6,6,0,0,1,30,25.72ZM25.69,17h0Zm-1.37,0Zm2.5,16.32H23.19a.68.68,0,0,0,0,1.36h3.62a.68.68,0,0,0,0-1.36Zm0,1.71H23.19a.68.68,0,0,0,0,1.36h3.62a.68.68,0,0,0,0-1.36Zm-1.49,1.73H23.45s0,0,0,.06c0,.38.58.68,1.11.68h.89c.53,0,1.11-.3,1.11-.68,0,0,0,0,0-.06H25.32Z"/></svg>