<svg id="Слой_1" data-name="Слой 1" xmlns="http://www.w3.org/2000/svg" viewBox="0 0 50 50"><defs><style>.cls-1,.cls-2{fill:#42a5f5;}.cls-1{opacity:0.1;}</style></defs><title>другое</title><circle class="cls-1" cx="25" cy="25" r="25"/><path class="cls-2" d="M31,24.09a1.56,1.56,0,1,0,.78,1.36A1.56,1.56,0,0,0,31,24.09Zm6.33-2.39a12.15,12.15,0,0,0-1-2.39A.76.76,0,0,0,35,19.23a.84.84,0,0,0,0,.91,10.58,10.58,0,0,1,1,8.27A10.85,10.85,0,1,1,30.84,16a.84.84,0,0,0,.55.13.77.77,0,0,0,.23-1.47,12.14,12.14,0,0,0-8.81-1.3,12.38,12.38,0,1,0,15,13.29,12.17,12.17,0,0,0-.52-5ZM24.73,24.09a1.56,1.56,0,1,0,1.56,0,1.56,1.56,0,0,0-1.56,0Zm-4.66,0a1.56,1.56,0,1,0,1.56,0,1.56,1.56,0,0,0-1.56,0Z" transform="translate(-0.52 -0.43)"/></svg>