<svg id="Слой_1" data-name="Слой 1" xmlns="http://www.w3.org/2000/svg" viewBox="0 0 50 50"><defs><style>.cls-1,.cls-2{fill:#fff;}.cls-1{opacity:0.2;isolation:isolate;}</style></defs><title>звонок</title><circle class="cls-1" cx="25" cy="25" r="25"/><path class="cls-2" d="M29.15,25h2.77A6.92,6.92,0,0,0,25,18.08v2.79A4.15,4.15,0,0,1,29.15,25m5.54,0h2.76A12.43,12.43,0,0,0,25.07,12.54H25v2.77A9.69,9.69,0,0,1,34.69,25h0m1.38,4.87a15.73,15.73,0,0,1-4.94-.79,1.39,1.39,0,0,0-1.41.35l-3,3a20.9,20.9,0,0,1-9.12-9.12l3-3a1.39,1.39,0,0,0,.34-1.44,15.73,15.73,0,0,1-.79-4.94,1.38,1.38,0,0,0-1.38-1.38H13.92a1.38,1.38,0,0,0-1.38,1.38h0A23.53,23.53,0,0,0,36.07,37.46h0a1.38,1.38,0,0,0,1.38-1.38h0V31.23A1.38,1.38,0,0,0,36.07,29.87Z" transform="translate(0 0)"/></svg>