<svg xmlns="http://www.w3.org/2000/svg" viewBox="0 0 166.8 40.09">
  <title>234</title>
  <g>
    <path d="M44.4,0h77.9c3.7,0,7.2-.2,14.2,5.2,0,0,2.3,1.8,13.9,16.8a196.13,196.13,0,0,0,16.4,18C108.4,40.2,28.4,40,0,40c5.8-5.9,11.3-11.9,16.4-18.2C28.8,6.1,30.6,5.2,30.6,5.2,36.9.3,40.7,0,44.4,0Z"
          style="fill: rgba(57, 136, 225,.9); isolation: isolate"/>
    <path d="M83.4,17.8,73.8,8.3l-2.4,2.4,12,12,12-12L93,8.3Z" style="fill: #fff"/>
    <path d="M83.4,27.3l-9.6-9.6-2.4,2.4,12,12,12-12L93,17.7Z" style="fill: #fff"/>
  </g>
</svg> 
