<svg id="Слой_1" data-name="Слой 1" xmlns="http://www.w3.org/2000/svg" viewBox="0 0 50 50"><defs><style>.cls-1,.cls-2{fill:#e91e63;}.cls-1{opacity:0.1;}</style></defs><title>сервис</title><circle class="cls-1" cx="25" cy="25" r="25"/><path class="cls-2" d="M36.79,31.79a11.68,11.68,0,0,0-9.44-13,2.33,2.33,0,1,0-4.24,0,11.68,11.68,0,0,0-9.44,13Zm-12.35-14a.78.78,0,1,1,.78.78A.78.78,0,0,1,24.44,17.78Zm.78,2.33A10.11,10.11,0,0,1,35.34,30.23H15.11A10.11,10.11,0,0,1,25.22,20.12ZM36.9,33.34H13.55a.78.78,0,0,0,0,1.56H36.9a.78.78,0,0,0,0-1.56Z" transform="translate(-0.22 -0.17)"/></svg>