<svg id="Слой_1" data-name="Слой 1" xmlns="http://www.w3.org/2000/svg" viewBox="0 0 50 50"><defs><style>.cls-1,.cls-2{fill:#db4e50;}.cls-1{opacity:0.1;}</style></defs><title>экскурсии</title><circle class="cls-1" cx="25" cy="25" r="25"/><path class="cls-2" d="M28,21.86h.7a.5.5,0,0,0,0-1H28a.5.5,0,1,0,0,1Zm9.3,12.23-.62-1.52a1.26,1.26,0,0,0-1.15-.75H35v-10H36a1,1,0,0,0,1-.77A1,1,0,0,0,36.45,20L26,15a2.44,2.44,0,0,0-2.11,0L13.47,19.94a1,1,0,0,0,.43,1.92H15v10h-.47a1.26,1.26,0,0,0-1.15.75l-.62,1.5a1.31,1.31,0,0,0,.13,1.17,1.23,1.23,0,0,0,1,.58H36.12a1.23,1.23,0,0,0,1-.55,1.17,1.17,0,0,0,.13-1.17ZM13.93,20.86l10.43-4.92a1.4,1.4,0,0,1,1.28,0l10.43,4.92H34.45a.5.5,0,0,0-.5.5V31.82h-2v-7a2,2,0,1,0-4,0h0v7h-1v-7a2,2,0,0,0-4,0h0v7h-1v-7a2,2,0,1,0-4,0h0v7h-2v-10h9.79a.5.5,0,1,0,0-1Zm17,4v7h-2v-7a1,1,0,1,1,2,0Zm-5,0v7h-2v-7a1,1,0,1,1,2,0Zm-5,0v7h-2v-7a1,1,0,1,1,2,0Zm15.39,9.83s-.1.13-.2.13H13.86a.2.2,0,0,1-.2-.13.25.25,0,0,1,0-.25L14.28,33a.27.27,0,0,1,.25-.15h21a.27.27,0,0,1,.25.15l.62,1.53a.39.39,0,0,1-.08.22Z" transform="translate(0 -0.32)"/></svg>