<svg id="Слой_1" data-name="Слой 1" xmlns="http://www.w3.org/2000/svg" viewBox="0 0 50 50"><defs><style>.cls-1,.cls-2{fill:#ffa000;}.cls-1{opacity:0.1;}</style></defs><title>такси</title><circle class="cls-1" cx="25" cy="25" r="25"/><path class="cls-2" d="M34.57,33.72H16.45a3.7,3.7,0,0,1-3.57-3.47v-2.9a2,2,0,0,1,1.38-1.77l1.57-.51,2-4.15a2.38,2.38,0,0,1,2.33-1.27h10.7a2.38,2.38,0,0,1,2.33,1.28L35.11,25l1.48.55a1.87,1.87,0,0,1,1.14,1.75v2.89A3.37,3.37,0,0,1,34.57,33.72ZM20.16,20.48a1.56,1.56,0,0,0-1.58.79L16.5,25.6a.41.41,0,0,1-.24.22l-1.69.55a1.2,1.2,0,0,0-.84,1v2.94a2.87,2.87,0,0,0,2.73,2.64h18.1a2.53,2.53,0,0,0,2.34-2.64V27.35a1,1,0,0,0-.62-1l-1.62-.6a.4.4,0,0,1-.23-.21l-2-4.26a1.56,1.56,0,0,0-1.59-.84H20.16Zm5.38,6.92c-5.21,0-9.85-1-11.81-2.63a.41.41,0,0,1,.51-.65h0c1.78,1.46,6.32,2.45,11.27,2.45s9.41-1,11.22-2.4a.41.41,0,0,1,.58.07h0a.41.41,0,0,1-.07.58h0c-2,1.57-6.59,2.58-11.74,2.58ZM17.16,31a1.45,1.45,0,1,1,1.45-1.45h0A1.45,1.45,0,0,1,17.16,31Zm0-2.07a.62.62,0,1,0,.62.62h0a.62.62,0,0,0-.62-.63h0ZM33.72,31a1.45,1.45,0,1,1,1.45-1.45h0A1.45,1.45,0,0,1,33.72,31Zm0-2.07a.62.62,0,1,0,.62.62h0A.62.62,0,0,0,33.72,28.93ZM17.86,36.78a2.53,2.53,0,0,1-2.45-2.49V32.9h.84v1.4a1.69,1.69,0,0,0,3.32,0V32.9h.84v1.4A2.53,2.53,0,0,1,17.86,36.78Zm15.73,0a2.53,2.53,0,0,1-2.48-2.48V32.9H32v1.4a1.69,1.69,0,0,0,3.32,0V32.9h.84v1.4a2.53,2.53,0,0,1-2.48,2.48Zm-4.14-6.37H21.17a.42.42,0,1,1,0-.84h8.28a.42.42,0,1,1,0,.84Zm.19-9.94H21.37a.41.41,0,0,1-.39-.56l2-5.79a.41.41,0,0,1,.43-.28h4.14a.41.41,0,0,1,.39.28L30,19.93a.4.4,0,0,1-.05.38.41.41,0,0,1-.34.18Zm-7.69-.84H29L27.29,14.7H23.73l-1.77,5ZM24.48,15h1.06V16H24.48V15ZM25.54,16h1v1h-1Zm-1.06,1h1.06v1H24.48Zm1.06,1h1v1.06h-1Z" transform="translate(-0.31 -0.32)"/></svg>