<svg id="Слой_1" data-name="Слой 1" xmlns="http://www.w3.org/2000/svg" viewBox="0 0 50 50"><defs><style>.cls-1,.cls-2{fill:#ffa000;}.cls-1{opacity:0.1;}</style></defs><title>погода</title><circle class="cls-1" cx="25" cy="25" r="25"/><path class="cls-2" d="M32.11,20.68a.65.65,0,0,0,.85-.25l.92-1.57a.66.66,0,1,0-1.1-.66l-.92,1.59a.65.65,0,0,0,.24.88ZM34,22.53a.65.65,0,0,0,.85.25l1.57-.92a.66.66,0,0,0-.61-1.1l-1.57.92a.61.61,0,0,0-.26.83Zm3.16,1.92H35.34a.64.64,0,1,0,0,1.28h1.82a.64.64,0,0,0,0-1.28Zm-.71,3.88-1.56-.92a.66.66,0,0,0-.64,1.13l1.57.92a.66.66,0,0,0,.64-1.13ZM26.1,20.43a.66.66,0,1,0,1.12-.64l-.9-1.59a.66.66,0,0,0-1.13.64ZM29.51,20a.64.64,0,0,0,.64-.64V17.52a.64.64,0,0,0-1.28,0v1.82a.64.64,0,0,0,.64.64h0Zm2.88,8.45a4.35,4.35,0,0,0-2.85-7.67,4.26,4.26,0,0,0-3.18,1.41,9.69,9.69,0,0,1,.85.85A3.18,3.18,0,0,1,29.59,22,3.11,3.11,0,0,1,32.72,25s0,0,0,0A3,3,0,0,1,32.08,27,5.22,5.22,0,0,1,32.39,28.42ZM33,29.78a.7.7,0,0,0-.61-.32,5.71,5.71,0,0,1-.28,1.36L32.78,32a.66.66,0,1,0,1.13-.64Zm-6.08-5.44a6.2,6.2,0,0,0-11.38,1.88,3.72,3.72,0,0,0-2.62,3.59,3.82,3.82,0,0,0,3.83,3.8h0a3.65,3.65,0,0,0,2.1-.64,6.08,6.08,0,0,0,2.74.64,6.29,6.29,0,0,0,2.81-.67,4.52,4.52,0,0,0,2.42.67A4.67,4.67,0,0,0,31.48,29a4.59,4.59,0,0,0-4.55-4.62Zm-.07,8a3.41,3.41,0,0,1-2.06-.71.62.62,0,0,0-.85.11,5.11,5.11,0,0,1-2.28.57,4.82,4.82,0,0,1-2.45-.65.64.64,0,0,0-.57,0,.43.43,0,0,0-.28.14,2.56,2.56,0,1,1-1.57-4.52,2.43,2.43,0,0,1,1.85.85.66.66,0,0,0,1-.85A3.73,3.73,0,0,0,17,26a4.79,4.79,0,0,1,4.62-3.41,4.92,4.92,0,0,1,3.9,2,4.56,4.56,0,0,0-1.7.92.66.66,0,0,0,.85,1,3.29,3.29,0,0,1,2.16-.85,3.37,3.37,0,1,1,0,6.75Z" transform="translate(-0.35 -0.25)"/></svg>