<svg id="Слой_1" data-name="Слой 1" xmlns="http://www.w3.org/2000/svg" viewBox="0 0 50 50"><defs><style>.cls-1,.cls-2{fill:#42a5f5;}.cls-1{opacity:0.1;}</style></defs><title>уборка</title><circle class="cls-1" cx="25" cy="25" r="25"/><path class="cls-2" d="M29,31.37a15.57,15.57,0,0,1-2,3.47c.31.08.62.16.92.21l1.69.28a.32.32,0,0,0,.37-.18,29.14,29.14,0,0,0,2.79-5.31c.3-.73.55-1.47.85-2.21l.08-.24,1.8.62c-.11.32-.21.63-.32.93a32.62,32.62,0,0,1-3.61,7.28c-.13.19-.27.36-.4.55A1.18,1.18,0,0,1,30,37.3,21.86,21.86,0,0,1,24.29,36a19.67,19.67,0,0,1-8.47-5.93A1,1,0,0,1,15.65,29a.93.93,0,0,1,.91-.55,14.62,14.62,0,0,0,5-1,9,9,0,0,0,3.81-2.54c.3-.35.54-.75.85-1.14l1.69.94c-.3.45-.58.9-.91,1.3a9.52,9.52,0,0,1-3,2.4,16.32,16.32,0,0,1-5.35,1.77h-.16c.27.25.49.47.75.68.47.37.94.75,1.42,1.1A.52.52,0,0,0,21,32a5.44,5.44,0,0,0,2.62-1.24,7.49,7.49,0,0,1-1.52,2.14c.53.27,1.08.51,1.58.8a2,2,0,0,0,1.92,0,11.59,11.59,0,0,0,2.9-1.93Zm7-4.94L26.9,22.36A2.79,2.79,0,0,1,28.08,21a2.91,2.91,0,0,1,2.78-.17c1.22.53,2.43,1.07,3.63,1.63a3,3,0,0,1,1.69,3.6,1.51,1.51,0,0,1-.13.36Zm-1.35-5.31-2.85-1.27-.06-.06.1-.21,3.56-6.67a.71.71,0,0,1,.85-.42,1.52,1.52,0,0,1,1,.51.64.64,0,0,1,.12.68Q36,17.31,34.72,21l-.05.11ZM20.19,23.46A2.4,2.4,0,1,1,17.83,21,2.42,2.42,0,0,1,20.19,23.46ZM14,16.24a1.43,1.43,0,0,1,1.43,1.43h0A1.44,1.44,0,1,1,14,16.24Zm3.39,1.91a.94.94,0,0,1,1.88,0,1,1,0,0,1-.95.95,1,1,0,0,1-1-1Z" transform="translate(0.03 0.12)"/></svg>