<?xml version="1.0" encoding="UTF-8"?>
<svg width="278px" height="74px" viewBox="0 0 278 74" version="1.1" xmlns="http://www.w3.org/2000/svg" xmlns:xlink="http://www.w3.org/1999/xlink">
    <!-- Generator: Sketch 50.2 (55047) - http://www.bohemiancoding.com/sketch -->
    <title>icon-3</title>
    <desc>Created with Sketch.</desc>
    <defs></defs>
    <g id="icon-3" stroke="none" stroke-width="1" fill="none" fill-rule="evenodd">
        <g id="Group-8" transform="translate(1.000000, 1.000000)" fill="#E83F56" fill-rule="nonzero">
            <path d="M45.095863,22.1113088 C44.5995851,22.1113088 44.1972971,22.5135401 44.1972971,23.0096582 C44.1969377,28.5294893 42.0844093,33.7569683 38.2487011,37.7291479 C34.3154086,41.8024918 29.0312122,44.1004299 23.3692587,44.1997973 C23.2413928,44.2020434 23.114695,44.2032113 22.9870986,44.2031215 C17.4668489,44.2029418 12.2536392,42.0993361 8.27182421,38.2553638 C0.772662885,31.01592 -0.320352661,19.2164477 5.7002185,10.7464116 C6.2027864,10.9945605 6.76789449,11.1346272 7.36526109,11.1346272 C9.44615997,11.1346272 11.139148,9.44196766 11.139148,7.36127219 C11.139148,5.28057672 9.44624983,3.58791716 7.36526109,3.58791716 C5.28427235,3.58791716 3.59137422,5.28057672 3.59137422,7.36127219 C3.59137422,8.19268788 3.86229183,8.96166203 4.31966187,9.58589763 C1.12130645,14.0248165 -0.383252273,19.4858896 0.083283136,24.9653808 C0.554850514,30.5038096 3.01961674,35.6827728 7.02362634,39.5480382 C11.3433021,43.7180541 16.9976178,46 22.9862899,46 C23.1243096,46 23.2625091,45.9987422 23.4007984,45.9963164 C29.5426759,45.8885037 35.2748074,43.395784 39.5415577,38.9771699 C43.7024569,34.6681654 45.9940695,28.9975762 45.9944289,23.0097481 C45.994339,22.5136299 45.5921409,22.1113088 45.095863,22.1113088 Z M7.36535095,5.38479567 C8.45540123,5.38479567 9.34210604,6.27146537 9.34210604,7.36127219 C9.34210604,8.45116885 8.45531137,9.33774871 7.36535095,9.33774871 C6.27530067,9.33774871 5.38859585,8.45107901 5.38859585,7.36127219 C5.38859585,6.27146537 6.27530067,5.38479567 7.36535095,5.38479567 Z M39.3137712,22.1379026 C39.8099593,22.1379026 40.2122473,22.5402237 40.2122473,23.0363419 C40.2122473,31.3479831 34.2893502,38.480333 26.1288444,39.9955508 C26.0734029,40.005793 26.0181411,40.0108242 25.9637778,40.0108242 C25.5392055,40.0108242 25.1616281,39.7086791 25.0812963,39.2762603 C24.990631,38.7884078 25.3127668,38.3195123 25.8006881,38.2288598 C32.8142644,36.9265721 37.9825459,30.991123 38.3893266,23.9347811 L22.9603214,23.9347811 C22.4640434,23.9347811 22.0617555,23.53246 22.0617555,23.0363419 L22.0617555,7.60942111 C13.9566013,8.07642984 7.50543737,14.8174196 7.50543737,23.0363419 C7.50543737,30.2238559 12.5910507,36.5684542 19.5979777,38.1223049 C20.0823945,38.2298481 20.3880866,38.7095248 20.2806182,39.1939633 C20.1731497,39.6784916 19.6934054,39.9841406 19.2088088,39.8765974 C15.4372582,39.0401505 12.0113859,36.9190252 9.56216483,33.9038631 C7.07700115,30.8444079 5.70839545,26.9849824 5.70839545,23.0363419 C5.70839545,13.5250147 13.4475637,5.78684724 22.9603214,5.7867574 C23.4565993,5.7867574 23.8588872,6.18907849 23.8588872,6.68519665 L23.8588872,22.1379026 L39.3137712,22.1379026 Z M22.9982408,38.4890478 C23.4945188,38.4890478 23.8968067,38.8913689 23.8968067,39.3874871 C23.8968067,39.8836052 23.4945188,40.2859263 22.9982408,40.2859263 L22.9603214,40.2859263 C22.4640434,40.2859263 22.0617555,39.8836052 22.0617555,39.3874871 C22.0617555,38.8913689 22.4640434,38.4890478 22.9603214,38.4890478 L22.9982408,38.4890478 Z M42.7655222,8.42565318 C44.884071,11.5685734 45.9999101,15.2207289 46,19.0453849 C46,19.541503 45.5977121,19.9438241 45.1014341,19.9438241 L26.9519307,19.9438241 C26.4556528,19.9438241 26.0533649,19.5415929 26.0533649,19.0453849 L26.0533649,0.898439255 C26.0533649,0.402321098 26.4556528,0 26.9519307,0 C29.1918758,0 31.3856345,0.385340596 33.4722842,1.14524052 C33.9385501,1.31504554 34.1788266,1.83074967 34.0089977,2.2969498 C33.8390788,2.76314993 33.3236615,3.00366212 32.857126,2.83358757 C31.2479743,2.24753564 29.5675662,1.90756623 27.8504068,1.81969887 L27.8504068,14.5532784 L33.8706185,14.5532784 C34.3668964,14.5532784 34.7691844,14.9555995 34.7691844,15.4517177 C34.7691844,15.9478358 34.3668964,16.3501569 33.8706185,16.3501569 L27.8504068,16.3501569 L27.8504068,18.1469456 L44.1802244,18.1469456 C44.0184825,14.9644042 42.9969029,11.9386405 41.196716,9.31322131 C40.8733222,9.40369415 40.5330353,9.45310831 40.1811569,9.45310831 C38.1001681,9.45310831 36.40727,7.76044875 36.40727,5.67975328 C36.40727,3.59905781 38.1001681,1.90639825 40.1811569,1.90639825 C42.2621456,1.90639825 43.9550438,3.59914765 43.9550438,5.67975328 C43.9550438,6.76120461 43.4969549,7.73699949 42.7655222,8.42565318 Z M40.181067,7.65640949 C41.2711173,7.65640949 42.157912,6.76973978 42.1578221,5.67993297 C42.1578221,4.59012615 41.2710274,3.70345645 40.181067,3.70345645 C39.0911066,3.70345645 38.2043119,4.59003631 38.2043119,5.67993297 C38.2043119,6.76973978 39.0910167,7.65640949 40.181067,7.65640949 Z M37.8305085,14.816611 C37.9976418,14.9837207 38.0937883,15.215518 38.0937883,15.4518075 C38.0937883,15.688097 37.9976418,15.9198944 37.8305085,16.0869142 C37.6633753,16.2540239 37.4315453,16.3501569 37.1952224,16.3502468 C36.9588996,16.3502468 36.7270696,16.2540239 36.5599364,16.0869142 C36.3928031,15.9198944 36.2966565,15.688097 36.2966565,15.4518075 C36.2966565,15.215518 36.3928031,14.9837207 36.5599364,14.816611 C36.7270696,14.6494114 36.9588996,14.5533683 37.1952224,14.5533683 C37.4315453,14.5533683 37.6633753,14.6495013 37.8305085,14.816611 Z" id="analytics"></path>
        </g>
    </g>
</svg>