<?xml version="1.0" encoding="UTF-8"?>
<svg width="278px" height="74px" viewBox="0 0 278 74" version="1.1" xmlns="http://www.w3.org/2000/svg" xmlns:xlink="http://www.w3.org/1999/xlink">
    <!-- Generator: Sketch 50.2 (55047) - http://www.bohemiancoding.com/sketch -->
    <title>icon-1</title>
    <desc>Created with Sketch.</desc>
    <defs></defs>
    <g id="icon-1" stroke="none" stroke-width="1" fill="none" fill-rule="evenodd">
        <g id="Group-10" transform="translate(1.000000, 1.000000)" fill="#E83F56" fill-rule="nonzero">
            <path d="M44.8565738,35.0756795 C44.5690734,33.9964141 43.8813488,33.0942537 42.9199792,32.5356454 C42.5744839,32.3348333 42.2084033,32.1880094 41.8314364,32.0943768 L41.8314364,29.186486 C41.8314364,28.6365437 41.3883592,28.1904938 40.8418611,28.1904938 C40.2953629,28.1904938 39.8522857,28.6365437 39.8522857,29.186486 L39.8522857,32.0966678 C39.8235852,32.10374 39.7947857,32.1099158 39.7661841,32.1176853 C39.0201676,32.3188959 38.3597579,32.71544 37.839783,33.2638882 L33.4153451,30.692776 C34.1578977,29.1175564 34.5742537,27.3575618 34.5742537,25.5011455 C34.5742537,23.6441316 34.1576008,21.8833401 33.4143554,20.3077221 L37.8422572,17.7347173 C38.3966728,18.3170326 39.097857,18.7143736 39.8521868,18.900842 L39.8521868,22.1147322 C39.8521868,22.6648737 40.2952639,23.1107244 40.8417621,23.1107244 C41.3883592,23.1107244 41.8313374,22.6647741 41.8313374,22.1147322 L41.8313374,18.903133 C42.2044446,18.8112933 42.570921,18.6670592 42.9198802,18.4643546 C43.8813488,17.9056467 44.5691724,17.0035859 44.8563759,15.9243205 C45.1437773,14.845055 44.9963158,13.7176783 44.4411086,12.7499751 C43.2952637,10.7524126 40.7483368,10.0654081 38.763545,11.2187828 C38.4145859,11.4215871 38.1068961,11.6687174 37.8412676,11.947922 L26.4899013,5.35170244 C26.5973799,4.98055863 26.6561666,4.58879573 26.6561666,4.18318714 C26.6561666,1.87653735 24.7916202,0 22.4999304,0 C20.2082406,0 18.3436942,1.87653735 18.3436942,4.18318714 C18.3436942,4.58879573 18.4024808,4.98055863 18.5099595,5.35170244 L7.16007769,11.9471251 C6.89108421,11.6653307 6.58161306,11.4195949 6.23621673,11.2188824 C4.25142492,10.0654081 1.70449811,10.7524126 0.558653209,12.7500747 C0.00354489407,13.7176783 -0.143916577,14.845055 0.143385873,15.9244201 C0.430688322,17.0036855 1.11841299,17.9058459 2.07988157,18.4644542 C2.4289397,18.6672585 2.79541609,18.8113929 3.16842434,18.9033322 L3.16842434,21.9157131 C3.16842434,22.4658546 3.61150152,22.9117053 4.15799967,22.9117053 C4.70449782,22.9117053 5.147575,22.4657549 5.147575,21.9157131 L5.147575,18.900842 C5.90190475,18.714274 6.60299003,18.316933 7.15740557,17.7347173 L11.5874846,20.309017 C10.8446351,21.8844358 10.4281802,23.6447292 10.4281802,25.5013447 C10.4281802,27.3571634 10.8443382,29.1168591 11.5865939,30.6916803 L7.16007769,33.2639878 C6.64010281,32.7156392 5.97969315,32.3190951 5.23377563,32.1178845 C5.20517405,32.110115 5.17637452,32.1040389 5.14767397,32.096867 L5.14767397,29.3857043 C5.14767397,28.8356624 4.70459678,28.3897121 4.15809864,28.3897121 C3.61160049,28.3897121 3.1685233,28.835762 3.1685233,29.3857043 L3.1685233,32.0944764 C2.79155636,32.1880094 2.42547584,32.3349329 2.07998054,32.535745 C1.11851196,33.0943533 0.430688322,33.9965137 0.14348484,35.0757791 C-0.143916577,36.1551442 0.00354489407,37.2824213 0.558752176,38.2501245 C1.32772911,39.5906649 2.72752444,40.3408216 4.16512532,40.3408216 C4.86967446,40.3408216 5.58352653,40.1604294 6.2363157,39.7811176 C6.581811,39.5804051 6.89118318,39.3346693 7.16017666,39.0529745 L18.5099595,45.6482976 C18.4024808,46.0194414 18.3436942,46.4112043 18.3436942,46.8168129 C18.3436942,49.1234626 20.2081416,51 22.4999304,51 C24.7917191,51 26.6561666,49.1234626 26.6561666,46.8168129 C26.6561666,46.4112043 26.5973799,46.0194414 26.4899013,45.6482976 L37.8394861,39.0526757 C38.1084796,39.3345697 38.4180497,39.5804051 38.763644,39.7811176 C39.4165321,40.1606286 40.1301863,40.3408216 40.8348344,40.3408216 C42.2722373,40.340722 43.6723296,39.5905653 44.4412075,38.2501245 C44.9964148,37.2823217 45.1439752,36.1550446 44.8565738,35.0756795 Z M38.7389021,14.274394 C38.8894316,13.7091119 39.249673,13.2366656 39.7532193,12.9439142 C40.7928722,12.3397845 42.1269531,12.6995729 42.7271906,13.7459673 C43.0179569,14.2528784 43.0952505,14.8433616 42.944721,15.4087433 C42.7941916,15.9740254 42.4339501,16.4465714 41.9304038,16.7392232 C40.8908499,17.3433528 39.55667,16.9836641 38.9564326,15.93717 C38.6656662,15.4302589 38.5884716,14.8396761 38.7389021,14.274394 Z M6.04352714,15.93717 C5.75266187,16.4440812 5.28316038,16.8066586 4.72152022,16.9581641 C4.15978108,17.1096697 3.57310216,17.0318749 3.06945691,16.7392232 C2.56581166,16.4465714 2.20566918,15.9740254 2.05513972,15.4087433 C1.90461026,14.8434612 1.98190382,14.2528784 2.27267013,13.7459673 C2.67546757,13.0438222 3.40871726,12.6507644 4.16176043,12.6507644 C4.53080998,12.6507644 4.90460996,12.7451939 5.2466414,12.9439142 C5.75028665,13.2365659 6.11042913,13.7091119 6.26095859,14.274394 C6.41158702,14.8397757 6.33439242,15.4303585 6.04352714,15.93717 Z M6.26076065,36.7254068 C6.11042913,37.2908881 5.75018768,37.7632348 5.2466414,38.0558866 C4.20718648,38.6598171 2.87290759,38.3002279 2.27267013,37.2539331 C1.98190382,36.747022 1.90461026,36.1564391 2.05513972,35.591157 C2.20566918,35.0256757 2.56591062,34.553329 3.06945691,34.2606772 C3.40495649,34.0657421 3.777173,33.9661329 4.15443684,33.9661329 C4.3435636,33.9661329 4.53387797,33.9911348 4.72142125,34.0417362 C5.28316038,34.1932418 5.7525629,34.5559188 6.04332921,35.0627303 C6.33399655,35.5696415 6.41129011,36.1602243 6.26076065,36.7254068 Z M25.4982476,7.07563852 L36.8538695,13.6743483 C36.6370319,14.4253019 36.62763,15.2357222 36.8514943,16.0102832 L32.4216132,18.5844832 C30.4163351,15.6798795 27.1860382,13.6937721 23.4895057,13.3908606 L23.4895057,8.24564796 C24.2679835,8.05350185 24.9604586,7.64002414 25.4982476,7.07563852 Z M22.5012169,30.9255626 C23.7208915,30.9255626 24.8302175,30.443753 25.6535275,29.6604264 L26.9577203,29.9052658 C27.9789652,30.0970135 28.7202313,30.9950899 28.7202313,32.0406874 L28.7202313,33.4976709 C27.0050267,34.8520569 24.8451616,35.660485 22.501118,35.660485 C20.1570744,35.660485 17.9972092,34.8520569 16.2819057,33.4977705 L16.2819057,32.040787 C16.2819057,30.9951895 17.0231718,30.0970135 18.0444167,29.9053654 L19.3487084,29.6605261 C20.1723154,30.4438526 21.2816413,30.9255626 22.5012169,30.9255626 Z M19.8863985,26.3018041 L19.8863985,24.8506976 C19.8863985,23.3994914 21.0593605,22.2189234 22.5012169,22.2189234 C23.9430734,22.2189234 25.1160354,23.3994914 25.1160354,24.8506976 L25.1160354,26.3018041 C25.1160354,27.7529106 23.9430734,28.9335783 22.5012169,28.9335783 C21.0593605,28.9335783 19.8863985,27.7529106 19.8863985,26.3018041 Z M27.3206339,27.9471485 L26.8277761,27.8546116 C27.0003753,27.3689172 27.0950871,26.8463675 27.0950871,26.3017045 L27.0950871,24.8505979 C27.0950871,22.3010014 25.0342883,20.2268394 22.501118,20.2268394 C19.9679476,20.2268394 17.9071488,22.3010014 17.9071488,24.8505979 L17.9071488,26.3017045 C17.9071488,26.8463675 18.0018607,27.3689172 18.1744599,27.8546116 L17.6816021,27.9471485 C15.9112727,28.2794448 14.5799628,29.7190963 14.3412534,31.4739112 C13.1257354,29.7962934 12.4072319,27.7317935 12.4072319,25.5011455 C12.4072319,19.8993244 16.9352887,15.3419056 22.501019,15.3419056 C28.0667493,15.3419056 32.5948062,19.8993244 32.5948062,25.5011455 C32.5948062,27.3435169 32.1048184,29.0729315 31.2494429,30.5643798 C31.2464739,30.5693602 31.24301,30.5739422 31.240041,30.5789227 C31.2381606,30.5822098 31.2367751,30.5856961 31.2348947,30.5889832 C31.0588316,30.8945842 30.8668348,31.1897262 30.6609826,31.4739112 C30.4223721,29.7190963 29.0910622,28.2794448 27.3206339,27.9471485 Z M22.4999304,1.99198439 C23.7004053,1.99198439 24.6770159,2.97492778 24.6770159,4.18318714 C24.6770159,5.3914465 23.7003063,6.3744895 22.4999304,6.3744895 C21.2995544,6.3744895 20.3228448,5.39154611 20.3228448,4.18328675 C20.3228448,2.97502739 21.2994554,1.99198439 22.4999304,1.99198439 Z M8.14965302,16.0110801 C8.36144332,15.2837338 8.37252767,14.5097705 8.17271243,13.7589165 C8.16499297,13.7301294 8.15598694,13.70194 8.14767367,13.6733522 L19.5015141,7.07563852 C20.0393032,7.64002414 20.7317783,8.05350185 21.5102561,8.24564796 L21.5102561,13.3911594 C17.8144164,13.6948678 14.5848122,15.6810748 12.580128,18.5855789 L8.14965302,16.0110801 Z M19.5015141,43.9242619 L8.14767367,37.3266478 C8.15588797,37.29806 8.16499297,37.2698706 8.17271243,37.2410835 C8.37262664,36.4902295 8.36154229,35.7162662 8.14965302,34.9889199 L12.5788414,32.4151183 C14.5835256,35.3205189 17.8136246,37.3076224 21.5102561,37.6112312 L21.5102561,42.7542524 C20.7317783,42.9463985 20.0393032,43.3597766 19.5015141,43.9242619 Z M22.4999304,49.007916 C21.2994554,49.007916 20.3228448,48.0249726 20.3228448,46.8167132 C20.3228448,45.6084539 21.2994554,44.6255105 22.4999304,44.6255105 C23.7004053,44.6255105 24.6770159,45.6084539 24.6770159,46.8167132 C24.6770159,48.0249726 23.7003063,49.007916 22.4999304,49.007916 Z M25.4982476,43.9242619 C24.9604586,43.3597766 24.2679835,42.9463985 23.4895057,42.7542524 L23.4895057,37.6115301 C27.1867309,37.3086185 30.4176217,35.3218138 32.4228008,32.4161144 L36.8501087,34.9888203 C36.6383184,35.7161666 36.6272341,36.4901299 36.8271483,37.2409839 C36.8347688,37.2696713 36.8438738,37.2977611 36.8520881,37.3261498 L25.4982476,43.9242619 Z M42.7271906,37.2540327 C42.1270521,38.3003275 40.7930701,38.6601159 39.7532193,38.0559862 C39.2495741,37.7633344 38.8894316,37.2908881 38.7389021,36.7255064 C38.5883727,36.1602243 38.6656662,35.5697411 38.9564326,35.06283 C39.2471989,34.5559188 39.7167004,34.193441 40.2784395,34.0418359 C40.4599457,33.9929277 40.6440252,33.9684239 40.8271149,33.9668301 C40.8320633,33.9669298 40.8369127,33.967627 40.84196,33.967627 C40.8478981,33.967627 40.8536382,33.9668301 40.8595762,33.9667305 C41.2319907,33.9692208 41.5991598,34.0683319 41.9305028,34.2607768 C42.434148,34.5534286 42.7942905,35.0258749 42.94482,35.5912567 C43.0952505,36.1565388 43.0179569,36.7471216 42.7271906,37.2540327 Z M4.85779837,24.8718147 C5.04187779,25.0569882 5.14777294,25.3139799 5.14777294,25.575952 C5.14777294,25.838721 5.04187779,26.0948162 4.85779837,26.2799897 C4.67381791,26.4662589 4.41848194,26.5719442 4.1581976,26.5719442 C3.89801223,26.5719442 3.64267626,26.4662589 3.45859684,26.2799897 C3.27451742,26.0949158 3.16862227,25.8389202 3.16862227,25.575952 C3.16862227,25.3140795 3.27451742,25.0570878 3.45859684,24.8718147 C3.64257729,24.6865416 3.89692359,24.5799598 4.1581976,24.5799598 C4.41838298,24.5799598 4.67371895,24.6865416 4.85779837,24.8718147 Z M41.5418577,24.7970082 C41.7259371,24.9821817 41.8308426,25.2391734 41.8308426,25.5011455 C41.8308426,25.763018 41.7259371,26.0200097 41.5418577,26.2051832 C41.3568876,26.3905559 41.1025413,26.4971377 40.8422569,26.4971377 C40.5810819,26.4971377 40.3267356,26.3904563 40.1416665,26.2051832 C39.9575871,26.0201093 39.8526816,25.7631177 39.8526816,25.5011455 C39.8526816,25.239273 39.9575871,24.9822813 40.1416665,24.7970082 C40.3256469,24.6117351 40.5809829,24.5052529 40.8422569,24.5051533 C41.1024423,24.5051533 41.3567886,24.6117351 41.5418577,24.7970082 Z" id="user"></path>
        </g>
    </g>
</svg>