<?xml version="1.0" encoding="UTF-8"?>
<svg width="278px" height="74px" viewBox="0 0 278 74" version="1.1" xmlns="http://www.w3.org/2000/svg" xmlns:xlink="http://www.w3.org/1999/xlink">
    <!-- Generator: Sketch 50.2 (55047) - http://www.bohemiancoding.com/sketch -->
    <title>icon-2</title>
    <desc>Created with Sketch.</desc>
    <defs></defs>
    <g id="icon-2" stroke="none" stroke-width="1" fill="none" fill-rule="evenodd">
        <g id="Group-9" transform="translate(1.000000, 1.000000)" fill="#E83F56" fill-rule="nonzero">
            <path d="M47.9943427,27.2166379 C47.9345301,26.144019 47.4054044,25.1615897 46.5426221,24.5214497 C45.2721204,23.5788651 43.5541495,23.5836465 42.2963041,24.4847926 C40.603927,22.9720072 38.6564557,21.8298241 36.5566405,21.0994008 C36.5566405,21.0971507 36.5570155,21.0949007 36.5570155,21.0925569 L36.5570155,16.3568521 L40.3804267,13.4727533 C40.6152707,13.2955616 40.7533647,13.0184301 40.7533647,12.7244232 L40.7533647,8.99496082 C42.0166475,8.59182637 42.9342737,7.40726736 42.9342737,6.01214091 C42.9342737,4.2860692 41.5299907,2.88166129 39.8038634,2.88166129 C38.0777362,2.88166129 36.6734532,4.28597545 36.6734532,6.01214091 C36.6734532,7.41626757 37.6027044,8.60738924 38.8785498,9.002836 L38.8785498,12.2574435 L35.0551386,15.1414486 C34.8202946,15.3186403 34.6822006,15.5957718 34.6822006,15.8897787 L34.6822006,20.565857 C33.7571682,20.3595084 32.8101045,20.2299429 31.8487908,20.179598 L31.8487908,12.5618569 C31.8487908,12.0441573 31.4290715,11.6244287 30.9113833,11.6244287 C30.3936014,11.6244287 29.9739759,12.044251 29.9739759,12.5618569 L29.9739759,20.1824105 C29.0327247,20.234443 28.1054422,20.363446 27.1955973,20.5671695 L27.1955973,15.8896849 C27.1955973,15.5954905 27.0575034,15.318359 26.8226593,15.1413549 L22.9992482,12.2573498 L22.9992482,9.00292976 C24.2750936,8.60738924 25.2043448,7.41626757 25.2043448,6.01214091 C25.2043448,4.2860692 23.8000617,2.88166129 22.0739345,2.88166129 C20.3478073,2.88166129 18.9435242,4.28597545 18.9435242,6.01214091 C18.9435242,7.40736111 19.8611504,8.59192012 21.1244333,8.99496082 L21.1244333,12.7247045 C21.1244333,13.0188989 21.2625272,13.2960304 21.4973713,13.4730345 L25.3207824,16.3570396 L25.3207824,21.0927444 C25.3207824,21.0958382 25.3212512,21.0988383 25.3212512,21.1019321 C24.8887819,21.2530606 24.4611876,21.4215333 24.0390308,21.6084752 C21.9738094,22.5227466 20.136682,23.8190583 18.5756488,25.4609405 C17.8899604,25.6141316 17.2250845,25.8691376 16.607365,26.2247396 L9.77298126,30.1598006 L8.34591693,28.7327047 C7.79513498,28.1820043 7.06304029,27.8788097 6.28425804,27.8788097 C5.5054758,27.8788097 4.77328736,28.182098 4.22259915,28.7327047 L0.853969843,32.1013149 C0.303281638,32.6520153 0,33.3841262 0,34.1629257 C0,34.9417252 0.303281638,35.6739299 0.853876093,36.2246303 L11.7751088,47.146105 C12.3258908,47.6968054 13.0579855,48 13.8367677,48 C14.61555,48 15.3477384,47.6967116 15.8984266,47.146105 L19.2670559,43.777401 C20.4037761,42.6405619 20.4037761,40.7909248 19.2670559,39.6540856 L11.1456705,31.532614 L17.5426162,27.8493715 C18.7739303,27.1404174 20.2595884,26.9724134 21.6181214,27.3882982 L31.2141025,30.3266795 C31.9303534,30.5460597 32.3961977,31.2462948 32.3217601,31.9917186 C32.2408538,32.80155 31.5661342,33.4122518 30.7522894,33.4122518 L24.216781,33.4122518 C23.6989991,33.4122518 23.2793735,33.8320742 23.2793735,34.3496801 C23.2793735,34.867286 23.6990928,35.2871083 24.216781,35.2871083 L33.028261,35.2936709 C33.2653551,35.2936709 33.4936366,35.2038563 33.6670743,35.0422276 L43.2143991,26.1504879 C43.8252748,25.5815996 44.7551823,25.5298484 45.4253081,26.02711 C45.8394962,26.334336 46.0933715,26.8059095 46.1221528,27.3208903 C46.1509341,27.8358712 45.9507776,28.332664 45.5733396,28.684141 L34.4737941,39.017602 C33.7081369,39.7303062 32.7104481,40.1228466 31.6643843,40.1228466 L26.6250341,40.1228466 C26.1072522,40.1228466 25.6876266,40.542669 25.6876266,41.0602749 C25.6876266,41.5779745 26.1073459,41.9977031 26.6250341,41.9977031 L31.664478,41.9977031 C33.1860425,41.9977031 34.6373881,41.4266584 35.751327,40.3898529 L46.8511537,30.0564857 C47.637436,29.324656 48.0541553,28.2894443 47.9943427,27.2166379 Z M38.5481743,6.01214091 C38.5481743,5.31987468 39.1114251,4.75651773 39.8037697,4.75651773 C40.4960206,4.75651773 41.0593651,5.31978093 41.0593651,6.01214091 C41.0593651,6.70450089 40.4962081,7.26776409 39.8037697,7.26776409 C39.1113313,7.26776409 38.5481743,6.70440713 38.5481743,6.01214091 Z M22.0740283,7.26776409 C21.3816836,7.26776409 20.8184329,6.70450089 20.8184329,6.01214091 C20.8184329,5.31978093 21.3816836,4.75651773 22.0740283,4.75651773 C22.7662791,4.75651773 23.3296236,5.31978093 23.3296236,6.01214091 C23.3296236,6.70450089 22.7662791,7.26776409 22.0740283,7.26776409 Z M17.9413355,40.9799292 C18.3471797,41.3856887 18.3471797,42.0459855 17.9413355,42.451745 L14.5727062,45.8204489 C14.3761122,46.017141 14.1147368,46.1253311 13.8368615,46.1253311 C13.5589861,46.1253311 13.297517,46.017141 13.1010168,45.8204489 L2.17969029,34.8989742 C1.98309629,34.7023758 1.8748149,34.4409947 1.8748149,34.1630194 C1.8748149,33.8850442 1.98309629,33.6236631 2.17969029,33.4271584 L5.5483196,30.0584545 C5.7449136,29.8617624 6.00628894,29.7535723 6.28416429,29.7535723 C6.5621334,29.7535723 6.82350873,29.8617624 7.02000899,30.0584545 L17.9413355,40.9799292 Z M34.2007,31.9835621 C34.2675439,30.4262444 33.2683551,28.9950233 31.7631969,28.5341375 L22.1673096,25.5957562 C21.9100593,25.5170043 21.6493402,25.4551279 21.3869336,25.4069392 C24.0771871,23.2170754 27.4009101,22.0301726 30.9390396,22.0301726 C34.6314818,22.0301726 38.1318301,23.3450471 40.8946461,25.749416 L34.2007,31.9835621 Z M23.5050301,40.3975406 C23.6794053,40.5719197 23.7797179,40.8137066 23.7797179,41.0602749 C23.7797179,41.3067494 23.6794053,41.54863 23.5050301,41.7229154 C23.3307486,41.8973882 23.0888733,41.9977031 22.8423105,41.9977031 C22.5949039,41.9977031 22.3539661,41.8972945 22.1786534,41.7229154 C22.0042782,41.5487238 21.904903,41.3068431 21.904903,41.0602749 C21.904903,40.8138003 22.0042782,40.5719197 22.1786534,40.3975406 C22.3538724,40.2230677 22.5948102,40.1228466 22.8423105,40.1228466 C23.0887796,40.1228466 23.3306549,40.2231615 23.5050301,40.3975406 Z M31.5743842,8.61817074 C31.7487594,8.79245607 31.849072,9.03433674 31.849072,9.28090502 C31.849072,9.52737955 31.7487594,9.76926022 31.5743842,9.94354555 C31.4001027,10.1180184 31.1582274,10.2183332 30.9116646,10.2183332 C30.664258,10.2183332 30.4233202,10.1179246 30.2480075,9.94354555 C30.0736322,9.76935397 29.9742571,9.5274733 29.9742571,9.28090502 C29.9742571,9.03443049 30.0736322,8.79254983 30.2480075,8.61817074 C30.4233202,8.44379165 30.6641642,8.3434768 30.9116646,8.3434768 C31.1581336,8.3434768 31.4000089,8.44379165 31.5743842,8.61817074 Z M14.871394,41.3349688 C15.0457693,41.5093479 15.1460819,41.7512285 15.1460819,41.9977031 C15.1460819,42.2441776 15.0457693,42.4860583 14.871394,42.6603436 C14.6971126,42.8348164 14.4552373,42.9351313 14.2086744,42.9351313 C13.9622054,42.9351313 13.7203301,42.8348164 13.5459548,42.6603436 C13.3715796,42.486152 13.271267,42.2442714 13.271267,41.9977031 C13.271267,41.7512285 13.3715796,41.5093479 13.5459548,41.3349688 C13.7202363,41.1604959 13.9621116,41.0602749 14.2086744,41.0602749 C14.4551435,41.0602749 14.6970188,41.1605897 14.871394,41.3349688 Z M30.9113833,0 C32.8755421,0 34.4736066,1.59809996 34.4736066,3.56230224 C34.4736066,5.52650453 32.8755421,7.12460448 30.9113833,7.12460448 C28.9471308,7.12460448 27.34916,5.52650453 27.34916,3.56230224 C27.34916,1.59809996 28.9472246,0 30.9113833,0 Z M30.9113833,5.24974804 C31.8417595,5.24974804 32.5987917,4.4927928 32.5987917,3.56230224 C32.5987917,2.63181168 31.8417595,1.87485644 30.9113833,1.87485644 C29.9808196,1.87485644 29.2239749,2.63181168 29.2239749,3.56230224 C29.2239749,4.4927928 29.9810071,5.24974804 30.9113833,5.24974804 Z M15.2756446,10.2539591 C15.7933327,10.2539591 16.213052,10.6737814 16.213052,11.1913873 C16.213052,11.7089932 15.7934265,12.1288155 15.2756446,12.1288155 L14.6327062,12.1288155 C14.1150181,12.1288155 13.6952988,11.7089932 13.6952988,11.1913873 C13.6952988,10.6737814 14.1149243,10.2539591 14.6327062,10.2539591 L15.2756446,10.2539591 Z M10.7272637,10.2539591 C11.2449519,10.2539591 11.6646712,10.6737814 11.6646712,11.1913873 C11.6646712,11.7089932 11.2450456,12.1288155 10.7272637,12.1288155 L10.0843254,12.1288155 C9.56663724,12.1288155 9.14691796,11.7089932 9.14691796,11.1913873 C9.14691796,10.6737814 9.56654349,10.2539591 10.0843254,10.2539591 L10.7272637,10.2539591 Z M12.679985,12.2068173 C13.1976731,12.2068173 13.6173924,12.6265459 13.6173924,13.1442456 L13.6173924,13.7871981 C13.6173924,14.304804 13.1977669,14.7246264 12.679985,14.7246264 C12.1622968,14.7246264 11.7425775,14.3048978 11.7425775,13.7871981 L11.7425775,13.1442456 C11.7425775,12.6266397 12.1622031,12.2068173 12.679985,12.2068173 Z M12.679985,7.65814824 C13.1976731,7.65814824 13.6173924,8.07797058 13.6173924,8.59567021 L13.6173924,9.23852903 C13.6173924,9.75613491 13.1977669,10.1759572 12.679985,10.1759572 C12.1622968,10.1759572 11.7425775,9.75622866 11.7425775,9.23852903 L11.7425775,8.59557646 C11.7425775,8.07797058 12.1622031,7.65814824 12.679985,7.65814824 Z M47.058904,15.6711485 C47.5765921,15.6711485 47.9963114,16.0909709 47.9963114,16.6085768 C47.9963114,17.1261826 47.5766859,17.546005 47.058904,17.546005 L46.4159657,17.546005 C45.8982775,17.546005 45.4785582,17.1261826 45.4785582,16.6085768 C45.4785582,16.0909709 45.8981837,15.6711485 46.4159657,15.6711485 L47.058904,15.6711485 Z M42.5104294,15.6711485 C43.0281176,15.6711485 43.4478369,16.0909709 43.4478369,16.6085768 C43.4478369,17.1261826 43.0282113,17.546005 42.5104294,17.546005 L41.8674911,17.546005 C41.3498029,17.546005 40.9300836,17.1261826 40.9300836,16.6085768 C40.9300836,16.0909709 41.3497092,15.6711485 41.8674911,15.6711485 L42.5104294,15.6711485 Z M44.4631507,17.6240068 C44.9809326,17.6240068 45.4005581,18.0437354 45.4005581,18.561435 L45.4005581,19.2043876 C45.4005581,19.7219935 44.9809326,20.1418158 44.4631507,20.1418158 C43.9454625,20.1418158 43.5257432,19.7220872 43.5257432,19.2043876 L43.5257432,18.561435 C43.5257432,18.0438292 43.9453687,17.6240068 44.4631507,17.6240068 Z M44.4631507,13.0754315 C44.9809326,13.0754315 45.4005581,13.49516 45.4005581,14.0128597 L45.4005581,14.6558122 C45.4005581,15.1734181 44.9809326,15.5932405 44.4631507,15.5932405 C43.9454625,15.5932405 43.5257432,15.1736056 43.5257432,14.6558122 L43.5257432,14.0128597 C43.5257432,13.4952538 43.9453687,13.0754315 44.4631507,13.0754315 Z" id="development-1"></path>
        </g>
    </g>
</svg>