<?xml version="1.0" encoding="UTF-8"?>
<svg width="194px" height="61px" viewBox="0 0 194 61" version="1.1" xmlns="http://www.w3.org/2000/svg" xmlns:xlink="http://www.w3.org/1999/xlink">
    <!-- Generator: Sketch 50.2 (55047) - http://www.bohemiancoding.com/sketch -->
    <title>03</title>
    <desc>Created with Sketch.</desc>
    <defs></defs>
    <g id="03" stroke="none" stroke-width="1" fill="none" fill-rule="evenodd">
        <path d="M24.2353516,29.4785156 C24.2353516,34.0006737 23.2994885,37.4596234 21.4277344,39.8554688 C19.5559802,42.2513141 16.8157733,43.4492188 13.2070312,43.4492188 C9.64321135,43.4492188 6.91797818,42.2737748 5.03125,39.9228516 C3.14452182,37.5719283 2.17871116,34.2028214 2.13378906,29.8154297 L2.13378906,23.7958984 C2.13378906,19.2288183 3.08088246,15.7623816 4.97509766,13.3964844 C6.86931286,11.0305871 9.59828947,9.84765625 13.1621094,9.84765625 C16.7259293,9.84765625 19.4511624,11.0193568 21.3378906,13.362793 C23.2246188,15.7062292 24.1904295,19.0715926 24.2353516,23.4589844 L24.2353516,29.4785156 Z M17.7441406,22.875 C17.7441406,20.1647 17.3735389,18.1919007 16.6323242,16.956543 C15.8911096,15.7211852 14.7343829,15.1035156 13.1621094,15.1035156 C11.634758,15.1035156 10.5079789,15.6912376 9.78173828,16.8666992 C9.05549767,18.0421608 8.6699221,19.8801958 8.625,22.3808594 L8.625,30.3320312 C8.625,32.9974092 8.98811486,34.9776953 9.71435547,36.2729492 C10.4405961,37.5682031 11.6048097,38.2158203 13.2070312,38.2158203 C14.7942788,38.2158203 15.9397751,37.5944073 16.6435547,36.3515625 C17.3473342,35.1087177 17.7141926,33.2070441 17.7441406,30.6464844 L17.7441406,22.875 Z M35.21875,23.7734375 L38.6777344,23.7734375 C40.324878,23.7734375 41.5452434,23.3616578 42.3388672,22.5380859 C43.1324909,21.7145141 43.5292969,20.6214261 43.5292969,19.2587891 C43.5292969,17.9410741 43.1362344,16.9153683 42.3500977,16.1816406 C41.5639609,15.447913 40.4821032,15.0810547 39.1044922,15.0810547 C37.8616474,15.0810547 36.8209677,15.4217088 35.9824219,16.1030273 C35.143876,16.7843459 34.7246094,17.671544 34.7246094,18.7646484 L28.2333984,18.7646484 C28.2333984,17.0576087 28.6938431,15.5265367 29.6147461,14.1713867 C30.5356491,12.8162367 31.8233967,11.7568398 33.4780273,10.9931641 C35.132658,10.2294884 36.9557192,9.84765625 38.9472656,9.84765625 C42.4062673,9.84765625 45.1165267,10.6749592 47.078125,12.3295898 C49.0397233,13.9842205 50.0205078,16.2639829 50.0205078,19.1689453 C50.0205078,20.6663486 49.5638067,22.043939 48.6503906,23.3017578 C47.7369746,24.5595766 46.5390699,25.5253873 45.0566406,26.1992188 C46.8984467,26.8580762 48.2722936,27.8463476 49.1782227,29.1640625 C50.0841517,30.4817774 50.5371094,32.0390535 50.5371094,33.8359375 C50.5371094,36.7408999 49.4777124,39.0693272 47.3588867,40.8212891 C45.240061,42.5732509 42.4362154,43.4492188 38.9472656,43.4492188 C35.6829264,43.4492188 33.013845,42.5882248 30.9399414,40.8662109 C28.8660378,39.1441971 27.8291016,36.8681782 27.8291016,34.0380859 L34.3203125,34.0380859 C34.3203125,35.2659567 34.7807571,36.2692018 35.7016602,37.0478516 C36.6225632,37.8265013 37.7568292,38.2158203 39.1044922,38.2158203 C40.6468176,38.2158203 41.8559527,37.807784 42.7319336,36.9916992 C43.6079145,36.1756144 44.0458984,35.0937567 44.0458984,33.7460938 C44.0458984,30.4817545 42.2490414,28.8496094 38.6552734,28.8496094 L35.21875,28.8496094 L35.21875,23.7734375 Z" fill="#E83F56"></path>
    </g>
</svg>