<?xml version="1.0" encoding="UTF-8"?>
<svg width="194px" height="61px" viewBox="0 0 194 61" version="1.1" xmlns="http://www.w3.org/2000/svg" xmlns:xlink="http://www.w3.org/1999/xlink">
    <!-- Generator: Sketch 50.2 (55047) - http://www.bohemiancoding.com/sketch -->
    <title>05</title>
    <desc>Created with Sketch.</desc>
    <defs></defs>
    <g id="05" stroke="none" stroke-width="1" fill="none" fill-rule="evenodd">
        <path d="M24.2353516,29.4785156 C24.2353516,34.0006737 23.2994885,37.4596234 21.4277344,39.8554688 C19.5559802,42.2513141 16.8157733,43.4492188 13.2070312,43.4492188 C9.64321135,43.4492188 6.91797818,42.2737748 5.03125,39.9228516 C3.14452182,37.5719283 2.17871116,34.2028214 2.13378906,29.8154297 L2.13378906,23.7958984 C2.13378906,19.2288183 3.08088246,15.7623816 4.97509766,13.3964844 C6.86931286,11.0305871 9.59828947,9.84765625 13.1621094,9.84765625 C16.7259293,9.84765625 19.4511624,11.0193568 21.3378906,13.362793 C23.2246188,15.7062292 24.1904295,19.0715926 24.2353516,23.4589844 L24.2353516,29.4785156 Z M17.7441406,22.875 C17.7441406,20.1647 17.3735389,18.1919007 16.6323242,16.956543 C15.8911096,15.7211852 14.7343829,15.1035156 13.1621094,15.1035156 C11.634758,15.1035156 10.5079789,15.6912376 9.78173828,16.8666992 C9.05549767,18.0421608 8.6699221,19.8801958 8.625,22.3808594 L8.625,30.3320312 C8.625,32.9974092 8.98811486,34.9776953 9.71435547,36.2729492 C10.4405961,37.5682031 11.6048097,38.2158203 13.2070312,38.2158203 C14.7942788,38.2158203 15.9397751,37.5944073 16.6435547,36.3515625 C17.3473342,35.1087177 17.7141926,33.2070441 17.7441406,30.6464844 L17.7441406,22.875 Z M29.5810547,26.9179688 L31.4677734,10.296875 L49.7958984,10.296875 L49.7958984,15.7099609 L36.7910156,15.7099609 L35.9824219,22.7402344 C37.5247473,21.9166625 39.1643793,21.5048828 40.9013672,21.5048828 C44.0159661,21.5048828 46.4566969,22.4706935 48.2236328,24.4023438 C49.9905687,26.333994 50.8740234,29.0367665 50.8740234,32.5107422 C50.8740234,34.6220809 50.4285526,36.5125242 49.5375977,38.1821289 C48.6466427,39.8517336 47.3701255,41.1469681 45.7080078,42.0678711 C44.0458901,42.9887741 42.0843212,43.4492188 39.8232422,43.4492188 C37.8466698,43.4492188 36.0123783,43.0486694 34.3203125,42.2475586 C32.6282467,41.4464478 31.2918343,40.3196687 30.3110352,38.8671875 C29.330236,37.4147063 28.8098961,35.7601004 28.75,33.9033203 L35.1738281,33.9033203 C35.3085944,35.2659573 35.7840128,36.3253543 36.6000977,37.081543 C37.4161825,37.8377316 38.4830663,38.2158203 39.8007812,38.2158203 C41.2682365,38.2158203 42.3987591,37.6879936 43.1923828,36.6323242 C43.9860066,35.5766549 44.3828125,34.0830175 44.3828125,32.1513672 C44.3828125,30.2945871 43.9261113,28.8720753 43.0126953,27.8837891 C42.0992793,26.8955029 40.8040448,26.4013672 39.1269531,26.4013672 C37.5846277,26.4013672 36.3343147,26.80566 35.3759766,27.6142578 L34.7470703,28.1982422 L29.5810547,26.9179688 Z" fill="#E83F56"></path>
    </g>
</svg>