<?xml version="1.0" encoding="UTF-8"?>
<svg width="194px" height="61px" viewBox="0 0 194 61" version="1.1" xmlns="http://www.w3.org/2000/svg" xmlns:xlink="http://www.w3.org/1999/xlink">
    <!-- Generator: Sketch 50.2 (55047) - http://www.bohemiancoding.com/sketch -->
    <title>02</title>
    <desc>Created with Sketch.</desc>
    <defs></defs>
    <g id="02" stroke="none" stroke-width="1" fill="none" fill-rule="evenodd">
        <path d="M24.2353516,29.4785156 C24.2353516,34.0006737 23.2994885,37.4596234 21.4277344,39.8554688 C19.5559802,42.2513141 16.8157733,43.4492188 13.2070312,43.4492188 C9.64321135,43.4492188 6.91797818,42.2737748 5.03125,39.9228516 C3.14452182,37.5719283 2.17871116,34.2028214 2.13378906,29.8154297 L2.13378906,23.7958984 C2.13378906,19.2288183 3.08088246,15.7623816 4.97509766,13.3964844 C6.86931286,11.0305871 9.59828947,9.84765625 13.1621094,9.84765625 C16.7259293,9.84765625 19.4511624,11.0193568 21.3378906,13.362793 C23.2246188,15.7062292 24.1904295,19.0715926 24.2353516,23.4589844 L24.2353516,29.4785156 Z M17.7441406,22.875 C17.7441406,20.1647 17.3735389,18.1919007 16.6323242,16.956543 C15.8911096,15.7211852 14.7343829,15.1035156 13.1621094,15.1035156 C11.634758,15.1035156 10.5079789,15.6912376 9.78173828,16.8666992 C9.05549767,18.0421608 8.6699221,19.8801958 8.625,22.3808594 L8.625,30.3320312 C8.625,32.9974092 8.98811486,34.9776953 9.71435547,36.2729492 C10.4405961,37.5682031 11.6048097,38.2158203 13.2070312,38.2158203 C14.7942788,38.2158203 15.9397751,37.5944073 16.6435547,36.3515625 C17.3473342,35.1087177 17.7141926,33.2070441 17.7441406,30.6464844 L17.7441406,22.875 Z M51.03125,43 L28.6152344,43 L28.6152344,38.5527344 L39.1943359,27.2773438 C40.6468172,25.6900962 41.7211879,24.3050189 42.4174805,23.1220703 C43.113773,21.9391217 43.4619141,20.816086 43.4619141,19.7529297 C43.4619141,18.3004485 43.0950558,17.1586956 42.3613281,16.3276367 C41.6276005,15.4965779 40.5794339,15.0810547 39.2167969,15.0810547 C37.7493416,15.0810547 36.5926149,15.5864207 35.746582,16.597168 C34.9005492,17.6079152 34.4775391,18.9368407 34.4775391,20.5839844 L27.9638672,20.5839844 C27.9638672,18.592438 28.4392856,16.7731202 29.3901367,15.1259766 C30.3409878,13.4788329 31.6848871,12.1873419 33.421875,11.2514648 C35.1588629,10.3155878 37.1279187,9.84765625 39.3291016,9.84765625 C42.698259,9.84765625 45.3149321,10.6562419 47.1791992,12.2734375 C49.0434664,13.8906331 49.9755859,16.1741389 49.9755859,19.1240234 C49.9755859,20.741219 49.5563193,22.388338 48.7177734,24.0654297 C47.8792276,25.7425214 46.441742,27.6966034 44.4052734,29.9277344 L36.9707031,37.7666016 L51.03125,37.7666016 L51.03125,43 Z" fill="#E83F56"></path>
    </g>
</svg>