<?xml version="1.0" standalone="no"?>
<!DOCTYPE svg PUBLIC "-//W3C//DTD SVG 20010904//EN"
 "http://www.w3.org/TR/2001/REC-SVG-20010904/DTD/svg10.dtd">
<svg version="1.0" xmlns="http://www.w3.org/2000/svg"
 width="176.000000pt" height="30.000000pt" viewBox="0 0 176.000000 30.000000"
 preserveAspectRatio="xMidYMid meet">
<metadata>
Created by potrace 1.15, written by Peter Selinger 2001-2017
</metadata>
<g transform="translate(0.000000,30.000000) scale(0.100000,-0.100000)"
fill="#000000" stroke="none">
<path d="M1307 270 c62 -14 66 -27 24 -66 -45 -40 -64 -42 -85 -12 -21 29 -20
34 5 59 12 12 15 19 8 17 -8 -3 -21 -16 -29 -31 -12 -22 -12 -29 -1 -51 8 -14
22 -28 31 -31 14 -4 17 -14 13 -49 -5 -40 -3 -46 23 -62 16 -10 32 -23 36 -29
5 -6 8 -4 8 6 0 13 12 22 63 47 4 2 7 -3 7 -12 0 -21 79 -19 103 2 16 15 17
14 11 -1 -3 -9 -2 -17 4 -17 12 0 126 190 118 197 -7 8 -6 10 -48 -58 -41 -65
-96 -129 -110 -129 -5 0 -1 16 11 36 12 19 21 36 21 38 0 8 -66 4 -82 -5 -14
-7 -20 -6 -24 6 -16 39 -94 -7 -94 -56 0 -26 -16 -24 -23 2 -8 30 12 79 32 79
36 0 109 32 136 60 46 48 19 74 -53 49 -24 -8 -37 -7 -61 5 -16 9 -40 16 -53
15 -17 -1 -15 -3 9 -9z"/>
<path d="M36 251 c-12 -13 -15 -27 -11 -41 7 -23 50 -44 72 -36 7 3 13 1 13
-4 0 -6 -5 -10 -12 -10 -21 0 -68 -53 -68 -76 0 -25 24 -54 46 -54 8 0 14 -8
15 -17 0 -15 2 -15 8 2 5 11 5 25 0 31 -9 11 14 64 34 76 7 4 19 5 27 2 12 -4
12 -3 3 7 -20 20 -59 -4 -73 -45 -14 -44 -30 -47 -30 -6 0 39 39 80 77 81 19
1 22 3 9 6 -15 4 -12 9 19 27 47 26 64 51 48 67 -8 8 -20 9 -42 1 -19 -7 -33
-7 -36 -1 -11 17 -81 10 -99 -10z"/>
<path d="M451 173 c-54 -80 -118 -140 -132 -126 -12 12 -1 41 25 63 14 10 16
10 16 -6 0 -14 3 -15 12 -6 9 9 9 15 1 23 -14 14 -46 -2 -95 -49 -24 -23 -38
-31 -38 -21 0 23 31 61 46 55 16 -6 28 10 14 19 -6 4 -17 1 -25 -5 -12 -10
-18 -10 -29 -1 -11 9 -20 6 -42 -13 -16 -14 -24 -26 -18 -26 7 0 14 7 18 15 3
8 12 15 21 15 14 0 14 -3 -1 -31 -11 -23 -21 -30 -35 -26 -12 3 -19 0 -19 -9
0 -17 5 -17 32 -3 15 8 22 8 28 -1 6 -9 14 -8 32 4 23 15 27 15 38 1 16 -20
26 -19 61 6 20 14 27 16 23 6 -8 -23 14 -30 40 -14 21 14 25 14 41 -1 10 -9
15 -11 11 -4 -4 6 2 25 13 41 12 16 21 34 21 40 0 19 -19 12 -36 -14 -19 -29
-74 -71 -74 -57 0 5 22 43 48 83 65 101 64 99 53 99 -6 0 -28 -26 -50 -57z"/>
</g>
</svg>
