<?xml version="1.0" encoding="iso-8859-1"?>
<!-- Generator: Adobe Illustrator 21.0.2, SVG Export Plug-In . SVG Version: 6.00 Build 0)  -->
<svg xmlns="http://www.w3.org/2000/svg" xmlns:xlink="http://www.w3.org/1999/xlink" version="1.1" id="Layer_1" x="0px" y="0px" viewBox="0 0 40 40" style="enable-background:new 0 0 40 40;" xml:space="preserve">
<g>
	<polygon style="fill:#98CCFD;" points="5.5,37.071 5.5,8.115 16.714,5.624 16.714,37.071  "/>
	<g>
		<path style="fill:#4788C7;" d="M16.214,6.247v30.325H6V8.516L16.214,6.247 M17.214,5L5,7.714v29.857h12.214V5L17.214,5z"/>
	</g>
</g>
<g>
	<rect x="2.5" y="10.5" style="fill:#98CCFD;" width="18" height="28"/>
	<g>
		<path style="fill:#4788C7;" d="M20,11v27H3V11H20 M21,10H2v29h19V10L21,10z"/>
	</g>
</g>
<rect x="2" y="36" transform="matrix(-1 -4.632751e-11 4.632751e-11 -1 20 75)" style="fill:#98CCFD;" width="16" height="3"/>
<polygon style="fill:#4788C7;" points="9,39 21.929,39 21.928,4.454 9,7.188 "/>
<g>
	<rect x="24.5" y="7.5" style="fill:#98CCFD;" width="10" height="29"/>
	<g>
		<path style="fill:#4788C7;" d="M34,8v28h-9V8H34 M35,7H24v30h11V7L35,7z"/>
	</g>
</g>
<g>
	<rect x="21.5" y="10.5" style="fill:#98CCFD;" width="16" height="28"/>
	<g>
		<path style="fill:#4788C7;" d="M37,11v27H22V11H37 M38,10H21v29h17V10L38,10z"/>
	</g>
</g>
<rect x="23" y="36" style="fill:#98CCFD;" width="15" height="3"/>
<rect x="18" y="10" style="fill:#4788C7;" width="14" height="29"/>
<g>
	<rect x="14.5" y="1.5" style="fill:#DFF0FE;" width="12" height="33.667"/>
	<path style="fill:#4788C7;" d="M26,2v32.667H15V2H26 M27,1H14v34.667h13V1L27,1z"/>
</g>
<g>
	<rect x="11.5" y="4.5" style="fill:#DFF0FE;" width="18" height="34"/>
	<path style="fill:#4788C7;" d="M29,5v33H12V5H29 M30,4H11v35h19V4L30,4z"/>
</g>
<rect x="12" y="36" style="fill:#DBF2FF;" width="17" height="3"/>
<g>
	<g>
		<path style="fill:#98CCFD;" d="M16,8h1V7h-1V8z M18,8h1V7h-1V8z M20,8h1V7h-1V8z M14,8h1V7h-1V8z M22,8h1V7h-1V8z M16,10h1V9h-1    V10z M18,10h1V9h-1V10z M20,10h1V9h-1V10z M14,10h1V9h-1V10z M22,10h1V9h-1V10z M16,12h1v-1h-1V12z M18,12h1v-1h-1V12z M20,12h1    v-1h-1V12z M14,12h1v-1h-1V12z M22,12h1v-1h-1V12z M16,14h1v-1h-1V14z M18,14h1v-1h-1V14z M20,14h1v-1h-1V14z M14,14h1v-1h-1V14z     M22,14h1v-1h-1V14z M16,16h1v-1h-1V16z M18,16h1v-1h-1V16z M20,16h1v-1h-1V16z M14,16h1v-1h-1V16z M22,16h1v-1h-1V16z M16,18h1    v-1h-1V18z M18,18h1v-1h-1V18z M20,18h1v-1h-1V18z M14,18h1v-1h-1V18z M22,18h1v-1h-1V18z M16,20h1v-1h-1V20z M18,20h1v-1h-1V20z     M20,20h1v-1h-1V20z M14,20h1v-1h-1V20z M22,20h1v-1h-1V20z M16,22h1v-1h-1V22z M18,22h1v-1h-1V22z M20,22h1v-1h-1V22z M14,22h1    v-1h-1V22z M22,22h1v-1h-1V22z M16,24h1v-1h-1V24z M18,24h1v-1h-1V24z M20,24h1v-1h-1V24z M14,24h1v-1h-1V24z M22,24h1v-1h-1V24z     M16,26h1v-1h-1V26z M18,26h1v-1h-1V26z M20,26h1v-1h-1V26z M14,26h1v-1h-1V26z M22,26h1v-1h-1V26z M16,28h1v-1h-1V28z M18,28h1    v-1h-1V28z M20,28h1v-1h-1V28z M14,28h1v-1h-1V28z M22,28h1v-1h-1V28z M16,30h1v-1h-1V30z M18,30h1v-1h-1V30z M20,30h1v-1h-1V30z     M14,30h1v-1h-1V30z M22,30h1v-1h-1V30z M24,8h1V7h-1V8z M26,7v1h1V7H26z M24,10h1V9h-1V10z M26,10h1V9h-1V10z M24,12h1v-1h-1V12z     M26,12h1v-1h-1V12z M24,14h1v-1h-1V14z M26,14h1v-1h-1V14z M24,16h1v-1h-1V16z M26,16h1v-1h-1V16z M24,18h1v-1h-1V18z M26,18h1    v-1h-1V18z M24,20h1v-1h-1V20z M26,20h1v-1h-1V20z M24,22h1v-1h-1V22z M26,22h1v-1h-1V22z M24,24h1v-1h-1V24z M26,24h1v-1h-1V24z     M24,26h1v-1h-1V26z M26,26h1v-1h-1V26z M24,28h1v-1h-1V28z M26,28h1v-1h-1V28z M24,30h1v-1h-1V30z M26,30h1v-1h-1V30z M16,32h1    v-1h-1V32z M18,32h1v-1h-1V32z M20,32h1v-1h-1V32z M14,32h1v-1h-1V32z M22,32h1v-1h-1V32z M16,34h1v-1h-1V34z M18,34h1v-1h-1V34z     M20,34h1v-1h-1V34z M14,34h1v-1h-1V34z M22,34h1v-1h-1V34z M16,36h1v-1h-1V36z M18,36h1v-1h-1V36z M20,36h1v-1h-1V36z M14,36h1    v-1h-1V36z M22,36h1v-1h-1V36z M16,38h1v-1h-1V38z M18,38h1v-1h-1V38z M20,38h1v-1h-1V38z M14,38h1v-1h-1V38z M22,38h1v-1h-1V38z     M24,32h1v-1h-1V32z M26,32h1v-1h-1V32z M24,34h1v-1h-1V34z M26,34h1v-1h-1V34z M24,36h1v-1h-1V36z M26,36h1v-1h-1V36z M24,38h1    v-1h-1V38z M26,38h1v-1h-1V38z"/>
	</g>
</g>
<g>
	<g>
		<path style="fill:#FFFFFF;" d="M32,14h1v-1h-1V14z M34,13v1h1v-1H34z M32,16h1v-1h-1V16z M34,16h1v-1h-1V16z M32,18h1v-1h-1V18z     M34,18h1v-1h-1V18z M32,20h1v-1h-1V20z M34,20h1v-1h-1V20z M32,22h1v-1h-1V22z M34,22h1v-1h-1V22z M32,24h1v-1h-1V24z M34,24h1    v-1h-1V24z M32,26h1v-1h-1V26z M34,26h1v-1h-1V26z M32,28h1v-1h-1V28z M34,28h1v-1h-1V28z M32,30h1v-1h-1V30z M34,30h1v-1h-1V30z     M32,32h1v-1h-1V32z M34,32h1v-1h-1V32z M32,34h1v-1h-1V34z M34,34h1v-1h-1V34z M32,36h1v-1h-1V36z M34,36h1v-1h-1V36z M32,38h1    v-1h-1V38z M34,38h1v-1h-1V38z"/>
	</g>
</g>
<g>
	<g>
		<path style="fill:#FFFFFF;" d="M5,14h1v-1H5V14z M7,13v1h1v-1H7z M5,16h1v-1H5V16z M7,16h1v-1H7V16z M5,18h1v-1H5V18z M7,18h1v-1    H7V18z M5,20h1v-1H5V20z M7,20h1v-1H7V20z M5,22h1v-1H5V22z M7,22h1v-1H7V22z M5,24h1v-1H5V24z M7,24h1v-1H7V24z M5,26h1v-1H5V26z     M7,26h1v-1H7V26z M5,28h1v-1H5V28z M7,28h1v-1H7V28z M5,30h1v-1H5V30z M7,30h1v-1H7V30z M5,32h1v-1H5V32z M7,32h1v-1H7V32z M5,34    h1v-1H5V34z M7,34h1v-1H7V34z M5,36h1v-1H5V36z M7,36h1v-1H7V36z M5,38h1v-1H5V38z M7,38h1v-1H7V38z"/>
	</g>
</g>
<g>
	<g>
		<path style="fill:#DFF0FE;" d="M30,13v1h1v-1H30z M30,16h1v-1h-1V16z M30,18h1v-1h-1V18z M30,20h1v-1h-1V20z M30,22h1v-1h-1V22z     M30,24h1v-1h-1V24z M30,26h1v-1h-1V26z M30,28h1v-1h-1V28z M30,30h1v-1h-1V30z M30,32h1v-1h-1V32z M30,34h1v-1h-1V34z M30,36h1    v-1h-1V36z M30,38h1v-1h-1V38z"/>
	</g>
</g>
<g>
	<g>
		<path style="fill:#DFF0FE;" d="M10,12.904v1.004h1v-1.004H10z M10,15.914h1v-1.004h-1V15.914z M10,17.922h1v-1.004h-1V17.922z     M10,19.929h1v-1.004h-1V19.929z M10,21.936h1v-1.004h-1V21.936z M10,23.943h1v-1.004h-1V23.943z M10,25.95h1v-1.004h-1V25.95z     M10,27.957h1v-1.004h-1V27.957z M10,29.964h1v-1.004h-1V29.964z M10,31.971h1v-1.004h-1V31.971z M10,33.979h1v-1.004h-1V33.979z     M10,35.986h1v-1.004h-1V35.986z M10,37.993h1v-1.004h-1V37.993z"/>
	</g>
</g>
<path style="fill:#4788C7;" d="M37.5,33L37.5,33c0.275,0,0.5,0.225,0.5,0.5v5c0,0.275-0.225,0.5-0.5,0.5l0,0  c-0.275,0-0.5-0.225-0.5-0.5v-5C37,33.225,37.225,33,37.5,33z"/>
<path style="fill:#4788C7;" d="M2.5,33L2.5,33C2.775,33,3,33.225,3,33.5v5C3,38.775,2.775,39,2.5,39h0C2.225,39,2,38.775,2,38.5v-5  C2,33.225,2.225,33,2.5,33z"/>
</svg>
