<?xml version="1.0" encoding="iso-8859-1"?>
<!-- Generator: Adobe Illustrator 19.0.0, SVG Export Plug-In . SVG Version: 6.00 Build 0)  -->
<svg version="1.1" id="Layer_1" xmlns="http://www.w3.org/2000/svg" xmlns:xlink="http://www.w3.org/1999/xlink" x="0px" y="0px"
	 viewBox="0 0 512 512" style="enable-background:new 0 0 512 512;" xml:space="preserve">
<circle style="fill:#263A7A;" cx="256" cy="256" r="256"/>
<path style="fill:#121149;" d="M364.154,110.497L148.111,401.773l110.275,110.197c139.514-1.276,252.35-114.136,253.587-253.659
	L364.154,110.497z"/>
<path style="fill:#FFFFFF;" d="M162.399,407.704h187.204c11.143,0,20.177-9.033,20.177-20.177V124.473
	c0-11.143-9.033-20.177-20.177-20.177H162.399c-11.143,0-20.177,9.033-20.177,20.177v263.056
	C142.222,398.67,151.255,407.704,162.399,407.704z"/>
<path style="fill:#D8D8D8;" d="M349.601,104.296h-94.175v303.407h94.175c11.143,0,20.177-9.033,20.177-20.177V124.473
	C369.778,113.33,360.745,104.296,349.601,104.296z"/>
<circle style="fill:#366695;" cx="306.562" cy="357.142" r="25.285"/>
<g>
	<circle style="fill:#5987AD;" cx="180.907" cy="293.736" r="10.726"/>
	<circle style="fill:#5987AD;" cx="213.092" cy="293.736" r="10.726"/>
	<circle style="fill:#5987AD;" cx="245.277" cy="293.736" r="10.726"/>
	<circle style="fill:#5987AD;" cx="180.907" cy="332.61" r="10.726"/>
	<circle style="fill:#5987AD;" cx="213.092" cy="332.61" r="10.726"/>
	<circle style="fill:#5987AD;" cx="245.277" cy="332.61" r="10.726"/>
	<circle style="fill:#5987AD;" cx="180.907" cy="371.502" r="10.726"/>
	<circle style="fill:#5987AD;" cx="213.092" cy="371.502" r="10.726"/>
	<circle style="fill:#5987AD;" cx="245.277" cy="371.502" r="10.726"/>
</g>
<circle style="fill:#273B7A;" cx="256" cy="174.787" r="55.93"/>
<path style="fill:#121149;" d="M256,118.853c-0.193,0-0.383,0.012-0.574,0.016v111.833c0.191,0.002,0.381,0.014,0.574,0.014
	c30.891,0,55.93-25.041,55.93-55.93C311.93,143.894,286.891,118.853,256,118.853z"/>
<circle style="fill:#386895;" cx="256" cy="174.787" r="42.139"/>
<path style="fill:#263A7A;" d="M256,132.644c-0.193,0-0.383,0.012-0.574,0.016v84.251c0.191,0.002,0.381,0.014,0.574,0.014
	c23.273,0,42.139-18.866,42.139-42.139S279.273,132.644,256,132.644z"/>
<path style="fill:#FFC91B;" d="M183.851,273.494h144.298c7.97,0,14.429-6.461,14.429-14.429l0,0c0-7.97-6.461-14.429-14.429-14.429
	H183.851c-7.97,0-14.429,6.461-14.429,14.429l0,0C169.422,267.035,175.881,273.494,183.851,273.494z"/>
<path style="fill:#D8A013;" d="M328.149,244.634h-72.723v28.86h72.723c7.97,0,14.429-6.461,14.429-14.429
	C342.578,251.095,336.119,244.634,328.149,244.634z"/>
<g>
</g>
<g>
</g>
<g>
</g>
<g>
</g>
<g>
</g>
<g>
</g>
<g>
</g>
<g>
</g>
<g>
</g>
<g>
</g>
<g>
</g>
<g>
</g>
<g>
</g>
<g>
</g>
<g>
</g>
</svg>
