<?xml version="1.0" encoding="utf-8"?>
<!-- Generator: Adobe Illustrator 21.0.2, SVG Export Plug-In . SVG Version: 6.00 Build 0)  -->
<svg version="1.1" id="Layer_1" xmlns="http://www.w3.org/2000/svg" xmlns:xlink="http://www.w3.org/1999/xlink" x="0px" y="0px"
	 viewBox="0 0 40 40" style="enable-background:new 0 0 40 40;" xml:space="preserve">
<style type="text/css">
	.st0{fill:#FFFFFF;}
</style>
<g>
	<path class="st0" d="M32.6,21.4c0-1,0-2,0-3c2.5,0,4.9,0,7.4,0c0,1,0,2,0,3C37.5,21.4,35.1,21.4,32.6,21.4z"/>
	<path class="st0" d="M21.7,40c-1,0-2,0-3,0c0-2.5,0-5,0-7.5c1,0,2,0,3,0C21.7,35,21.7,37.5,21.7,40z"/>
	<path class="st0" d="M27.8,9.9c1.8-1.7,3.6-3.4,5.3-5.1c0.6,0.6,1.3,1.3,2.1,2c-1.8,1.7-3.5,3.4-5.3,5.1
		C29.3,11.4,28.6,10.7,27.8,9.9z"/>
	<path class="st0" d="M4.6,6.8C5.3,6.1,6,5.4,6.7,4.8c1.7,1.7,3.5,3.4,5.3,5.2c-0.7,0.7-1.4,1.4-2.1,2C8.2,10.3,6.4,8.6,4.6,6.8z"/>
	<path class="st0" d="M18.7,7.4c0-2.5,0-4.9,0-7.4c1,0,2,0,3,0c0,2.5,0,4.9,0,7.4C20.7,7.4,19.7,7.4,18.7,7.4z"/>
	<path class="st0" d="M30,27.8c1.7,1.7,3.5,3.4,5.2,5.1c-0.7,0.7-1.4,1.4-2.1,2.1c-1.7-1.6-3.5-3.4-5.2-5.1
		C28.7,29.2,29.4,28.5,30,27.8z"/>
	<path class="st0" d="M7,35.2c-0.6-0.6-1.3-1.3-2-2c1.8-1.7,3.5-3.4,5.2-5.1c0.6,0.6,1.3,1.3,2,2C10.5,31.7,8.7,33.5,7,35.2z"/>
	<path class="st0" d="M0,18.6c2.4,0,4.8,0,7.1,0c0.1,0,0.1,0,0.3,0c0,1,0,2,0,3c-2.4,0-4.9,0-7.4,0C0,20.6,0,19.6,0,18.6z"/>
</g>
<g>
	<path class="st0" d="M20.2,28.9c-5,0-9.1-4.1-9.1-9.1s4.1-9.1,9.1-9.1s9.1,4.1,9.1,9.1S25.2,28.9,20.2,28.9z M20.2,13.8
		c-3.3,0-6,2.7-6,6s2.7,6,6,6s6-2.7,6-6S23.5,13.8,20.2,13.8z"/>
</g>
</svg>
