<?xml version="1.0" encoding="utf-8"?>
<!-- Generator: Adobe Illustrator 21.0.2, SVG Export Plug-In . SVG Version: 6.00 Build 0)  -->
<svg version="1.1" id="Capa_1" xmlns="http://www.w3.org/2000/svg" xmlns:xlink="http://www.w3.org/1999/xlink" x="0px" y="0px"
	 viewBox="0 0 40 40" style="enable-background:new 0 0 40 40;" xml:space="preserve">
<style type="text/css">
	.st0{fill:#FFFFFF;}
</style>
<g>
	<g>
		<path class="st0" d="M6.2,29.6c0-0.5,0.1-1.1,0.1-1.7C6.4,26.6,6.7,25.3,7,24c0.2-0.6,0.4-1.3,0.6-1.9c0.3-0.6,0.5-1.2,0.8-1.8
			c0.6-1.1,1.2-2.2,2-3.1c0.2-0.2,0.4-0.5,0.5-0.7c0.2-0.2,0.4-0.4,0.6-0.6c0.4-0.4,0.8-0.8,1.2-1.1c0.8-0.6,1.5-1.2,2.3-1.5
			c0.7-0.4,1.3-0.7,1.9-0.9c1.1-0.4,1.7-0.6,1.7-0.6s-0.7,0.4-1.6,1.1c-0.5,0.3-1,0.8-1.5,1.3c-0.6,0.5-1.2,1.1-1.8,1.8
			c-0.3,0.3-0.6,0.7-0.9,1.1c-0.2,0.2-0.3,0.4-0.5,0.6c-0.1,0.2-0.3,0.4-0.4,0.7c-0.6,0.9-1,1.9-1.5,2.9c-0.2,0.5-0.4,1.1-0.6,1.6
			c-0.1,0.6-0.3,1.2-0.4,1.7c-0.2,1.2-0.5,2.4-0.6,3.6c-0.1,0.5-0.1,0.9-0.1,1.4c9.9,0,17.5,0,28.2,0c0-0.5,0.1-0.9,0.1-1.4
			c0-9-6.6-16.4-15-17.4c0.5-0.5,0.9-1.2,0.9-2c-0.1-1.6-1.4-2.9-2.9-2.9s-2.8,1.3-2.8,2.8c0,0.8,0.3,1.5,0.9,2
			c-8.4,1-15,8.4-15,17.4c0,0.5,0,0.9,0.1,1.4C4.2,29.6,5.2,29.6,6.2,29.6z"/>
		<rect y="30.6" class="st0" width="40" height="3.5"/>
	</g>
</g>
</svg>
