<?xml version="1.0" encoding="UTF-8" standalone="no"?>
<svg
   xmlns:dc="http://purl.org/dc/elements/1.1/"
   xmlns:cc="http://creativecommons.org/ns#"
   xmlns:rdf="http://www.w3.org/1999/02/22-rdf-syntax-ns#"
   xmlns:svg="http://www.w3.org/2000/svg"
   xmlns="http://www.w3.org/2000/svg"
   viewBox="0 0 874.78351 872.42897"
   height="246.21884mm"
   width="246.88335mm"
   version="1.1"
   id="svg3346">
  <metadata
     id="metadata3352">
    <rdf:RDF>
      <cc:Work
         rdf:about="">
        <dc:format>image/svg+xml</dc:format>
        <dc:type
           rdf:resource="http://purl.org/dc/dcmitype/StillImage" />
        <dc:title></dc:title>
      </cc:Work>
    </rdf:RDF>
  </metadata>
  <defs
     id="defs3350" />
  <path
     id="path3356"
     d="M 218.1827,654.36305 0,436.31083 218.4438,217.86966 C 338.5879,97.727034 437.1594,-0.31398431 437.4915,7.5569241e-4 437.8236,0.31548569 536.3502,98.729254 656.4394,218.698 L 874.7835,436.82301 656.1995,654.63286 C 535.9783,774.42827 437.3342,872.43653 436.9905,872.42898 436.6467,872.42098 338.1833,774.29176 218.1827,654.36305 Z M 603.7904,601.27316 753.7113,451.3483 654.5341,352.4049 555.357,253.46148 437.4239,371.38957 319.4909,489.31766 285.4309,455.25765 251.3708,421.19762 369.3514,303.2121 487.332,185.22656 455.0974,153.21229 C 437.3684,135.60442 422.5251,121.198 422.1122,121.198 c -0.4128,0 -68.2497,67.52159 -150.7487,150.048 l -149.998,150.04797 99.267,98.80756 99.267,98.80757 117.608,-117.59474 117.608,-117.59475 34.0929,34.03429 34.0929,34.03428 -117.8429,117.10668 -117.8429,117.10669 32.491,32.59822 c 17.87,17.92904 32.7771,32.59824 33.1269,32.59824 0.3498,0 68.1004,-67.46619 150.557,-149.92485 z"
     style="fill:#0a0a0a" />
</svg>
